CoelacanthDisplayHairline.sfdir
StartChar: uni001D
Encoding: 29 29 2457
Width: 1000
Flags: HW
LayerCount: 2
Back
SplineSet
0.001953125 -7.8671875 m 1
 -74.0126953125 -135.853515625 l 1
 -78.0048828125 -133.4375 -81.998046875 -131.022460938 -85.9912109375 -128.606445312 c 1
 -8.9765625 -2.619140625 l 1
 -152.075195312 28.4091796875 l 1
 -151.01171875 32.953125 -149.948242188 37.4970703125 -148.884765625 42.041015625 c 1
 -5.78515625 7.01171875 l 1
 -19.9751915421 153.41118513 l 1
 -15.3250638474 153.803728377 -10.6749361526 154.196271623 -6.02480845794 154.58881487 c 1
 4.1650390625 7.189453125 l 1
 139.73046875 66.404296875 l 1
 141.540039062 62.1025390625 143.350585938 57.8017578125 145.161132812 53.5009765625 c 1
 7.595703125 -1.71484375 l 1
 106.333007812 -112.37109375 l 1
 102.801757812 -115.421875 99.2705078125 -118.47265625 95.7392578125 -121.524414062 c 1
 0.001953125 -7.8671875 l 1
EndSplineSet
EndChar
StartChar: exclam
Encoding: 33 33 349
Width: 277
Flags: HW
HStem: -17.5 133<116.816 149.483>
VStem: 67.5254 133.95<30.4466 64.8792> 122 34<209 408.18>
LayerCount: 2
Fore
SplineSet
133 209 m 1xa0
 135 339 134.858385784 435.320224078 135 533 c 0
 135.068447371 580.21223692 137 604 137 654 c 1
 139.692307692 664 150.401709402 665 151 658 c 1
 152.4 622 149.018667084 601.698573923 149 530 c 0
 148.153846154 405 147 342 147 208 c 1
 133 209 l 1xa0
EndSplineSet
Refer: 656 46 N 1 0 0 1 33 0 2
Position2: "cpsp-1" dx=0 dy=0 dh=50 dv=100
Substitution2: "pcap-1" exclam.pcap
Substitution2: "smcp-1" exclam.smcp
EndChar
StartChar: dollar
Encoding: 36 36 287
Width: 463
UnlinkRmOvrlpSave: 1
Flags: HW
HStem: -8 34<169.661 305.631> 391 26<201.367 298.023>
VStem: 100 64<290.012 362.48> 341 55<52.7366 132.167>
LayerCount: 2
Fore
SplineSet
385 374 m 1
 362.692382812 340.166992188 349.461914062 316 327 287 c 1
 316 297 l 1
 353.333333333 343.4 360 358.991518624 360 369 c 3
 360 377.275206368 311.167212702 403 259 403 c 3
 187.432814577 403 122 369.148421491 122 322 c 3
 122 272.366648707 192.608582473 247.521738311 249 222 c 0
 330.010590456 185.336068134 388 151.556063566 388 96 c 3
 388 36.7600446429 314.084360881 -8 230 -8 c 3
 158.830078125 -8 95.2880859375 34.1015625 68 83 c 1
 85.9228515625 105.013671875 111.349609375 129.633789062 132 155 c 1
 143 146 l 1
 104 102 90 85.9046610169 90 82 c 3
 90 59.9305245536 157.067023026 6 230 6 c 3
 317.779464286 6 374 50.3523137019 374 96 c 3
 374 135.605945122 334.524834941 169.503884849 246 208 c 0
 178.239526496 237.466476751 108 262.324497768 108 321 c 3
 108 376.494087837 178.644407634 417 258 417 c 3
 312.67578125 417 358.897460938 393.739257812 385 374 c 1
EndSplineSet
Refer: 778 58113 N 0.0181668 0.693762 -0.968418 0.0253589 236.417 -147.881 2
Substitution2: "case-1" dollar.alt
Substitution2: "lnum-1" dollar.alt
EndChar
StartChar: ampersand
Encoding: 38 38 78
Width: 676
VWidth: 1159
Flags: HW
HStem: -11 54<156.653 298.893> -5 39<526.931 601.526> 474 18<596.913 638>
VStem: 17 69<117.949 262.636> 81 35<482.539 566.363>
LayerCount: 2
Back
SplineSet
425.861718891 149.506016435 m 1
 455.331630101 78.3483306257 500.478459472 9 554 9 c 0
 591.841311343 9 630.957185125 46.0238511456 656.381463316 111.612661453 c 1
 669.435066139 106.552675947 l 1
 643.36237446 39.2911074606 601.327218758 -5 554 -5 c 0
 491.321188859 -5 445.743256656 68.0060113225 416.386062823 135.962568159 c 1
 411.986753986 129.213981643 407.618824011 122.685133835 403.083559294 116.111085759 c 1
 378.919099397 83.8921290078 316.036698242 -11 199 -11 c 0
 80.006338336 -11 17 85.0056760451 17 172 c 0
 17 275.918580308 83.653762689 339.389867984 168.512461007 381.779733507 c 0
 173.220001149 384.131313222 178.087624906 386.579181051 182.883514009 389.012663993 c 1
 181.515522733 389.554576525 179.953454457 390.17315932 178.757049345 390.646863044 c 0
 125.052342095 411.910663726 81 453.066590313 81 506 c 0
 81 591.853567199 158.115254139 615.577748647 228.318035385 651.610043002 c 0
 231.033382251 653.003722508 l 1
 233.902413326 651.962515583 l 0
 317.100740931 621.768811633 356.216528403 574.330415473 351.088840954 499.165965724 c 0
 351.004462883 497.929105757 l 1
 350.50043284 496.796455787 l 0
 333.080264704 457.650073144 276.381878734 422.476459505 216.419168125 390.627320177 c 1
 306.109518916 353.696801287 360.593662491 317.146476179 419.095928637 166.514523482 c 1
 468.166424074 246.901588634 508.760094012 339.471907213 539.907865762 430.937202065 c 0
 548.43238377 455.969411731 554.262637831 470.060942722 567.34799269 479.203209776 c 1
 544.250851569 482.819735286 520.056677084 488.464384189 498.883219898 495.334807342 c 1
 503.204195388 508.651307288 l 1
 541.760069898 496.140588298 588.220474334 488.128507001 631.400680216 487.934694307 c 1
 631.481477371 473.935664336 l 1
 573.01444834 472.998266713 571.127933569 479.185434527 553.160493613 426.42412606 c 0
 520.77891959 331.335776253 478.337758116 235.079869349 426.49953718 151.848600366 c 0
 425.970868655 150.999772003 426.512062509 151.867733749 425.982537169 151.019439628 c 0
 425.861718891 149.506016435 l 1
200.163368665 382.125194664 m 0
 199.160492875 381.608884058 197.833683741 380.926359345 197.15448585 380.577779855 c 0
 189.683317556 376.743409837 182.200237692 372.967689337 174.768788993 369.255422743 c 0
 91.970386972 327.894746739 31 268.730276043 31 172 c 0
 31 91.1375280058 88.9520783029 3 199 3 c 0
 307.751378461 3 367.192327489 91.5897735077 391.717221956 124.289304866 c 1
 397.5987862 132.814868094 403.947857439 142.412964356 409.859310805 151.691938888 c 0
 408.83840005 154.248824933 407.829270688 156.821995446 406.861480625 159.334237703 c 0
 347.029977837 314.648117629 296.123165287 343.378818159 202.111930935 381.339659599 c 0
 201.556274609 381.564028334 200.814646184 381.862953525 200.163368665 382.125194664 c 0
199.418070521 397.506466877 m 0
 200.681036577 398.164424254 199.965100314 397.791086343 200.851625345 398.253766977 c 0
 263.727721833 431.069030116 320.945970149 467.625275031 337.203867903 501.377164332 c 1
 341.158291638 569.001096894 308.275503992 609.266489884 231.972855091 637.756316621 c 1
 159.073505692 600.703583168 95 579.925753348 95 506 c 0
 95 461.629099036 132.684904871 423.946072816 183.910919405 403.663683831 c 0
 188.09888331 402.005504608 192.213873528 400.3759175 196.259625065 398.765492682 c 0
 197.126571773 398.42040167 198.369067841 397.925062064 199.418070521 397.506466877 c 0
EndSplineSet
Fore
SplineSet
200 382 m 1xb0
 138 351 31 301 31 172 c 3
 31 82.9516254844 96.7826086957 3 199 3 c 3
 298.127516779 3 362.268456376 76.303030303 410 152 c 1
 352 299 314.310344828 338.185840708 200 382 c 1xb0
234 635 m 3
 232.662008974 635 95 594.996728225 95 514 c 3x28
 95 458.49137931 128 425 200 397 c 1
 263 432 338 474 338 514 c 3
 338 608.005318998 238.33251589 635 234 635 c 3
638 474 m 1
 577.444444444 474 571.072341789 478.329021383 558 440 c 0
 520.610449315 330.371219569 482.661157025 243.111553785 425 151 c 1
 462.2890625 61.3687943262 507.928571429 9 554 9 c 3
 597.705882353 9 635 55 659 118 c 1
 672 112 l 1
 645.408450704 43 603.647887324 -5 554 -5 c 3x68
 496.826771654 -5 450 57 417 136 c 1
 391.352941176 98.9606299213 324.029411765 -11 199 -11 c 3
 80 -11 17 85 17 172 c 0xb0
 17 279.446601942 86.5394736842 343.237864078 183 389 c 1
 125.363636364 410.765625 81 452.984375 81 506 c 3
 81 593 169 624 231 653 c 1
 316 623 357 575 351 498 c 1
 335.117647059 463.108695652 294 432 216 391 c 1
 325.827027027 346.32 366 298 419 167 c 1
 467.969072165 246.651821862 515 352 544 444 c 0
 559.211070942 492.255811265 553.152542373 475 484 501 c 1
 488 514 l 1
 530 498 588 487 638 488 c 1
 638 474 l 1
EndSplineSet
Substitution2: "pcap-1" ampersand.pcap
Substitution2: "smcp-1" ampersand.smcp
Position2: "cpsp-1" dx=0 dy=0 dh=50 dv=100
EndChar
StartChar: quotesingle
Encoding: 39 39 79
Width: 201
VWidth: 1159
Flags: HW
HStem: 445.7 254<91 107>
VStem: 57 84<560.903 699.7> 91 16<445.7 531.412>
LayerCount: 2
Fore
SplineSet
92 699.700195312 m 1xc0
 106 699.700195312 l 1xc0
 106 630.734195312 106 557.034226071 106 445.700195312 c 1
 92 445.700195312 l 1xa0
 92 556.91122607 92 630.890195312 92 699.700195312 c 1xc0
EndSplineSet
Position2: "Extra space for context kern-1" dx=35 dy=0 dh=70 dv=0 [ddx={} ddy={} ddh={} ddv={}]
Position2: "cpsp-1" dx=0 dy=0 dh=7 dv=14
EndChar
StartChar: parenleft
Encoding: 40 40 59
Width: 380
Flags: HW
VStem: 37 42<50.0709 372.703>
LayerCount: 2
Back
SplineSet
339.109701553 -285.026068482 m 1
 332.216634813 -297.211536504 l 1
 142.390574019 -189.830867688 37 -17.2596544128 37 212 c 0
 37 440.840933656 146.818441401 622.870914601 331.105922004 720.917946213 c 1
 337.681641964 708.558338331 l 1
 157.985897888 612.954262338 51 436.136754036 51 212 c 0
 51 -12.5304403406 153.28703685 -179.910037871 339.109701553 -285.026068482 c 1
EndSplineSet
Fore
SplineSet
337 724 m 1
 344 712 l 1
 158.007407407 616.126456996 51 434.448979592 51 212 c 3
 51 -10.5609756098 152.288888889 -182.227642276 345 -288 c 1
 339 -301 l 1
 145 -194 37 -20 37 212 c 3
 37 443 149 627 337 724 c 1
EndSplineSet
Position2: "cpsp-1" dx=0 dy=0 dh=50 dv=100
Position2: "'case' vertical ajustments for all-caps-1" dx=0 dy=125 dh=0 dv=0
EndChar
StartChar: asterisk
Encoding: 42 42 209
Width: 362
Flags: HW
HStem: 403.953 21G<240.417 271.479>
VStem: 136 75<624.196 692.944>
LayerCount: 2
Fore
SplineSet
186.305664062 531.293945312 m 1
 112.291015625 403.307617188 l 1
 108.298828125 405.723632812 104.305664062 408.138671875 100.3125 410.5546875 c 1
 177.327148438 536.541992188 l 1
 34.228515625 567.5703125 l 1
 35.2919921875 572.114257812 36.35546875 576.658203125 37.4189453125 581.202148438 c 1
 180.518554688 546.172851562 l 1
 166.328125 692.572265625 l 1
 170.978515625 692.96484375 175.62890625 693.357421875 180.279296875 693.75 c 1
 190.46875 546.350585938 l 1
 326.034179688 605.565429688 l 1
 327.84375 601.263671875 329.654296875 596.962890625 331.46484375 592.662109375 c 1
 193.899414062 537.446289062 l 1
 292.63671875 426.790039062 l 1
 289.10546875 423.739257812 285.57421875 420.688476562 282.04296875 417.63671875 c 1
 186.305664062 531.293945312 l 1
EndSplineSet
EndChar
StartChar: comma
Encoding: 44 44 46
Width: 201
VWidth: 1159
Flags: HW
LayerCount: 2
Fore
SplineSet
42.7998 -115.7 m 1
 35.599609375 -103.950195312 l 1
 68.820297706 -82.1551134684 112.828487564 -31.0579470787 97 0 c 0
 93.2263851153 7.33318713322 85.1809918907 12.3633657324 77 16 c 0
 74 17.3335672433 71 20 71 24 c 3
 71 28.8001684211 72.7849322323 30.9559018208 76 32 c 0
 83.8751480276 34.5574663774 89.4219052231 40.3802750077 94 49 c 0
 95.1452029981 51.1562102545 97.1817572869 54 101 54 c 3
 104.65625 54 106.628002253 51.1613448382 107.703125 48.8701171875 c 0
 111.728419456 40.2916865032 118.261420978 35.6718267013 126 32 c 0
 128.856856758 30.6444691078 132 28.8001684211 132 24 c 3
 132 19.1709097988 122.412414152 -63.3868611439 42.7998 -115.7 c 1
EndSplineSet
Position2: "Extra space for context kern-1" dx=78 dy=0 dh=156 dv=0
Position2: "cpsp-1" dx=0 dy=0 dh=7 dv=14
EndChar
StartChar: period
Encoding: 46 46 656
Width: 201
Flags: HW
HStem: -17.5 133<83.8157 116.483>
VStem: 34.5254 133.95<30.4466 64.8792>
LayerCount: 2
Fore
SplineSet
126.762695312 16.8251953125 m 0
 116.788085938 11.6005859375 113.237304688 9.9501953125 108.012695312 -0.0244140625 c 0
 107.0625 -2.3994140625 103.795898438 -5.25 100.9453125 -5.25 c 3
 98.0947265625 -5.25 94.5126953125 -2.3994140625 93.5625 -0.0244140625 c 0
 88.3369140625 9.9501953125 85.7373046875 11.6005859375 75.7626953125 16.8251953125 c 0
 73.3876953125 17.7744140625 71.0126953125 21.517578125 71.0126953125 24.3681640625 c 3
 71.0126953125 27.2177734375 73.3876953125 30.7998046875 75.7626953125 31.75 c 0
 85.7373046875 36.974609375 88.3369140625 38.5751953125 93.5625 48.5498046875 c 0
 94.5126953125 50.9248046875 98.0947265625 54.25 100.9453125 54.25 c 3
 103.795898438 54.25 107.0625 50.9248046875 108.012695312 48.5498046875 c 0
 113.237304688 38.5751953125 116.788085938 36.974609375 126.762695312 31.75 c 0
 129.137695312 30.7998046875 131.987304688 27.2177734375 131.987304688 24.3681640625 c 3
 131.987304688 21.517578125 129.137695312 17.7744140625 126.762695312 16.8251953125 c 0
EndSplineSet
Position2: "Extra space for context kern-1" dx=78 dy=0 dh=156 dv=0
Position2: "cpsp-1" dx=0 dy=0 dh=7 dv=14
EndChar
StartChar: zero
Encoding: 48 48 63
Width: 474
VWidth: 1159
Flags: HW
LayerCount: 2
Fore
SplineSet
248.937 378.9 m 3
 145.80577829 378.9 49.1602 292.40241674 49.1602 190.9 c 3
 49.1602 88.7004729347 123.479820579 8.11035 228.741 8.11035 c 3
 340.494058878 8.11035 425 94.4732595907 425 197.9 c 3
 425 303.114404665 350.300307101 378.9 248.937 378.9 c 3
248.937 392.9 m 3
 358.076 392.9 439 310.324 439 197.9 c 3
 439 86.5713 347.961 -5.88965 228.741 -5.88965 c 3
 115.521 -5.88965 35.1602 81.5713 35.1602 190.9 c 3
 35.1602 301.262 138.776 392.9 248.937 392.9 c 3
EndSplineSet
Substitution2: "'zero' Slashed Zero lookup 22-1" zero.alt
Substitution2: "dnom-1" zero.denom
Substitution2: "numr-1" zero.numerator
Substitution2: "lnum-1" zero.proportionallining
Substitution2: "tnum-1" zero.tabulartext
EndChar
StartChar: one
Encoding: 49 49 612
Width: 299
Flags: HW
LayerCount: 2
Fore
SplineSet
55.5 392 m 1
 73.5807279825 391.227550817 93.6952235028 390.110001519 114.913097683 390.110001519 c 0
 154.130871964 390.110001519 197.118172095 393.927939203 238 410.799804688 c 13
 242 396.799804688 l 1
 176 374 161 382 160 376 c 0
 158.510742188 367.067382812 157.5 253.848632812 157.5 200 c 3
 157.5 144.454101562 156 40.1982421875 156 30 c 0
 156 19 161 30 253 11.7998046875 c 1
 252.5 -2 l 1
 205.481168703 6.76362318037 171.188463451 10.7277261677 140.49196764 10.7277261677 c 0
 108.840777022 10.7277261677 81.0129665245 6.51321285678 47 -1 c 9
 46 12.7998046875 l 1
 105 27 137.841796875 22.255859375 141 29 c 0
 142.545898438 32.3017578125 143.5 152 143.5 210 c 3
 143.5 292.809570312 146.55078125 363.243164062 142 372.799804688 c 0
 140 377 122 374.799804688 54.5 378 c 9
 55.5 392 l 1
EndSplineSet
Substitution2: "dnom-1" one.denom
Substitution2: "numr-1" one.numerator
Substitution2: "tnum-1" one.tabulartext
Substitution2: "lnum-1" one.proportionallining
EndChar
StartChar: two
Encoding: 50 50 65
Width: 400
Flags: HW
LayerCount: 2
Back
SplineSet
73.4690790423 342.23651048 m 1
 67.7014741911 346.20321368 l 1
 95.8451177237 387.124201908 147.472720124 417.5 200 417.5 c 0
 275.974987676 417.5 328 383.451118189 328 313.5 c 0
 328 240.923392301 249.630745956 154.533750843 55.0585785363 12.5059803182 c 1
 94.5538403107 14.1438358478 177.003878786 14.5 342 14.5 c 1
 342 7.5 l 1
 342 0.5 l 1
 120.586406706 0.5 45.3564290818 -0.529685206512 32.0681710203 -3.42980538181 c 2
 -0.912080273916 -10.6276406226 l 1
 26.4862070631 9.09074418121 l 2
 238.356444233 161.572496548 314 248.626937275 314 313.5 c 0
 314 373.71191414 272.064700507 403.5 200 403.5 c 0
 152.741184105 403.5 104.867742253 375.537485013 79.2366838935 338.269807279 c 1
 73.4690790423 342.23651048 l 1
338.039456673 -11.4404610594 m 1
 331.568573787 -8.77069053064 l 1
 348.47504144 32.2065286787 384.583546478 92.4088797592 395.998160869 110.812033574 c 1
 401.94680516 107.122368128 l 1
 407.89544945 103.432702682 l 1
 396.74305126 85.4523055989 360.686390495 25.0966328353 344.510339559 -14.1102315881 c 1
 338.039456673 -11.4404610594 l 1
EndSplineSet
Fore
SplineSet
54 340.5 m 5
 80.6142578125 383.813476562 134.978515625 417.5 190 417.5 c 7
 266 417.5 318 383.5 318 313.5 c 7
 318 233.986328125 220 140 44 12 c 5
 149 15.5 262 14.5 327 15 c 5
 337.98828125 14.8720703125 333 26 390 117.5 c 5
 402 109.5 l 5
 402 109.5 350 27.5 332 -20.5 c 5
 306 -18 338.052734375 0.5 311 0.5 c 7
 56.982421875 0.5 32 -0.6484375 16 -5 c 5
 13 6 l 5
 74 55 304 205.982421875 304 312.5 c 7
 304 392.056640625 234 404 190 404 c 7
 137 404 88 370 66 332.5 c 5
 54 340.5 l 5
EndSplineSet
Substitution2: "dnom-1" two.denom
Substitution2: "numr-1" two.numerator
Substitution2: "tnum-1" two.tabulartext
Substitution2: "lnum-1" two.proportionallining
EndChar
StartChar: three
Encoding: 51 51 783
Width: 319
Flags: HW
LayerCount: 2
Fore
SplineSet
43 -209.799804688 m 1
 167 -175.799804688 274 -96 274 4 c 3
 274 96 210 138 149 159 c 1
 141 152 86 121.200195312 62 115 c 1
 57 127 l 1
 108 143 262 238 262 311 c 3
 262 357.041992188 230.087890625 404 179 404 c 3
 141 404 77 374 64 350.200195312 c 1
 54 360.200195312 l 1
 77 394.200195312 146 418.200195312 179 418.200195312 c 3
 238 418.200195312 276 364.200195312 276 311.200195312 c 3
 276 264.189453125 235 222.200195312 163 169 c 1
 230 146.200195312 288 91.525390625 288 4 c 3
 288 -144 89 -216.799804688 45 -223.799804688 c 1
 43 -209.799804688 l 1
EndSplineSet
Substitution2: "dnom-1" three.denom
Substitution2: "numr-1" three.numerator
Substitution2: "tnum-1" three.tabulartext
Substitution2: "lnum-1" three.proportionallining
EndChar
StartChar: four
Encoding: 52 52 375
Width: 469
Flags: HW
LayerCount: 2
Fore
SplineSet
305 20 m 1
 305 103.5 306.81640625 294.555664062 307 351 c 1
 307 351 228 245 30 14 c 1
 110.213867188 19.6474609375 206.352539062 20.22265625 305 20 c 1
348 413.5 m 1
 341.9296875 397.120117188 321.151367188 377.145507812 321 360 c 0
 320 246.5 319.509765625 149.700195312 319 21 c 1
 450 19.5 418 -1 460 97.5 c 1
 460 97.5 467.3203125 93.83984375 472 91.5 c 9
 472 91.5 448.549804688 34.974609375 431 -5 c 1
 411.038085938 8.591796875 346.772460938 7.060546875 319 7 c 1
 318.793945312 -175.654296875 319.56640625 -173.471679688 324 -188.5 c 1
 289 -211 273 -225 259 -250.5 c 9
 259 -250.5 251.509765625 -247.349609375 248 -241.5 c 1
 308 -145 305 -267 305 6 c 1
 121 6 35 4 7 -4 c 9
 7 -4 5.0703125 -1.2900390625 0 3 c 1
 15 19 315.8671875 367 337 421.5 c 9
 348 413.5 l 1
EndSplineSet
Substitution2: "dnom-1" four.denom
Substitution2: "numr-1" four.numerator
Substitution2: "tnum-1" four.tabulartext
Substitution2: "lnum-1" four.proportionallining
EndChar
StartChar: five
Encoding: 53 53 68
Width: 355
Flags: HW
LayerCount: 2
Back
SplineSet
137.908856395 204.880217156 m 1
 137.359045088 211.858591431 l 1
 145.5 212.5 l 2
 150.730637734 212.912110852 156.117770756 213.125902809 161.62103677 213.132350943 c 0
 242.916079104 213.227603712 349.5 168.065393242 349.5 48.5 c 0
 349.5 -77.5563210762 232.310452664 -176.088432326 134.218405871 -205.848722847 c 1
 132.186138394 -199.150223843 l 1
 130.153870918 -192.451724839 l 1
 224.507551092 -163.825622872 335.5 -68.5841781518 335.5 48.5 c 0
 335.5 157.070623816 239.364152768 199.223432338 161.63744045 199.132360553 c 0
 156.486267596 199.126324964 151.457703987 198.926009376 146.599622613 198.543251449 c 2
 138.458667701 197.90184288 l 1
 137.908856395 204.880217156 l 1
124.864951573 159.666745716 m 1
 117.954310871 160.781665035 l 1
 127.0590162 217.215656442 137.571192746 306.897897962 141.218219645 387.002372545 c 2
 141.514367829 393.507066725 l 1
 148.023463468 393.681491735 l 2
 216.317423466 395.511573108 300.124538211 396.020086808 315.5 398.5 c 0
 340.685501543 402.562177668 349.162723822 418.04594812 367.96134477 437.926090236 c 1
 373.047507308 433.116625541 l 1
 378.133669845 428.307160847 l 1
 361.372685765 410.581884806 348.995197106 389.721518336 317.729254144 384.67862431 c 0
 299.132877973 381.679208799 224.000837498 381.579880989 154.893831363 379.855219066 c 1
 150.921964326 300.949414748 140.724404532 214.0195407 131.775592275 158.551826398 c 1
 124.864951573 159.666745716 l 1
130.153870912 -192.451724841 m 1
 118.512472416 -195.983625885 107.18546658 -198.480972392 96.4543632979 -199.878323703 c 1
 98.0428118733 -213.786167209 l 1
 110.063839149 -212.604892999 122.263832281 -209.872919966 134.417726074 -205.784982047 c 1
 130.153870912 -192.451724841 l 1
EndSplineSet
Fore
SplineSet
84 394 m 5
 152 396 242 396 258 398 c 4
 284 402 292 420 312 440 c 13
 312 440 319 436 324 434 c 5
 297 395 273 384 247 383 c 4
 216 382 160 381 98 380 c 5
 98 380 90 259 82 212 c 5
 168 222 292 176 292 48 c 7
 292 -96 137 -206 32 -215 c 13
 32 -215 32 -206 30 -200 c 5
 120 -197 278 -89 278 48 c 7
 278 144 194 212 66 197 c 5
 72 247 80 306 84 394 c 5
EndSplineSet
Substitution2: "dnom-1" five.denom
Substitution2: "numr-1" five.numerator
Substitution2: "tnum-1" five.tabulartext
Substitution2: "lnum-1" five.proportionallining
EndChar
StartChar: six
Encoding: 54 54 744
Width: 446
Flags: HW
LayerCount: 2
Fore
SplineSet
341 630 m 1
 341 630 345.26953125 622.0703125 348 617 c 1
 173.731445312 562.833007812 57 402.427734375 57 214 c 3
 57 115.069335938 123.926757812 4 229 4 c 3
 312.344726562 4 397 88.4052734375 397 178 c 3
 397 261.849609375 334.099609375 350 263 350 c 3
 217.903320312 350 176.94140625 323.89453125 151 288 c 1
 141 296 l 1
 147 314 195.845703125 364 263 364 c 3
 338 364 411 276.702148438 411 178 c 3
 411 75.951171875 317.0234375 -10 229 -10 c 3
 103.85546875 -10 43 121.913085938 43 214 c 3
 43 413.572265625 167 572 341 630 c 1
EndSplineSet
Substitution2: "dnom-1" six.denom
Substitution2: "numr-1" six.numerator
Substitution2: "tnum-1" six.tabulartext
Substitution2: "lnum-1" six.proportionallining
EndChar
StartChar: seven
Encoding: 55 55 70
Width: 452
Flags: HW
LayerCount: 2
Back
SplineSet
53.3836910773 304.180920843 m 1
 46.7869863918 306.522605555 l 1
 56.0973623681 332.750645777 75.9601928323 391.00191186 81.9329698239 416.076307111 c 2
 83.1079472477 421.008995604 l 1
 88.1611307648 421.43009423 l 1
 91.0679983098 421.672333192 l 1
 94.8664134253 421.988867785 l 1
 97.1934030999 418.970048382 l 2
 107.114371752 406.099508818 114.93166726 406.503823911 128 406 c 0
 248.64340539 401.347096631 421.863686231 403.816658093 453.291633585 407.251979124 c 2
 457.995517878 407.766150555 l 1
 460.225889753 403.592861565 l 2
 462.117178535 400.054037057 462.592848491 399.268080512 463.117705875 398.359430638 c 2
 465.693264463 393.900541311 l 1
 462.20349373 390.114158301 l 2
 412.783241343 336.493442701 184.176779802 -98.1595546103 153.104341103 -165.518090922 c 1
 146.748046875 -162.5859375 l 1
 140.391752647 -159.653784078 l 1
 171.256271162 -92.7459751601 384.036555631 313.56852026 446.017154422 392.602550548 c 1
 398.443068733 389.48649298 240.747745186 387.641203529 127.460457417 392.010400513 c 0
 116.998589871 392.413737276 105.691549951 391.967343985 92.9809494521 402.932651266 c 1
 85.3624286168 375.404243393 68.2809658016 325.222575901 59.9803957627 301.83923613 c 1
 53.3836910773 304.180920843 l 1
46.8651971567 306.732241483 m 2
 45.9798608162 304.470252353 45.1343161392 302.110548965 44.3286949698 299.648250425 c 2
 57.5639121169 295.089533509 l 2
 58.2581312044 297.007904104 59.070469852 299.275906265 59.980395497 301.839235382 c 2
 46.8651971567 306.732241483 l 2
EndSplineSet
Fore
SplineSet
81 422 m 1
 82 406 76.9736328125 407.424804688 114 406 c 0
 242.513671875 401.053710938 430 404 444 408 c 1
 444 408 448.879882812 397.900390625 452 394 c 1
 416 364 171 -91 137 -170 c 1
 137 -170 127.1796875 -167.219726562 122 -168 c 1
 205 0 360 293 426 384 c 0
 430.71484375 390.500976562 429.022460938 392.34375 421 392 c 0
 281 386 189.012695312 390.577148438 106 392 c 0
 70.669921875 392.60546875 78 399 42 288 c 1
 42 288 33.240234375 290.440429688 27 292 c 1
 27 292 63 390 69 421 c 1
 81 422 l 1
EndSplineSet
Substitution2: "dnom-1" seven.denom
Substitution2: "numr-1" seven.numerator
Substitution2: "tnum-1" seven.tabulartext
Substitution2: "lnum-1" seven.proportionallining
EndChar
StartChar: eight
Encoding: 56 56 318
Width: 432
UnlinkRmOvrlpSave: 1
Flags: HW
LayerCount: 2
Fore
SplineSet
214 617 m 3
 148.890625 617 89 570.55859375 89 505 c 3
 89 374.076171875 392 341.288085938 392 155 c 3
 392 61.1337890625 307.866210938 -7 214 -7 c 3
 127.5078125 -7 42 46.5078125 42 133 c 3
 42 339.388671875 343 360.276367188 343 497 c 3
 343 571.01953125 299.842773438 617 214 617 c 3
214 631 m 3
 304.7421875 631 357 580.138671875 357 497 c 3
 357 348.33984375 56 330.112304688 56 133 c 3
 56 59.4912109375 129.096679688 7 214 7 c 3
 301.004882812 7 378 69.9765625 378 155 c 3
 378 238.840820312 320.294921875 282.87109375 225 344 c 0
 152.130859375 390.129882812 75 432.38671875 75 505 c 3
 75 582.9296875 146.384765625 631 214 631 c 3
EndSplineSet
Substitution2: "dnom-1" eight.denom
Substitution2: "numr-1" eight.numerator
Substitution2: "lnum-1" eight.proportionallining
Substitution2: "tnum-1" eight.tabulartext
EndChar
StartChar: greater
Encoding: 62 62 415
Width: 463
Flags: HW
HStem: -7 21G<72 113.429> 392 20G<91.641 135.282>
LayerCount: 2
Fore
SplineSet
99 400 m 1
 106 412 l 1
 412 203 l 1
 82 -7 l 1
 74 5 l 1
 387 203 l 1
 99 400 l 1
EndSplineSet
Position2: "'case' vertical ajustments for all-caps-1" dx=0 dy=90 dh=0 dv=0
EndChar
StartChar: question
Encoding: 63 63 678
Width: 393
Flags: HW
HStem: -17.5 133<112.816 145.483>
VStem: 63.5254 133.95<30.4466 64.8792> 303 33<375.873 497.304>
LayerCount: 2
Fore
SplineSet
52 654 m 1
 51.9092082342 655.583874969 51.873046875 656.946976418 51.873046875 658.122070312 c 3
 51.873046875 680.169484318 39.4462890625 706.363510788 39.4462890625 712.575195312 c 3
 39.4462890625 717.765725837 42.0247265789 718.634976564 51 722 c 1
 69.8823529412 664 61.8823529412 669 109 669 c 3
 226.251953125 669 336 559.415458937 336 457 c 3
 336 335.393258427 199 301.37593985 148 299 c 0
 129.366719245 298.269283108 132.147058824 214.989010989 136 160 c 1
 122 160 l 1
 120.273484707 188.357894769 119.188476562 212.723123216 119.188476562 233.138671875 c 3
 119.188476562 285.435574438 126.31386255 311.705378971 148 313 c 0
 221.007778235 318.274094626 322 362.794392524 322 457 c 3
 322 544.185049199 225.307589674 654.615234375 108.791992188 654.615234375 c 3
 90.6678060973 654.615234375 71.7223520913 654.415101087 52 654 c 1
EndSplineSet
Refer: 656 46 N 1 0 0 1 29 0 2
Position2: "cpsp-1" dx=0 dy=0 dh=50 dv=100
Substitution2: "smcp-1" question.smcp
Substitution2: "pcap-1" question.pcap
EndChar
StartChar: at
Encoding: 64 64 210
Width: 802
Flags: HW
HStem: -184 44<296.563 519.568> 1.09961 43.7002<458.768 562.23> 6.5 50.5<278.488 363.509> 378.9 20G<549.455 590.859> 528 33<329.811 539.453>
VStem: 37 69<48.4325 283.455> 222.851 64.098<75.2219 195.446> 716 44<194.717 389.017>
LayerCount: 2
Fore
SplineSet
548.049804688 353.833007812 m 1
 547.169412364 354.416503906 544.792353091 355 544 355 c 3
 541.646939988 355 415 337 367 310 c 0
 302.783960334 273.878477688 237 190.764814532 237 104 c 3
 237 60.1187427096 261.611446997 21 302 21 c 3xbf
 348.861386139 21 431.544554456 70.4152147007 484 118 c 1
 493.176470588 173.806300578 504.132706719 225.398120157 522 279 c 0
 534 315 549 347.896120457 549 351 c 3
 549 352.328022736 548.725044749 353.330928616 548.049804688 353.833007812 c 1
557.754882812 334 m 1xbf
 532.554882812 277.607317073 514.986884546 210.898351562 503.754882812 150.5 c 0
 496.426868012 111.094734168 491.384765625 64.3242191335 491.384765625 47.33984375 c 3
 491.384765625 28.7950129474 496.070424107 21 504 21 c 3
 527.082915162 21 595 55 614.5 70.5 c 0
 687.016391477 128.141234251 746 205.171215881 746 288 c 3
 746 437.46024569 607.693434322 547 442 547 c 3
 227.250674051 547 51 373.510833333 51 157 c 3
 51 -39.3052283737 219.500858086 -170 397 -170 c 3
 526.108383607 -170 635.792462295 -101.084004132 714 -13 c 1
 718.29 -16.51 720.71 -18.49 725 -22 c 1
 654.297297297 -105.076923077 533.194369369 -184 398 -184 c 3
 215.848 -184 37 -52.6006 37 157 c 3
 37 379.824 218.625 561 442 561 c 3
 602.303 561 760 456.039 760 288 c 3
 760 183.984026966 672.246879265 97.6745911106 629.5 64.5 c 0
 599.175849525 40.9663219846 536.994202396 7.099609375 502.35546875 7.099609375 c 3xdf
 493.738436894 7.099609375 467 7 481 97 c 1
 423.65879085 47.8478118305 347.593921569 6.5 301.955 6.5 c 3
 255.02 6.5 222.851 50.7988 222.851 103.97 c 3
 222.851 201.658 300.081845446 291.225833642 360.455 322.4 c 0
 407.419419344 346.650457548 462.173785632 354.849832687 543 370 c 0
 555.674123897 372.375653729 568.913238932 387.618899291 573.700195312 397.099609375 c 1
 589.254882812 397.900390625 l 1
 578.462882812 376.317258687 568.357882812 355.20712964 557.754882812 334 c 1xbf
EndSplineSet
Position2: "'case' vertical ajustments for all-caps-1" dx=0 dy=160 dh=0 dv=0
Position2: "cpsp-1" dx=0 dy=0 dh=50 dv=100
EndChar
StartChar: A
Encoding: 65 65 26
Width: 719
VWidth: 1159
Flags: HMW
HStem: -7 18<26 39.5502 196.436 229.667 480.333 517.463 672.953 697> 247 38<229 455>
AnchorPoint: "Top" 371 699 basechar 0
AnchorPoint: "Ogonek" 533 19 basechar 0
LayerCount: 2
Back
SplineSet
370.425721963 678.536190599 m 2
 370.118806058 679.487927236 369.974443082 679.931837289 369.666209866 680.883148114 c 1
 369.252105636 679.80358923 367.923321169 676.32276017 367.086095463 674.020128172 c 1
 300.870166927 507.476946328 176.276662726 165.285931263 127.598489988 63.8951511234 c 0
 114.683692877 36.9932992613 108.693353105 23.1324738438 96.5228006645 13.0697956506 c 1
 140.227492222 12.5764161424 187.383925209 9.06035438288 223.864924732 4.73795012145 c 1
 222.217674827 -9.16480384144 l 1
 183.524235375 -4.58026148336 133.127003739 -0.87970446014 86.9193348728 -0.87970446014 c 0
 67.3855859978 -0.87970446014 47.4673790175 -1.71578893079 32.6330232453 -3.23636142004 c 1
 30.9009349442 10.6531188137 l 1
 94.1352409185 19.9481065871 86.967889826 11.6093468088 114.977681887 69.9544582516 c 0
 162.824899774 169.614459362 287.905223698 512.761334922 353.999842037 678.999403078 c 1
 357.14070995 687.637770136 360.584036477 695.669525475 363.163934894 704.368307828 c 0
 367.483497133 718.932808328 l 1
 376.857491512 704.47573249 l 1
 377.145104921 703.498104849 l 0
 379.485554025 695.542676953 380.885205687 691.764473969 384.166254108 681.539099406 c 0
 455.7054639 458.587432041 577.188952524 125.356070006 611.605956989 48.6054013788 c 0
 628.732304341 10.4132742339 619.893688725 16.0321242191 691.328994086 10.1836888735 c 1
 690.535556296 -3.78924435078 l 1
 662.420727807 -2.89647166425 629.795525067 -2.11438191684 595.68965859 -2.11438191684 c 0
 557.358499918 -2.11438191684 517.150676878 -3.28381613104 487.523341464 -6.28798596377 c 1
 486.111003332 7.64059260696 l 1
 516.589038826 10.7310222225 557.056543049 11.8856180832 595.68965859 11.8856180832 c 0
 602.585448029 11.8856180832 609.291006798 11.8547011951 616.119980336 11.7962264594 c 1
 609.799220936 18.1498054132 605.319453053 28.408839972 598.831543011 42.8770204962 c 0
 563.080666263 122.602253331 448.715577471 454.150902583 370.780805723 677.39005996 c 1
 383.946195338 682.149140976 l 1
 384.296463246 681.212491419 383.956996239 682.173793199 384.276150205 681.226090321 c 0
 384.595304172 680.278387443 370.425721963 678.536190599 370.425721963 678.536190599 c 2
526.222245157 266.996471045 m 1
 525.777754843 253.003528955 l 1
 448.91362708 255.445142737 270.531678588 257.75044366 198.683031316 261.00718005 c 1
 199.316968684 274.99281995 l 1
 270.670278693 271.758536076 449.130102804 269.445327784 526.222245157 266.996471045 c 1
EndSplineSet
Fore
SplineSet
214 274 m 1
 263 273 466 269 515 267 c 1
 478 367 405 579 370 681 c 1
 344 617 273.733654154 430.874789131 214 274 c 1
481 -7 m 1
 479 7 l 1
 603 19 618.907437737 1.18512452644 606 27 c 0
 584 71 543 190 520 253 c 1
 460 255 258 259 208 260 c 1
 180 186 137.803361107 81.6067222144 114 34 c 0
 99 4 125 17 231 4 c 1
 229 -10 l 1
 191.327087904 -5.20526573325 135.825602049 -0.87970446014 86.9193348728 -0.87970446014 c 3
 64.4256346706 -0.87970446014 43.3270879041 -1.79473426675 26 -4 c 9
 24 10 l 1
 80 17 87.9271800175 16.5445548325 100 39 c 0
 150 132 286.951257956 511.11595938 354 679 c 0
 358.341162145 689.869880921 361 695 363 710 c 9
 376 708 l 1
 378 699 380.705682225 693.25414406 384 683 c 0
 455 462 581.797905817 106.404188367 620 30 c 0
 629 12 638 14 698 10 c 1
 697 -4 l 1
 668.715728753 -3.05719095842 632.431457505 -2.11438191684 595.68965859 -2.11438191684 c 3
 554.490332008 -2.11438191684 512.715728753 -3.29983164554 481 -7 c 1
EndSplineSet
Position2: "cpsp-1" dx=0 dy=0 dh=50 dv=100
Substitution2: "c2pc-1" a.pcap
Substitution2: "c2sc-1" a.smcp
EndChar
StartChar: B
Encoding: 66 66 27
Width: 574
Flags: HMW
HStem: -5 30<174.927 364.508> 363 21<187 291.543> 678 24<32.4444 86.375 206.52 302.893>
VStem: 114 73<41.2395 363 384 621.552> 395 88<461.318 607.313> 464 88<99.5601 269.208>
AnchorPoint: "Bottom" 286 -15 basechar 0
AnchorPoint: "Top" 278 682 basechar 0
LayerCount: 2
Back
SplineSet
30 15 m 1xf4
 68 16 104 27 108 87 c 0
 113 152 114 307 114 430 c 3
 114 499 113 559 112 586 c 0
 110 650 97 670 63 679 c 0
 56 681 42 684 31 685 c 1
 33 705 l 1
 59 701 112 695 145 695 c 3
 198 695 229 703 283 703 c 3
 379 703 483 643 483 536 c 3xf8
 483 462 428 401 326 385 c 1
 438 371 552 305 552 188 c 3
 552 38 413 -4 294 -4 c 3
 226 -4 197 0 149 0 c 3
 102 0 70 0 31 -5 c 1
 30 15 l 1xf4
274 391 m 0
 337 402 395 440 395 527 c 3
 395 612 336 679 240 679 c 3
 225 679 216 678 209 674 c 0
 202 669 196 661 194 647 c 0
 189 625 185 438 187 385 c 1
 213 385 242 386 274 391 c 0
325 355 m 0
 288 364 257 364 187 364 c 1
 186 248 186 135 187 85 c 0
 188 59 190 47 197 42 c 0
 214 30 239 26 276 26 c 3
 383 26 464 77 464 179 c 3xf4
 464 264 416 335 325 355 c 0
EndSplineSet
Fore
SplineSet
30 8 m 1xf4
 110 18 112.881141809 4.91783121873 113 26 c 0
 113.430583182 102.373595046 114 284.483965015 114 429 c 3
 114 525.865384615 114 610.089406415 114 648 c 0
 114 679.516485857 113.908560841 680.590793463 99 682 c 0
 86.196011168 683.210275422 56.5 687.333333333 31 690 c 1
 33 704 l 1
 59 700 112 694 145 694 c 3
 198 694 229 702 283 702 c 3
 379 702 483 642 483 535 c 3xf8
 483 461 428 400 326 384 c 1
 438 370 552 304 552 187 c 3
 552 37 413 -5 294 -5 c 3
 226 -5 197 -1 149 -1 c 3
 102 -1 70 -1 31 -6 c 1
 30 8 l 1xf4
274 390 m 0
 376.063474608 397.37223727 469 439.242647059 469 535 c 3
 469 620.559210526 398.2 688 283 688 c 3
 235.870967742 688 140 677 136 674 c 0
 131.242101419 670.431576065 128 663.761910991 128 649 c 0
 128 627 128 440 128 387 c 1
 171.632183908 387 263.828461176 389.265290566 274 390 c 0
348 366 m 0
 289.640878827 377.068109188 253.594202899 376 128 373 c 1
 127 228.727598566 127.74609375 89.7508568212 127 26 c 0
 126.907934972 18.1333955453 128.545692149 12.7183671492 138 13 c 0
 171.569620253 14 220.936708861 9 294 9 c 3
 432.872340426 9 538 62.3333333333 538 187 c 3xf4
 538 273.448863636 464 344 348 366 c 0
EndSplineSet
Position2: "cpsp-1" dx=0 dy=0 dh=50 dv=100
Substitution2: "c2pc-1" b.pcap
Substitution2: "c2sc-1" b.smcp
EndChar
StartChar: C
Encoding: 67 67 2382
Width: 666
Flags: HW
HStem: -12 26<345.649 498.05> 697 30<308.728 483.108>
VStem: 23 90<225.853 484.692> 600 20<550.9 621.644> 625 21<128.174 155>
AnchorPoint: "Bottom" 397 -15 basechar 0
AnchorPoint: "Top" 389 708 basechar 0
LayerCount: 2
Fore
SplineSet
23 344 m 3
 23 664 285 727 417 727 c 3
 510.503030303 727 560.78027378 699.674885925 620 675 c 0
 632 670 626 674 643 691 c 1
 649 686 l 1
 635 655 623.258631161 610.138098574 620 558 c 0
 619 542 611 552 607 555 c 1
 607.3125 622.009765625 628.894823417 653.552588292 616 660 c 0
 606 665 530 713 417 713 c 3
 245.264808362 713 37 622.002057604 37 344 c 3
 37 134.058823529 213.091796875 2 397 2 c 3
 634.008438668 2 611 103 632 157 c 1
 646 154 l 1
 637 115 619 67 608 21 c 1
 538 5 473 -12 397 -12 c 3
 190 -12 23 140 23 344 c 3
EndSplineSet
Position2: "cpsp-1" dx=0 dy=0 dh=50 dv=100
Substitution2: "c2pc-1" c.pcap
Substitution2: "c2sc-1" c.smcp
EndChar
StartChar: D
Encoding: 68 68 29
Width: 797
VWidth: 1159
Flags: HW
HStem: -6 23<31 93.0026 263.448 453.367> 692 21<39 81.9453 193.386 427.753>
VStem: 109 87<40.7566 309.036> 683 91<231.612 474.643>
AnchorPoint: "Bottom" 352 -15 basechar 0
AnchorPoint: "Top" 361 690 basechar 0
LayerCount: 2
Back
SplineSet
375 8 m 7
 550.011299074 8 760 114 760 353 c 7
 760 582.26443769 574.258358663 699 351 699 c 7
 245.514285714 699 189.650592908 692.706336098 143 692 c 4
 133.077045287 691.849756655 132.987582155 684.716622709 133 669 c 4
 133.061413286 591.27239095 131.517578125 385.116873892 131.517578125 228.477539062 c 7
 131.517578125 138.847534863 131.713313224 63.7301834064 132 30 c 4
 132.119371848 15.9552840525 136.780728973 13.9289948699 146 14 c 4
 235.888888889 14.6923076923 284.354166667 8 375 8 c 7
39 708 m 5
 57 706 81 706 134 706 c 7
 167 706 283 713 351 713 c 7
 579 713 774 592 774 353 c 7
 774 87 532 -6 376 -6 c 7
 286 -6 245 0 172 0 c 7
 130 0 65 -2 31 -4 c 5
 31 10 l 5
 118 17 117.956728042 4.55833955823 118 30 c 4
 118.04686476 57.5540406936 118.188205221 285.297560503 118.188205221 453.956004373 c 7
 118.188205221 549.613796947 119.314829435 634.051096965 120 677 c 4
 120.365590887 699.916523807 116 687.388888889 38 694 c 5
 39 708 l 5
EndSplineSet
Fore
SplineSet
375 8 m 3
 550.011299074 8 760 114 760 353 c 3
 760 582.26443769 574.258358663 699 351 699 c 3
 245.514285714 699 189.650592908 692.706336098 143 692 c 0
 133.077045287 691.849756655 132.987582155 684.716622709 133 669 c 0
 133.061413286 591.27239095 131.517578125 385.116873892 131.517578125 228.477539062 c 3
 131.517578125 138.847534863 131.713313224 63.7301834064 132 30 c 0
 132.119371848 15.9552840525 136.780728973 13.9289948699 146 14 c 0
 235.888888889 14.6923076923 284.354166667 8 375 8 c 3
39 708 m 1
 57 706 81 706 134 706 c 3
 167 706 283 713 351 713 c 3
 579 713 774 592 774 353 c 3
 774 87 532 -6 376 -6 c 3
 286 -6 245 0 172 0 c 3
 130 0 65 -2 31 -4 c 1
 31 10 l 1
 118 17 117.956728042 4.55833955823 118 30 c 0
 118.04686476 57.5540406936 118.188205221 285.297560503 118.188205221 453.956004373 c 3
 118.188205221 549.613796947 119.314829435 634.051096965 120 677 c 0
 120.365590887 699.916523807 116 687.388888889 38 694 c 1
 39 708 l 1
EndSplineSet
Position2: "cpsp-1" dx=0 dy=0 dh=50 dv=100
Substitution2: "c2pc-1" d.pcap
Substitution2: "c2sc-1" d.smcp
EndChar
StartChar: E
Encoding: 69 69 30
Width: 639
VWidth: 1159
Flags: HW
HStem: -9 19<29.8947 65.095> 346 28<193 384.216> 690 14<41 73.102>
VStem: 498 20<246 305.484 409.875 451.75> 535 19<563 639.12> 608 17<149.154 163.471>
AnchorPoint: "Bottom" 309 -15 basechar 0
AnchorPoint: "Top" 330 682 basechar 0
AnchorPoint: "Ogonek" 560 1 basechar 0
LayerCount: 2
Back
SplineSet
609.643434082 158.724835524 m 5
 623.007128979 154.552107556 l 5
 610.746426435 115.285639843 582.090733172 28.999933746 570.167373143 -0.811838318674 c 4
 568.196688499 -5.73910724828 l 5
 562.920295288 -5.17231649562 l 4
 536.69899211 -2.35562115634 425.332633545 0.0184778362423 309.508826681 0.0184778362423 c 4
 223.362279765 0.0184778362423 134.879974568 -1.3357343712 77.3705229574 -4.77218129098 c 4
 61.5252940878 -5.71900457684 48.0340376818 -6.82569163641 37.691674461 -8.08560222871 c 5
 35.9945066936 5.81145555513 l 5
 55.6691056043 8.21895631325 71.0590998292 10.059114607 82.9193856156 11.9344133786 c 4
 120.262759413 17.8389914193 120.084506279 20.4574612956 119.786658582 46.616930726 c 5
 120.768035058 133.368614869 121.189453125 254.716254608 121.189453125 376.1171875 c 4
 121.189453125 482.292574642 121.116344065 588.628769633 120.987449315 675.323301256 c 5
 120.789553718 682.442129315 128.185938019 685.243510674 76.7817702087 688.209411181 c 4
 68.6333369744 688.67955676 59.1216000774 689.104917712 48.040177141 689.508308036 c 5
 48.3455683413 703.503490749 l 5
 57.4302858043 703.437633762 67.4916476606 703.387253244 78.3610524625 703.348897277 c 4
 87.5142663726 703.316597406 97.240572091 703.29282262 107.43990113 703.275495442 c 4
 150.468785592 703.20239562 201.914188292 703.244071054 254.290528359 703.244071054 c 4
 388.743379573 703.244071054 531.081796035 704.319951991 562.92610408 707.746502922 c 4
 569.671167121 708.472293603 l 5
 571.163624158 701.89022908 l 4
 571.387332135 700.903627587 571.483572476 699.837984687 571.483572476 698.48575829 c 4
 571.483572476 687.11073896 563.774237312 656.893881084 554.670247347 568.622742319 c 5
 540.744118717 570.059036639 l 5
 548.382906563 644.123760415 555.058024353 678.748912821 556.986712721 693.186268952 c 5
 514.629068834 690.199329475 380.983989077 689.244071054 254.290528359 689.244071054 c 4
 211.619171878 689.244071054 169.230843521 689.216646376 131.679689988 689.246072112 c 5
 135.092071904 684.339197866 134.879740985 679.392409514 134.98716006 675.528261244 c 5
 135.116699504 588.400109066 135.189453125 482.418120883 135.189453125 376.1171875 c 4
 135.189453125 254.786675471 134.76583883 133.095287955 133.787560168 46.617444274 c 5
 133.955529553 31.8649716953 133.919689848 20.7157145055 123.916949447 11.3706898718 c 5
 177.715388855 13.2331359343 244.576243405 14.0184778362 309.508826681 14.0184778362 c 4
 419.378020722 14.0184778362 524.166561037 11.9814100177 559.063681582 9.23562553669 c 5
 571.358193488 41.3891557577 598.133683599 121.863387812 609.643434082 158.724835524 c 5
502.267753051 419.633615278 m 4
 502.811173764 428.85711689 503.481403423 437.551867975 504.294377114 445.5687054 c 5
 518.238594021 444.330964172 l 5
 517.722048155 437.545504965 517.054819871 427.926051069 516.186805509 417.837568923 c 4
 515.171847742 400.259939902 514.616136743 380.66515228 514.434071764 360.19559828 c 4
 514.388554111 355.078051571 514.366465497 349.907689875 514.366465497 344.703133529 c 4
 514.366465497 330.107056043 514.577849185 315.152244293 514.969723793 301.138623053 c 4
 515.879663123 286.078164699 516.576784151 269.487676868 517.380403904 252.968052059 c 5
 503.410823869 252.075021384 l 5
 502.315374022 265.893867621 501.49534711 282.631430342 500.981504218 300.527498896 c 4
 499.920002123 317.7559616 498.537434958 333.023190151 496.573577056 342.815453133 c 4
 495.576660417 347.786316801 494.491955879 351.128436113 493.434396684 353.068355677 c 5
 452.232100317 353.06561685 l 1028
439.634071556 367.062610298 m 4
 464.09116686 367.066102113 l 5
 476.010340886 367.067516356 484.56954442 367.068233717 493.221170054 367.068348305 c 5
 494.118363217 368.71322818 495.826795444 373.473003517 497.080100217 379.37691281 c 4
 499.344877672 390.045539429 500.99620548 404.834995037 502.19687134 418.565526891 c 1028
401.023775377 353.056849453 m 5
 130.719840987 353.005859428 l 5
 130.720727437 367.005859375 l 5
 400.872259715 367.055715274 l 4
 401.872259697 367.055907039 401.023775377 353.056849453 401.023775377 353.056849453 c 5
EndSplineSet
Fore
SplineSet
41 704 m 1
 90.1353814912 703.622035527 170.699334411 703.244071054 254.290528359 703.244071054 c 3
 391.860845392 703.244071054 537.630436812 704.267786838 565 708 c 1
 569.578958482 705.710520759 571.483572476 704.276831754 571.483572476 698.48575829 c 3
 571.483572476 686.570834021 563.421041518 656.210415185 554 562 c 1
 540 563 l 1
 549 660.444444444 562.500511907 694.810932518 549 693 c 0
 530.844827208 690.564700287 430.920673916 689.605937109 291.000008073 689.605937109 c 7
 246.005700964 689.605937109 196.876300593 689.258061884 145 689 c 0
 139.901043576 688.974634924 135 687.099019514 135 682 c 0
 135 617.243902439 135 439.43902439 135 367 c 1
 201.666666667 367 447.307501443 367 491 367 c 0
 499.587130774 367 503 424.847222222 505 452 c 1
 519 451 l 1
 515.86335345 425.906827602 514.366465497 385.23594854 514.366465497 344.703133529 c 3
 514.366465497 307.701905028 515.613872125 270.815729903 518 246 c 1
 504 245 l 1
 499.69047619 303.153846154 500.746799743 353 491 353 c 0
 374.589353612 353 233.813688213 353 135 353 c 1
 134 263.719178082 134 89.904192141 134 23 c 0
 134 16.9172374697 136.876909982 12.0113447981 141 12 c 0
 166.705752476 11.9292698991 252.858208019 14.115234375 350.762695312 14.115234375 c 3
 425.09952026 14.115234375 552.272011175 8.14940488506 557 16 c 0
 576.76119403 48.8125 592.104477612 101.9375 611 166 c 1
 625 161 l 1
 614 125 579 19 568 -6 c 1
 558.559693491 -2.8532311637 436.619913909 0.0184778362423 309.508826681 0.0184778362423 c 3
 194.254947482 0.0184778362423 74.74954451 -2.34246061804 31 -9 c 1
 29 5 l 1
 71.3835616438 10.9069767442 119.791117718 10.3571088875 120 33 c 0
 120.828026467 122.758274311 121.189453125 249.60820761 121.189453125 376.1171875 c 3
 121.189453125 481.891781653 122.226580637 590.606647808 121 674 c 0
 120.830922883 685.495296044 89.2352941176 688.518518519 41 690 c 1
 41 704 l 1
EndSplineSet
Position2: "cpsp-1" dx=0 dy=0 dh=50 dv=100
Substitution2: "c2pc-1" e.pcap
Substitution2: "c2sc-1" e.smcp
EndChar
StartChar: F
Encoding: 70 70 31
Width: 589
VWidth: 1159
Flags: HW
HStem: -4 22<38 81.6241> 351 29<200 392.516> 683 19<30 80.4241>
VStem: 477 25<258 325.072 385.783 445> 529 23<565 628.106>
AnchorPoint: "Bottom" 206 -15 basechar 0
AnchorPoint: "Top" 323 675 basechar 0
LayerCount: 2
Back
SplineSet
143.84765625 364.669921875 m 5
 144.012695312 371.66796875 l 5
 484.095703125 363.635742188 l 5
 483.930664062 356.637695312 l 5
 483.765625 349.639648438 l 5
 143.682617188 357.671875 l 5
 143.84765625 364.669921875 l 5
132.869140625 14.9091796875 m 5
 125.87109375 14.7353515625 l 5
 123.485794518 110.74235239 122.060546875 261.112876068 122.060546875 401.166015625 c 4
 122.060546875 510.753575172 124.637439983 613.692551685 119.06640625 678.841796875 c 5
 126.041015625 679.438476562 l 5
 133.015625 680.03515625 l 5
 138.70900867 613.452255984 136.060546875 510.605104874 136.060546875 401.166015625 c 4
 136.060546875 261.215590636 137.486745871 110.884121025 139.8671875 15.0830078125 c 5
 132.869140625 14.9091796875 l 5
34.9814453125 692.602539062 m 5
 35.0390625 699.602539062 l 5
 173.646429406 698.452990558 291.45182943 697.142578125 383.28515625 697.142578125 c 4
 465.909681165 697.142578125 524.951744272 700.25419424 549.350585938 708.334960938 c 6
 560.030273438 711.873046875 l 5
 558.485351562 700.729492188 l 6
 556.922337914 689.457055975 552.402463434 658.029975754 551.165039062 572.028320312 c 5
 544.166015625 572.12890625 l 5
 537.166992188 572.229492188 l 5
 538.143578175 640.108407406 541.096307368 673.839922685 543.255859375 692.197265625 c 5
 512.815494301 685.45315718 457.390286074 683.142578125 383.28515625 683.142578125 c 4
 291.323265006 683.142578125 173.511295799 684.453377644 34.923828125 685.602539062 c 5
 34.9814453125 692.602539062 l 5
496.745117188 440.704101562 m 5
 503.743164062 440.55078125 l 5
 503.388745263 424.372285675 503.173828125 392.217983095 503.173828125 357.744140625 c 4
 503.173828125 322.017101506 503.621261921 283.561146943 503.727539062 266.790039062 c 5
 496.727539062 266.74609375 l 5
 489.727539062 266.702148438 l 5
 489.621799418 283.396757677 489.173828125 321.916808845 489.173828125 357.744140625 c 4
 489.173828125 392.292530573 489.387120829 424.442151464 489.747070312 440.857421875 c 5
 496.745117188 440.704101562 l 5
310.149414062 -3.5712890625 m 5
 309.00390625 -10.4765625 l 5
 267.732834532 -3.63164711164 214.934135971 -1.0966796875 160.583007812 -1.0966796875 c 4
 122.552158211 -1.0966796875 82.8345452064 -3.01444453597 48.3447265625 -5.76953125 c 5
 47.787109375 1.2080078125 l 5
 47.2294921875 8.185546875 l 5
 82.0551804557 10.9677279787 122.084427316 12.9033203125 160.583007812 12.9033203125 c 4
 215.381568584 12.9033203125 268.721862562 10.3954000422 311.294921875 3.333984375 c 5
 310.149414062 -3.5712890625 l 5
EndSplineSet
Fore
SplineSet
316 -12 m 1
 277 -4 226 -1 173 -1 c 3
 128 -1 83 -3 42 -6 c 1
 40 8 l 1
 124.988235294 15 126 6.9750156055 126 27 c 0
 126 51 122 239.901185834 122 364 c 3
 122 475.090909091 124.698684201 634.237245901 119 676 c 0
 117.265461955 688.71154591 118.843373494 684.188679245 28 686 c 1
 28 700 l 1
 145 699 250 697 336 697 c 3
 468 697 536 702 555 710 c 1
 558 708 559 708 559 706 c 0
 559 700 551 677 551 564 c 1
 537 566 l 1
 537 637.675 544.323610431 686.020789989 540 688 c 0
 534.668663444 690.440514671 478.046565052 678.771937477 140 685 c 0
 135.000848364 685.092102782 132.520884712 681.98084012 133 676 c 0
 139 601.101449275 136 460.115942029 136 372 c 1
 324 367 474.359536444 364 486 364 c 0
 489 364 488.666666667 371.304347826 490 448 c 1
 504 447 l 1
 504 441 503 416 503 387 c 3
 503 350 504 276 504 260 c 1
 489 260 l 1
 490 330.540540541 486.952364929 349.793121165 478 350 c 0
 391.453061224 352 254.653061224 354.5 136 358 c 1
 136.8 208.818532819 138.677351473 89.0043304339 140 27 c 0
 140.603442372 -1.28872485126 143.977777778 26.6538461538 319 2 c 1
 316 -12 l 1
EndSplineSet
Position2: "cpsp-1" dx=0 dy=0 dh=50 dv=100
Substitution2: "c2pc-1" f.pcap
Substitution2: "c2sc-1" f.smcp
EndChar
StartChar: G
Encoding: 71 71 32
Width: 749
VWidth: 1159
Flags: HW
HStem: -10 30<346.593 535.084> 320 23<471 582.818> 328 21<699.83 724.333> 679 31<316.494 508.891>
VStem: 23 88<247.514 473.292> 604 79<60.1948 309.006> 647 20<537.25 556.91>
AnchorPoint: "Bottom" 407 -15 basechar 0
AnchorPoint: "Top" 420 689 basechar 0
LayerCount: 2
Back
SplineSet
477.682627655 335.548334001 m 1
 478.113351021 342.535069819 l 1
 560.817772369 337.436447562 652.164441696 342.019417216 716.638061253 348.359402264 c 1
 717.323099095 341.393002681 l 1
 718.008136937 334.426603097 l 1
 652.916365308 328.025832337 561.077032656 323.393885766 477.251904289 328.561598184 c 1
 477.682627655 335.548334001 l 1
675.000976562 327.143554688 m 1
 682.000726767 327.084418641 l 1
 681.000466533 208.686720987 680 95.0429798233 680 30.9150390625 c 1
 673 30.9150390625 l 1
 666 30.9150390625 l 1
 666 95.1683429308 667.00091771 208.799262524 668.001226358 327.202690734 c 1
 675.000976562 327.143554688 l 1
699.928650185 36.154022308 m 1
 701.00607707 29.2374370735 l 1
 607.757842276 14.7117496479 517.667081121 -10 427 -10 c 0
 207.003691319 -10 23 125.006555095 23 357 c 0
 23 575.998622261 225.999322863 710 431 710 c 0
 534.065638897 710 583.660498946 680.609184746 636.264628109 662.623553391 c 1
 634 656 l 1
 631.735371891 649.376446609 l 1
 577.108567345 668.053641428 531.393454775 696 431 696 c 0
 231.006066337 696 37 565.817845205 37 357 c 0
 37 134.128147529 212.560641467 4 427 4 c 0
 515.121779479 4 604.551119063 28.3810657904 698.8512233 43.0706075426 c 1
 699.928650185 36.154022308 l 1
634.970821642 695.762032298 m 1
 637.029422584 702.452485359 l 1
 644.914727653 700.026237645 l 1
 645.091115192 695.048481478 l 2
 646.198760128 663.790114389 654.875566695 587.247734102 665.193283935 545.754661173 c 1
 651.607019884 542.376284472 l 1
 641.220859137 584.144605439 633.111477948 654.021312416 631.271545543 690.479804311 c 0
 631.225053785 691.478722985 634.970821642 695.762032298 634.970821642 695.762032298 c 1
EndSplineSet
Fore
SplineSet
23 357 m 3xbc
 23 576 226 710 431 710 c 3
 527.085889571 710 587.825972289 680.337589107 622 668 c 0
 631.382462491 664.612720982 632.315789474 664.5 632 704 c 1
 645 700 l 1
 645 674 655 581 667 539 c 1
 653 534 l 1xba
 641 602 635.550727205 696 431 696 c 3
 237.935907969 696 37 572.083704636 37 357 c 3
 37 152.959600081 190.966807265 4 427 4 c 3
 507.04 4 593.845189438 24.9457187509 649 34 c 0
 664.180599776 36.4920658507 665.566626273 39.4516632624 666 51 c 0
 667 78.480259012 667 200.67483703 667 315 c 0
 667 328.951119287 665.180076939 329.398634937 653 329 c 0
 614.1125 327 543.2 325 470 329 c 1
 471 343 l 1xdc
 558 337 655 342 723 349 c 1
 726 335 l 1
 683.380952381 331.596491228 682.056469226 331.127499043 682 319 c 0
 681.489654241 209.396626205 680 104.143899824 680 45 c 0
 680 42 690.125 41.1428571429 707 39 c 1
 706 30 l 1
 613 16 519 -10 427 -10 c 3
 207 -10 23 125 23 357 c 3xbc
EndSplineSet
Position2: "cpsp-1" dx=0 dy=0 dh=50 dv=100
Substitution2: "c2pc-1" g.pcap
Substitution2: "c2sc-1" g.smcp
EndChar
StartChar: H
Encoding: 72 72 33
Width: 872
Flags: HW
HStem: -7 22<31 84.7222 609.238 655.154 797.033 843> 344 35<193 689> 688 20<34 89.4782 276.975 282 791.941 839> 695 18<606 642.508>
VStem: 109 85<393.875 627.104> 685 86<30.0585 342 380 676.577>
AnchorPoint: "Bottom" 442 -15 basechar 0
AnchorPoint: "Top" 438 665 basechar 0
LayerCount: 2
Back
SplineSet
34 706 m 5xec
 91 706 136 700 193 700 c 7
 219 700 248 701 282 705 c 5
 284 687 l 5
 248 683 204 677 202 656 c 4
 191 577 195 469 193 377 c 5
 689 378 l 5
 688 442 694 520 685 625 c 4
 681 675 653 683 603 690 c 5
 606 708 l 5
 659 703 699 700 736 700 c 7
 771 700 802 703 839 708 c 5xdc
 841 689 l 5
 802 685 773 674 772 628 c 4
 769 517 766 393 766 278 c 7
 766 201 767 130 771 75 c 4
 775 22 797 21 844 15 c 5
 843 -7 l 5
 808 -1 774 1 738 1 c 7
 696 1 654 -2 610 -10 c 5
 606 9 l 5
 660 18 683 28 685 80 c 4
 689 159 691 270 689 340 c 5
 192 342 l 5
 190 276 194 82 194 68 c 4
 194 29 230 16 277 10 c 5
 274 -11 l 5
 238 -3 203 0 165 0 c 7
 123 0 79 -4 31 -9 c 5
 28 10 l 5
 83 17 101 23 105 69 c 4
 113 170 115 289 115 394 c 7
 115 499 113 589 109 635 c 4
 105 679 88 685 34 686 c 5
 34 706 l 5xec
EndSplineSet
Fore
SplineSet
34 706 m 1xec
 73.3685065775 706 103.758230954 699.9140625 142.721679688 699.9140625 c 3
 168.975069353 699.9140625 197.894736896 701.210477941 232 705 c 1
 234 691 l 1
 137 680 128.999995288 693.160471935 129 679 c 0
 129 646.835978287 129 469.88172043 129 367 c 1
 752 368 l 1
 752 446.848 752 569.690322581 752 676 c 0
 752 692.017630124 746 680 653 695 c 1
 656 708 l 1
 698.550634552 702.880878984 730.950893704 700.120117188 760.561523438 700.120117188 c 3
 787.092134113 700.120117188 811.239346678 702.630441792 839 708 c 1xdc
 841 695 l 1
 770 681 765.999001169 691.341766165 766 676 c 0
 766.008216497 551.364326554 766.023856953 407.106508552 766.023856953 278.405968991 c 3
 766.023856953 182.503583649 766 69 766 26 c 0
 766 5.96399879678 771 23 844 5 c 1
 843 -7 l 1
 816.601132144 -1.46158854167 789.877355145 1.3076171875 762.678710938 1.3076171875 c 3
 729.217745047 1.3076171875 695.075209593 -2.46158854167 660 -10 c 1
 657 3 l 1
 742 22 752 6.99085697858 752 24 c 0
 752 123.503816794 752 265.832061069 752 354 c 1
 129 353 l 1
 129 273.847826087 129 38.7898550725 129 22 c 0
 129 6.29655172414 138 22.7 227 4 c 1
 224 -9 l 1
 196.287897211 -2.40461451414 168.575794422 0.15625 139.641601562 0.15625 c 3
 105.626391313 0.15625 70.0084836894 -3.72671309337 31 -9 c 1
 29 4 l 1
 108 18 114.977557756 7.81625444907 115 22 c 0
 115.182926829 137.611773759 115.25 273.541458253 115.25 393.875 c 3
 115.25 517.592802057 115.168181639 625.369999574 115 680 c 0
 114.962846365 692.152876144 106.32 686.328431373 34 693 c 1
 34 706 l 1xec
EndSplineSet
Position2: "cpsp-1" dx=0 dy=0 dh=50 dv=100
Substitution2: "c2pc-1" h.pcap
Substitution2: "c2sc-1" h.smcp
EndChar
StartChar: I
Encoding: 73 73 34
Width: 373
VWidth: 1159
Flags: HW
HStem: -4 19<31 106.272 256.5 339> 692 19<36 102.034 276.677 346>
VStem: 31 315
AnchorPoint: "Bottom" 194 -15 basechar 0
AnchorPoint: "Top" 195 687 basechar 0
AnchorPoint: "Ogonek" 269 5 basechar 0
LayerCount: 2
Back
SplineSet
36 711 m 5
 82 706 133 702 184 702 c 7
 241 702 297 705 346 710 c 5
 347 689 l 5
 293 688 249 691 240 622 c 4
 233 566 230 437 230 308 c 7
 230 224 232 140 234 80 c 4
 236 18 257 15 339 15 c 5
 339 -4 l 5
 294 -2 230 0 167 0 c 7
 117 0 68 -1 31 -5 c 5
 30 17 l 5
 101 19 144 17 149 90 c 4
 154 159 156 258 156 354 c 7
 156 465 153 569 148 617 c 4
 141 685 108 683 34 690 c 5
 36 711 l 5
EndSplineSet
Fore
SplineSet
36 709 m 1
 81.605861537 704.249489231 132.853811728 701.981445312 184.061523438 701.981445312 c 3
 240.645666014 701.981445312 297.18067728 704.750729373 346 710 c 1
 347 696 l 1
 232 684 199 693.428309859 199 679 c 0
 199 612.843742178 199 458.478504698 199 307 c 3
 199 204.636942241 199.258253277 104.773089425 199 30 c 0
 198.933471405 10.7377135537 229.666666667 15 339 10 c 1
 339 -4 l 1
 294.069284106 -1.7811992151 229.446260519 0.437601569802 166.806906139 0.437601569802 c 3
 116.521558479 0.437601569802 67.5145839095 -0.992301766027 31 -5 c 1
 30 9 l 1
 122.478991597 16.5753424658 185 9.93215008037 185 30 c 0
 185 106.909498837 185 236.356962771 185 354 c 3
 185 491.123792528 185 642.36610137 185 682 c 0
 185 691.251584489 132.01754386 685.753424658 34 695 c 1
 36 709 l 1
EndSplineSet
Position2: "cpsp-1" dx=0 dy=0 dh=50 dv=100
Substitution2: "c2pc-1" i.pcap
Substitution2: "c2sc-1" i.smcp
EndChar
StartChar: J
Encoding: 74 74 35
Width: 386
VWidth: 1159
Flags: HMW
AnchorPoint: "Top" 209 693 basechar 0
LayerCount: 2
Back
SplineSet
167 621 m 4
 158 687 122 684 49 689 c 5
 50 709 l 5
 105 706 167 703 228 703 c 7
 273 703 318 704 359 707 c 5
 359 685 l 5
 312 686 263 690 257 622 c 4
 251 551 252 391 251 200 c 4
 251 114 249 22 247 -69 c 5
 193 -142 153 -187 121 -213 c 4
 101 -229 59 -245 37 -245 c 7
 17 -245 3 -224 1 -213 c 5
 0 -202 66 -174 71 -176 c 5
 77 -180 85 -187 100 -187 c 7
 107 -187 157 -185 167 0 c 4
 178 200 181 520 167 621 c 4
EndSplineSet
Fore
SplineSet
218 678 m 0
 217.989417951 695.012639032 214 680.55 49 695 c 1
 50 709 l 1
 104.643161672 704.778624359 166.895770905 702.985351562 228.194335938 702.985351562 c 7
 273.466539152 702.985351562 318.218352176 704.451328076 359 707 c 1
 359 693 l 1
 239 684.5 232 696.929235089 232 673 c 0
 232 593.981176471 232 412.574664482 232 200 c 0
 232 114 230 22 228 -69 c 1
 194.142857143 -142 150.367925279 -189.505659777 121 -213 c 0
 101 -229 70.0605505096 -245 37 -245 c 3
 17 -245 3 -224 1 -213 c 1
 0.842857142857 -210.621621622 11.2142857143 -204.567567568 12 -205 c 1
 17.1724137931 -214.454545455 24.0689655172 -231 37 -231 c 3
 122.14693183 -231 195.716334157 -103.543742404 214 -64 c 0
 218 -55.3720930232 218.039680531 603.150062718 218 678 c 0
EndSplineSet
Position2: "cpsp-1" dx=0 dy=0 dh=50 dv=100
Substitution2: "c2pc-1" j.pcap
Substitution2: "c2sc-1" j.smcp
EndChar
StartChar: K
Encoding: 75 75 36
Width: 713
Flags: HW
HStem: -1 19<31 35.8607 227.666 278 486 527.34> 680 19<36 81.4409 219.508 280.571 415 452.693 593.354 621.6>
AnchorPoint: "Bottom" 349 -15 basechar 0
AnchorPoint: "Top" 346 675 basechar 0
LayerCount: 2
Back
SplineSet
413 702 m 1
 443 700 474 699 504 699 c 3
 557 699 604 702 621 705 c 1
 624 685 l 1
 604 686 567 665 545 648 c 0
 448 575 338 465 245 380 c 1
 604 70 l 2
 632 47 677 14 695 9 c 1
 691 -10 l 1
 680 -8 665 0 622 0 c 3
 547 0 493 -7 486 -7 c 1
 485 12 l 1
 538 17 545 24 518 49 c 0
 388 165 281 254 185 334 c 1
 185 239 187 137 191 71 c 0
 193 33 212 28 278 14 c 1
 278 -5 l 1
 260 -5 160 3 90 3 c 3
 65 3 44 2 31 -1 c 1
 30 18 l 1
 78 22 97 29 101 79 c 0
 109 188 113 311 113 414 c 3
 113 494 111 565 107 620 c 0
 103 675 98 677 34 686 c 1
 36 705 l 1
 77 703 115 700 156 700 c 3
 193 700 233 702 280 708 c 1
 282 691 l 1
 236 687 201 685 196 628 c 0
 192 578 186 466 185 350 c 1
 294 457 394 550 446 607 c 0
 464 628 475 645 475 655 c 0
 475 671 447 683 415 683 c 1
 413 702 l 1
EndSplineSet
Fore
SplineSet
445 700 m 1
 474.702708372 699.279471975 506.048876644 698.98828125 535.287109375 698.98828125 c 3
 574.301145079 698.98828125 608.260561466 701.787760292 621 705 c 1
 624 691 l 1
 560 682 561.534563613 691.955284973 548 680 c 0
 434.985062545 578.258562476 271.31 462.175373135 147 361 c 1
 203.906592245 319.662506851 499.695807747 109.368158326 607 22 c 0
 624.077835531 8.09505362975 634 21 694 3 c 1
 693.25 -1.10526315789 691 -10 691 -10 c 1
 680 -8 665 0 622 0 c 3
 564.647058824 0 523.352941176 -6 518 -6 c 1
 517 8 l 1
 594 15 597.716480492 11.3661529901 579 26 c 0
 404.212634559 162.660926514 263 258.523297491 135 352 c 1
 134 230.754863813 132.031532112 109.577499587 131 24 c 0
 130.842730553 10.9526833941 133.022988506 17 219 11 c 1
 219 -3 l 1
 206.361879045 -3 138.222452171 2.60110803324 90.0603586529 2.60110803324 c 3
 64.9889196676 2.60110803324 43.6315789474 1.63157894737 31 -1 c 1
 30 13 l 1
 115 22 116.909527707 9.92149647853 117 24 c 0
 117.820800103 151.725702385 122 396.598245749 122 408 c 3
 122 514.039871291 124.163913263 557.26739567 125 682 c 0
 125.048620895 689.094729405 122 685.8 35 691 c 1
 36 705 l 1
 69.0057860016 702.879323324 99.5115137079 700.477539062 133.060546875 700.477539062 c 3
 159.445658313 700.477539062 187.951369228 701.611073289 222 705 c 1
 224 691 l 1
 142 684 139.060709286 690.158257839 139 681 c 0
 138.636359142 625.064056942 135.363636364 499.769784172 135 370 c 1
 293.53256705 494.71513829 444.670644356 606.667492691 517 672 c 0
 522.520665611 676.887546926 526 680.708333333 526 683 c 0
 526 687.714285714 523.666666667 683 446 686 c 1
 445 700 l 1
EndSplineSet
Position2: "cpsp-1" dx=0 dy=0 dh=50 dv=100
Substitution2: "c2pc-1" k.pcap
Substitution2: "c2sc-1" k.smcp
EndChar
StartChar: L
Encoding: 76 76 37
Width: 621
VWidth: 1159
Flags: HW
HStem: 0 34<201.715 484.694> 0 22<28 77.3713> 680 20<39 87.9227 235.574 290.286>
VStem: 108 83<42.703 331.175> 112 90<374.826 665.166> 584 21<117.717 142.667>
AnchorPoint: "Bottom" 303 -15 basechar 0
AnchorPoint: "Top" 170 676 basechar 0
AnchorPoint: "TopRight" 367 531 basechar 0
LayerCount: 2
Back
SplineSet
287 710 m 5x6c
 289 685 l 5
 223 678 204 675 200 633 c 4x6c
 189 469 187 263 193 86 c 4
 194 49 208 37 263 35 c 4
 322 34 354 32 393 36 c 4xb4
 542 51 573 92 586 151 c 5
 607 144 l 5
 595 94 579 20 558 -13 c 5
 521 -1 464 -3 438 -2 c 4
 380 -2 289 0 208 0 c 7
 161 0 34 -2 31 -2 c 5
 31 20 l 5
 101 31 109 40 110 92 c 4x74
 111 182 114 303 114 403 c 7
 114 478 113 560 110 621 c 4
 107 685 87 683 34 687 c 5
 36 707 l 5
 80 704 116 702 147 702 c 7
 201 702 243 704 287 710 c 5x6c
EndSplineSet
Fore
SplineSet
230 709 m 1x6c
 232 695 l 1
 134 683 128 695.040559741 128 678 c 0x6c
 128 478.096474953 128 242.546511628 128 21 c 0
 128 14 129.535806753 12.9001028181 134 13 c 0
 208.024111259 14.6564695344 469.087239054 12.4865883652 500 11 c 0xb4
 561.046511628 8.06428571429 561 8 593 148 c 1
 607 144 l 1
 595 94 579 20 558 -13 c 1
 521 -1 464.019223663 -2 438 -2 c 0
 380 -2 289 0 208 0 c 3
 161 0 34 -2 31 -2 c 1
 31 12 l 1
 113.544303797 14.0694444444 114 9.94337892576 114 19 c 0x74
 114 129.76923077 114 279.918724808 114 403 c 3
 114 501.684210527 114 597.775684484 114 678 c 0
 114 691.884305395 106.789473684 686.090909091 34 693 c 1
 36 707 l 1
 70.4864864865 704 98.7027027027 702 123 702 c 3
 164.271428571 702 196.371428571 705.181818182 230 709 c 1x6c
EndSplineSet
Position2: "cpsp-1" dx=0 dy=0 dh=50 dv=100
Substitution2: "c2pc-1" l.pcap
Substitution2: "c2sc-1" l.smcp
EndChar
StartChar: M
Encoding: 77 77 38
Width: 1012
Flags: HW
HStem: -7 19<30 79.6652 232.157 290 683.5 716.257> -1 22<921.234 978> 675 20<33 111.171 898.146 972>
VStem: 793 78<350.25 578> 798 81<57.3892 366.812>
AnchorPoint: "Bottom" 502 -15 basechar 0
AnchorPoint: "Top" 523 625 basechar 0
LayerCount: 2
Back
SplineSet
984 -3 m 1x68
 948 -1 913 0 878 0 c 3
 815 0 754 -1 690 -7 c 1
 688 13 l 1
 769 27 804 53 804 137 c 0xa8
 803 301 801 496 799 586 c 1
 707 433 616 246 560 126 c 0
 534 71 515 24 508 0 c 1
 496 0 l 1
 483 40 461 93 436 146 c 0
 371 284 275 461 211 591 c 1
 200 504 190 259 188 126 c 0
 186 41 211 16 297 16 c 1
 296 -7 l 1
 240 -2 196 0 158 0 c 3
 115 0 77 -2 36 -5 c 1
 34 14 l 1
 112 16 141 51 147 127 c 0
 148 142 173 537 172 563 c 0
 171 611 161 638 144 655 c 0
 122 677 88 680 38 686 c 1
 39 707 l 1
 102 704 192 700 240 703 c 1
 255 704 253 692 258 676 c 0
 282 596 427 323 526 141 c 1
 638 354 803 663 813 694 c 0
 814 699 817 703 823 703 c 0
 875 701 931 703 978 706 c 1
 978 686 l 1
 905 683 884 676 877 601 c 0xb0
 871 529 877 359 885 125 c 0
 889 35 915 24 984 19 c 1
 984 -3 l 1x68
EndSplineSet
Fore
SplineSet
984 -3 m 1x68
 947.512695312 -0.8740234375 912.405273438 0.12109375 877.877929688 0.12109375 c 3
 833.939453125 0.12109375 780.9296875 -2.1884765625 751 -4 c 1
 750 9 l 1
 870 20 873.527191011 6.91991765414 873 26 c 0xa8
 868.5234375 190.308298939 857 579.726415094 862 671 c 1
 775 509.927374302 639.788685668 248.793967356 575 127 c 0
 546.100585938 73.3720703125 512 10 509 0 c 1
 495 0 l 1
 492 11 482.776658469 27.4401973727 428.98828125 146.5 c 0
 365.696289062 286.595918252 252.435546875 537.157133152 192 670 c 1
 187 582.451104101 164.141125563 165.629224549 156 32 c 0
 154.540039062 7.9609375 156 16 277 13 c 1
 276 -1 l 1
 219.65234375 -0.8349609375 196.09375 0.0234375 157.661132812 0.0234375 c 3
 114.247070312 0.0234375 77.3740234377 -2.34765625 36 -5 c 1
 35 9 l 1
 142 17 140.004112102 6.99969571472 142 34 c 0
 143.110351562 49.0780206345 170.558909822 534.872414198 172 561 c 0
 178 665.87394958 179.127347098 675.07030926 173 681 c 0
 164 690 166 685 38 692 c 1
 39 706 l 1
 91 703 158 701 188 702 c 1
 194.754882812 702.629882812 197.075180298 692.263186995 204.122070312 677 c 0
 240 599.290322581 417 207.714285714 502 20 c 1
 615 235.238738739 830.997977693 642.475578052 858 693 c 0
 860.422851562 697.486328125 862.017595354 702.460184973 868 702 c 0
 894 700 945 701 978 702 c 1
 978 688 l 1
 877 685 877.112507639 694.968739723 876 673 c 0xb0
 872.36328125 600.175656128 878.780612503 269.463583836 888 24 c 0
 888.577148438 8.8466796875 890 17 984 11 c 1
 984 -3 l 1x68
EndSplineSet
Position2: "cpsp-1" dx=0 dy=0 dh=50 dv=100
Substitution2: "c2pc-1" m.pcap
Substitution2: "c2sc-1" m.smcp
EndChar
StartChar: N
Encoding: 78 78 39
Width: 897
VWidth: 1159
Flags: HW
HStem: -11 20<243.349 292.7> 685 17.2427<818.699 862> 690.5 20.5<29 67.9982 632 695.908>
VStem: 126.655 39.3449<44.7657 588.27> 738 38<153 299.352> 746.209 39.7912<396.818 626.255> 759 22<-10 12.2541>
AnchorPoint: "Bottom" 449 -15 basechar 0
AnchorPoint: "Top" 454 699 basechar 0
LayerCount: 2
Back
SplineSet
36 711 m 1xb2
 93 699.5 144.09375 700.311523438 181 706.6015625 c 0
 182.889648438 706.923828125 184.9453125 706.956054688 186.5 704.41015625 c 0
 224.596679688 642.032226562 519.287109375 368.857421875 745 153 c 1xb8
 748.572265625 257.795898438 753.208984375 337.774414062 753.208984375 421.223632812 c 3xb4
 753.208984375 477.922851562 751.068359375 536.223632812 745 605 c 0
 740 659 730 687 637 695 c 1
 639 711 l 1xb8
 673.6640625 711.888671875 727.2578125 702.243164062 801.654296875 702.243164062 c 3
 822.8203125 702.243164062 845.348632812 703.010742188 869 705 c 1
 869 685 l 1
 819.5 685.5 797 668 793 599 c 0xd4
 786 432 783 294 783 101 c 0xd8
 783 87 787 -4 788 -10 c 1
 766 -11 l 1
 758.986328125 14.3359375 728.368164062 54.5888671875 682.228515625 104.794921875 c 0
 567.203125 229.961914062 355.7109375 416.995117188 173 589 c 1
 171 444 165.712890625 242.990234375 171 102 c 0
 172.5 62 174.5 26.5 301 9 c 1
 299 -11 l 1
 250.19140625 -4.56640625 207.978515625 -2.0703125 170.745117188 -2.0703125 c 3
 124.065429688 -2.0703125 85.2119140625 -5.9931640625 51 -11 c 1
 49 10.5 l 1
 120 16 127 24 128 106 c 0
 129.416015625 225.671875 133.655273438 413.610351562 133.655273438 523.017578125 c 3
 133.655273438 568.114257812 132.934570312 599.869140625 131 608 c 0
 120.954101562 650.215820312 97 684 36 690.5 c 1
 36 711 l 1xb2
EndSplineSet
Fore
SplineSet
35 711 m 1xb2
 92 699.5 109.094726562 700.307617188 146 706.6015625 c 0
 147.889648438 706.923828125 149.765625 706.836914062 151.5 704.41015625 c 0
 279.038085938 526 703 127.831054688 768 21 c 1xb8
 767.572265625 125.795898438 770.208984375 337.774414062 770.208984375 421.223632812 c 3xb4
 770.208984375 499.51953125 774.004882812 613 774 675 c 0
 773.998046875 693.3984375 764.522460938 688.044921875 637 697 c 1
 638 711 l 1xb8
 672.6640625 708.888671875 726.2578125 702.243164062 800.654296875 702.243164062 c 3
 821.8203125 702.243164062 844.348632812 703.010742188 868 705 c 1
 868 691 l 1
 792 683.767578125 788.416555106 695.052288436 788 671 c 0xd4
 784.808795964 486.736840529 782 291.142454068 782 101 c 0xd8
 782 87 782 -4 783 -10 c 1
 769 -11 l 1
 761.986328125 11.3359375 727.368164062 54.5888671875 681.228515625 104.794921875 c 0
 566.203125 229.961914062 277 517.947265625 150 681 c 1
 152 536 147.018554688 168.98828125 146 28 c 0
 145.797851562 -0.02734375 152.5 22.5 299 2 c 1
 298 -11 l 1
 249.19140625 -4.56640625 206.978515625 -2.0703125 169.745117188 -2.0703125 c 3
 123.065429688 -2.0703125 84.2119140625 -5.9931640625 50 -11 c 1
 48 2.5 l 1
 130 16 131.725585938 1.98828125 132 26 c 0
 133.8359375 186.60546875 136.655273438 413.610351562 136.655273438 523.017578125 c 3
 136.655273438 568.114257812 135.934570312 676.869140625 134 685 c 0
 131.858398438 694 110 680.5078125 35 697.5 c 1
 35 711 l 1xb2
EndSplineSet
Position2: "cpsp-1" dx=0 dy=0 dh=50 dv=100
Substitution2: "c2pc-1" n.pcap
Substitution2: "c2sc-1" n.smcp
EndChar
StartChar: O
Encoding: 79 79 2473
Width: 793
Flags: HW
HStem: -16 33<341.371 514.276> 685 33<297.104 456.595>
VStem: 23 82<266.508 463.741> 689 82<227.806 435.778>
AnchorPoint: "Bottom" 413 -15 basechar 0
AnchorPoint: "Top" 401 695 basechar 0
AnchorPoint: "Ogonek" 489 -2 basechar 0
LayerCount: 2
Fore
SplineSet
400 704 m 3
 224.904042109 704 37 557.179166909 37 346 c 3
 37 263.036547883 105.855714464 -2 411 -2 c 3
 616.517962486 -2 757 168.930287653 757 349 c 3
 757 544.281609008 599.294244714 704 400 704 c 3
400 718 m 3
 607 718 771 552 771 349 c 3
 771 162 625 -16 411 -16 c 3
 95 -16 23 259 23 346 c 3
 23 566 218 718 400 718 c 3
EndSplineSet
Position2: "cpsp-1" dx=0 dy=0 dh=50 dv=100
Substitution2: "c2pc-1" o.pcap
Substitution2: "c2sc-1" o.smcp
EndChar
StartChar: P
Encoding: 80 80 41
Width: 595
Flags: HW
HStem: -10 21<41.6667 77.512 248.617 301.401> 258 29<197.038 365.389> 686 32<205.607 367.179> 695 20<31 77.79>
VStem: 119 77<30.3146 267 289.664 315.623> 490 87<396.596 564.051>
AnchorPoint: "Bottom" 219 -15 basechar 0
AnchorPoint: "Top" 298 694 basechar 0
LayerCount: 2
Back
SplineSet
282 287 m 3xec
 416 287 490 371 490 471 c 3
 490 568 445 632 383 664 c 0
 353 679 320 686 287 686 c 3
 205 686 205 671 204 665 c 0
 199 647 192 341 196 293 c 1
 218 288 252 287 282 287 c 3xec
31 711 m 1xdc
 41 711 86 708 141 708 c 3
 198 708 243 714 274 714 c 3xec
 431 714 577 621 577 472 c 3
 577 374 459 258 289 258 c 3
 247 258 218 262 196 267 c 1
 196 197 199 128 200 70 c 0
 201 23 216 27 305 12 c 1
 304 5 301 -4 300 -9 c 1
 269.445771718 -2.88915434357 219.961003655 0.62846668531 170.297737094 0.62846668531 c 3
 122.436171213 0.62846668531 74.4088231657 -2.63855707054 43 -10 c 1
 39 11 l 1
 126 28 119 49 119 77 c 0
 120.211102551 134.224595531 120.872166581 200.341480483 120.872166581 267.495600072 c 3
 120.872166581 422.136470637 117.366692347 582.277563773 109 652 c 0
 105 685 52 694 30 694 c 1
 31 711 l 1xdc
EndSplineSet
Fore
SplineSet
289 272 m 3xec
 450.053681605 272 563 382 563 472 c 3
 563 569 500.479335874 637.051939784 418 674 c 0
 387.567877106 686.222332284 334 700 274 700 c 3
 262.889229724 700 153.881613161 695.042173381 153 690 c 0
 151.622819999 682.182625219 152 492.985037406 152 293 c 1
 190 283 222 272 289 272 c 3xec
31 711 m 1xdc
 41 711 86 708 141 708 c 3
 198 708 243 714 274 714 c 3xec
 431 714 577 618.577235772 577 472 c 3
 577 374 459 258 289 258 c 3
 218.970155901 258 188 269 152 278 c 1
 152 208 151.924183754 86.9712854605 152 29 c 0
 152.034020257 2.98713175747 158 24 279 8 c 1
 278 1 278 -1 277 -6 c 1
 246.4453125 0.111328125 196.961074293 0.62890625 147.297851562 0.62890625 c 3
 108.083812038 0.62890625 68.7339435176 -2.63825262113 43 -10 c 1
 39 4 l 1
 126 21 137.896787454 6.99977434286 138 29 c 0
 138.268464189 86.2243684083 138 197.845703125 138 265 c 3
 138 418.185183824 139.080078125 616.940890949 138 686 c 0
 137.825403773 697.241259313 133 692 30 698 c 1
 31 711 l 1xdc
EndSplineSet
Position2: "cpsp-1" dx=0 dy=0 dh=50 dv=100
Substitution2: "c2pc-1" p.pcap
Substitution2: "c2sc-1" p.smcp
EndChar
StartChar: Q
Encoding: 81 81 42
Width: 825
Flags: HW
HStem: -157 34<699 869.137> -12 30<365.009 432.581> 681 34<311.995 474.681>
VStem: 41 80<269.367 465.613> 702 83<226.697 445.832>
AnchorPoint: "Bottom" 393 -15 basechar 0
LayerCount: 2
Back
SplineSet
390 681 m 3
 234 681 121 561 121 401 c 3
 121 208 251 18 455 18 c 3
 616 18 702 164 702 319 c 3
 702 527 536 681 390 681 c 3
534 9 m 1
 611 -55 746 -123 836 -123 c 3
 857 -123 875 -120 892 -116 c 1
 895 -134 l 1
 853 -144 804 -157 740 -157 c 3
 658 -157 500 -89 416 -12 c 1
 107 -12 41 266 41 347 c 3
 41 551 223 715 417 715 c 3
 598 715 785 570 785 346 c 3
 785 187 679 58 534 9 c 1
EndSplineSet
Fore
SplineSet
417 701 m 3
 222 701 55 535.010637997 55 347 c 3
 55 230 151.991596787 2 407 2 c 3
 618.009008826 2 771 163.988166095 771 346 c 3
 771 549.977900552 603 701 417 701 c 3
476 -5 m 1
 553 -68.0303030303 688 -135 778 -135 c 3
 820.75 -135 857.392857143 -128.571428571 892 -120 c 1
 895 -134 l 1
 863.296774194 -140.956521739 826.309677419 -150 778 -150 c 3
 697.771604938 -150 543.185185185 -83.875862069 461 -9 c 1
 111.92 -41 41 266.676880223 41 347 c 3
 41 551 223 715 417 715 c 3
 598 715 785 570 785 346 c 3
 785 180.394658754 663.505976096 26.0356083086 476 -5 c 1
EndSplineSet
Position2: "cpsp-1" dx=0 dy=0 dh=50 dv=100
Substitution2: "salt-1" Q.alt
Substitution2: "c2pc-1" q.pcap
Substitution2: "c2sc-1" q.smcp
EndChar
StartChar: R
Encoding: 82 82 43
Width: 765
VWidth: 1159
Flags: HMW
HStem: -34 18<715.141 760> -15 21<238.873 275.333> 333 25<190.186 311.406> 678 21<31 89.864>
VStem: 106 83<27.267 311.306> 107 91<473.918 669.555> 469 86<439.59 588.412>
AnchorPoint: "Bottom" 358 -15 basechar 0
AnchorPoint: "Top" 315 682 basechar 0
LayerCount: 2
Back
SplineSet
189 372 m 5xfa
 212 368 262 365 296 365 c 7
 429 365 469 449 469 511 c 7
 469 562 440 693 284 693 c 7
 243 693 199 686 198 659 c 4xf6
 191 550 188 440 189 372 c 5xfa
31 706 m 5
 45 706 85 701 135 701 c 7
 200 701 245 717 311 717 c 7
 476 717 555 608 555 529 c 7
 555 413 448 365 401 354 c 5
 536 154 639 -13 760 -9 c 5
 760 -27 l 5
 564 -48 428 159 309 342 c 5
 303 341 294 340 287 340 c 7
 256 340 216 344 189 349 c 5
 188 258 189 164 194 56 c 4
 195 24 241 22 278 10 c 5
 274 -11 l 5
 243 -2 204 0 164 0 c 7
 115 0 67 -2 34 -8 c 5
 31 12 l 5
 70 16 105 32 106 70 c 4xfa
 110 171 115 286 115 401 c 7
 115 479 113 558 107 638 c 4
 105 680 77 685 28 685 c 5
 31 706 l 5
EndSplineSet
Fore
SplineSet
152 373 m 1xfa
 181.018691589 362.714285714 244.102803738 355 287 355 c 3
 482.271676301 355 541 455.109589041 541 529 c 3
 541 599.645714286 468.686425365 703 311 703 c 3
 269.995980158 703 152 685.564584021 152 679 c 0xf6
 152 562.783972125 152 445.50174216 152 373 c 1xfa
31 706 m 1
 45 706 85 701 135 701 c 7
 200 701 245 717 311 717 c 3
 476 717 555 608 555 529 c 3
 555 404.685714286 439.24025974 359.314285714 374 349 c 1
 540.153203343 113.414723672 613.899721448 -11.9338842976 760 -8 c 1
 760 -22 l 1
 598 -32.9701897019 495.070953437 158.509485095 358 346 c 1
 338.636363636 343.5 309.590909091 341 287 341 c 3
 244.295918367 341 189.193877551 346 152 359 c 1
 152 252.937931035 151.891107659 143.194456743 152 21 c 0
 152.008574599 11.3779415923 216 17.4 277 3 c 1
 274 -10 l 1
 243.022803071 -2.74599194654 203.378899723 0.0107421875 163.754882812 0.0107421875 c 3
 115.118586116 0.0107421875 66.512250797 -3.58956293316 34 -8 c 1
 32 6 l 1
 95 13.8260869565 138.017652713 11.4350667863 138 21 c 0xfa
 137.861846951 138.566804467 137.711914062 267.278517903 137.711914062 400.729492188 c 3
 137.711914062 489.340987135 138.268623989 566.880408797 138 671 c 0
 137.948791152 690.848727188 96.9873417722 686 30 693 c 1
 31 706 l 1
EndSplineSet
Position2: "cpsp-1" dx=0 dy=0 dh=50 dv=100
Substitution2: "salt-1" R.alt
Substitution2: "c2pc-1" r.pcap
Substitution2: "c2sc-1" r.smcp
EndChar
StartChar: S
Encoding: 83 83 44
Width: 532
VWidth: 1159
Flags: HW
HStem: -14 32<191.142 375.847> -5 21G<52 71.5> 683 21<223.309 353.769>
VStem: 52 19<-2 14.1074> 64 66<479.982 592.81> 439 70<90.2823 217.985> 476 14<539.966 567.52 688.109 697.5>
AnchorPoint: "Top" 285 675 basechar 0
LayerCount: 2
Back
SplineSet
59.5046094326 3.90178211231 m 1
 52.5215770457 4.38887418149 l 1
 55.366868921 45.1794486391 49.5867849871 78.3009116668 22.9867688344 173.892797636 c 1
 29.7305436413 175.769364009 l 1
 36.4743184481 177.645930383 l 1
 63.0557683468 82.1207655479 69.5031370976 46.6453286065 66.4876418194 3.41469004314 c 1
 59.5046094326 3.90178211231 l 1
476.3405293 546.838273794 m 2
 476.289252206 547.460633123 476.160307762 548.698663685 476.09776352 549.3241061 c 0
 469.151789039 618.783850918 466.640913204 616.721255362 474.927550202 675.470766946 c 1
 456.186023045 664.681540866 433.129075674 665.453473951 407.26130552 672.508320357 c 0
 376.041431886 681.022831348 345.649707122 690 287 690 c 0
 163.919419771 690 86 612.420507967 86 530 c 0
 86 426.012044461 237.525739859 376.695574201 269.30563725 365.609390053 c 0
 325.549408911 345.782075148 500 303.519734034 500 149 c 0
 500 45.1122566387 386.330494698 -14 289 -14 c 0
 148.845611664 -14 98.1717300568 16 81 16 c 1
 81 30 l 1
 107.150745821 30 149.199773655 0 289 0 c 0
 382.984477246 0 486 57.0977145402 486 149 c 0
 486 290.897740177 324.496875581 331.308751121 264.69436275 352.390609947 c 0
 236.008160724 362.397581155 72 412.488908406 72 530 c 0
 72 621.993839761 158.290113456 704 287 704 c 0
 347.060463667 704 379.859458297 694.49287501 410.944949201 686.015013854 c 0
 442.470300905 677.417190662 464.635319645 679.67110907 479.0839212 697.383043603 c 2
 495.053624099 716.959632463 l 1
 491.43592888 691.955902274 l 2
 480.152523084 613.970550531 482.289408455 628.105915453 490.028284183 550.717158167 c 1
 490.028284183 550.717158167 496.939549789 541.975934517 484.516688692 539.863449514 c 1
 483.343197043 546.764385491 l 1
 476.3405293 546.838273794 l 2
EndSplineSet
Fore
SplineSet
21 181 m 1x74
 35 184 l 1
 73 54.8666666667 59.7527133222 44.7012749075 80 35 c 0
 106 22.5423728814 178 0 289 0 c 3
 387 0 486 59.9944446159 486 150 c 3xb4
 486 253.926470588 398.137454909 308.574466653 300 341 c 0
 266.595776871 352.037067876 72 402.769662921 72 530 c 3
 72 621.484536082 157.807174888 704 287 704 c 3
 366.193548387 704 412.179969429 685.05539553 461 669 c 0
 471.509246819 665.543834315 474 666 480 699 c 1
 492 696 l 1
 481 617 482.763908529 628.92713892 490 551 c 0
 490.928571429 541 490.928571429 540 477 539 c 1xaa
 461 648.744186047 478.888493734 648.087928092 456 656 c 0
 429 665.333333333 372.00549434 690 287 690 c 3
 166.4 690 86 614.023255814 86 530 c 3
 86 429.97005988 220 381 302 355 c 0
 351.401808835 339.336011833 500 288.756880734 500 150 c 3
 500 46.043715847 386.827272727 -14 289 -14 c 3xac
 149 -14 98 16 81 16 c 0
 72 16 67.5 20.1904761905 66 -4 c 1
 52 -2 l 1
 56 42 51 74 21 181 c 1x74
EndSplineSet
Position2: "cpsp-1" dx=0 dy=0 dh=50 dv=100
Substitution2: "c2pc-1" s.pcap
Substitution2: "c2sc-1" s.smcp
EndChar
StartChar: T
Encoding: 84 84 45
Width: 744
VWidth: 1159
Flags: HMW
HStem: -12 22<223.277 267.753> 657 38<429 632.242> 695 20G<63.5 76>
VStem: 333 90<37.5695 314.818>
AnchorPoint: "Top" 376 670 basechar 0
LayerCount: 2
Back
SplineSet
382 673 m 1
 388.999967067 672.978527708 l 1
 386.999967067 20.9785277084 l 1
 380 21 l 1
 373.000032933 21.0214722916 l 1
 375.000032933 673.021472292 l 1
 382 673 l 1
26.611876582 592.030766773 m 1
 20.2650706675 594.983401983 l 1
 46.7365932458 651.88498451 59.2706338888 686.058760386 64.650090752 708.816287712 c 1
 71.4623559049 707.20599473 l 1
 78.2746210578 705.595701748 l 1
 72.5044314055 681.185198602 59.6174370542 646.382176619 32.9586824966 589.078131564 c 1
 26.611876582 592.030766773 l 1
71.421875 689.0234375 m 1
 72.0002610149 695.999501549 l 1
 97.719424485 693.867123698 219.395183294 693.192335932 352.076572161 693.192335932 c 0
 524.039293642 693.192335932 715.252297484 694.5086629 726.029858438 695.001482345 c 1
 726.349609375 688.008789062 l 1
 726.669360312 681.01609578 l 1
 714.777611984 680.472328519 524.372544358 679.192335932 352.076572161 679.192335932 c 0
 219.066405729 679.192335932 98.2485324752 679.775219156 70.8434889851 682.047373451 c 1
 71.421875 689.0234375 l 1
734.168108405 696.101657219 m 1
 740.606448781 693.354336125 l 1
 726.775620357 660.941822979 721.645429976 651.330663683 709.315668686 583.35903667 c 1
 702.428067759 584.608417905 l 1
 695.540466832 585.85779914 l 1
 707.879965328 653.883105516 713.989482433 666.648652071 727.729768028 698.848978314 c 1
 734.168108405 696.101657219 l 1
527.402632674 -0.783098950011 m 1
 526.119915767 -7.66456952939 l 1
 479.705662005 0.987120159233 435.684764939 4.3169230137 390.285072497 4.3169230137 c 0
 333.460082003 4.3169230137 277.918914449 -1.5928350404 231.518179388 -10.6844252428 c 1
 230.172218118 -3.81504475703 l 1
 228.826256847 3.05433572871 l 1
 276.160519935 12.3288379961 332.490753319 18.3169230137 390.285072497 18.3169230137 c 0
 436.368486653 18.3169230137 481.33406123 14.9247260352 528.685349582 6.09837162937 c 1
 527.402632674 -0.783098950011 l 1
EndSplineSet
Fore
SplineSet
106 695 m 0xb0
 128.595316655 694.16313642 235.459122124 693.192335932 352.076572161 693.192335932 c 3
 509.315550854 693.192335932 684.222309797 695 694 695 c 0xb0
 738 695 732 702 736 704 c 1
 743 699 l 1
 727 661 722 655 708 576 c 1
 695 580 l 1
 708 658 719.229758487 674.27456677 714 678 c 0
 706.287462936 683.494047562 537.396226415 679.142857143 389 679 c 1xd0
 388.443501334 535.133838309 387.953125 357.613942541 387.953125 226.033203125 c 3
 387.953125 146.588123302 387.49156494 97.0055759766 387 29 c 0
 386.833472731 5.96177675371 396 30 536 5 c 1
 533 -9 l 1
 486.428929646 0.314214070874 437.693912758 4.3169230137 390.285072497 4.3169230137 c 3
 330.805061169 4.3169230137 273.412541706 -1.98361206075 225 -12 c 1
 223.666666667 -8.45454545455 223.666666667 -4.90909090909 221 1 c 1
 365.666666667 27.9285714286 372.959510154 10.1207610744 373 26 c 0
 373.254651462 125.868776977 373.798828125 290.557674273 373.798828125 430.42578125 c 3
 373.798828125 552.363159245 374.122502045 655.301747471 375 679 c 1
 154.535117057 679 82.057780889 682.936159492 74 679 c 0
 66.5133827383 675.342849228 70 669 30 582 c 1
 17 588 l 1
 48 654 61 690 66 715 c 1
 99 710 52 697 106 695 c 0xb0
EndSplineSet
Position2: "cpsp-1" dx=0 dy=0 dh=50 dv=100
Substitution2: "c2pc-1" t.pcap
Substitution2: "c2sc-1" t.smcp
EndChar
StartChar: U
Encoding: 85 85 53
Width: 827
VWidth: 1159
Flags: HW
HStem: -16 33<304.712 522.917> 688 19<24.2632 80.625 217.522 287 737.19 788>
VStem: 103 75<119.571 665.877>
AnchorPoint: "Top" 415 671 basechar 0
AnchorPoint: "Ogonek" 502 -2 basechar 0
LayerCount: 2
Back
SplineSet
53.0428978931 704.241462957 m 0
 62.2257376769 703.527133977 71.7248489839 702.950429721 81.3422041442 702.507130076 c 0
 100.908714025 701.605236913 121.376247896 701.223653233 142.357679757 701.223653233 c 0
 180.257429967 701.223653233 220.508992809 703.162863187 255.882527126 705.588097961 c 1
 256.840129124 691.620886414 l 1
 221.248597 689.180705554 180.729171605 687.223653233 142.357679757 687.223653233 c 0
 131.961334302 687.223653233 121.456994724 687.320978171 111.224912808 687.526108082 c 1
 123.907512506 676.41284967 130.687089564 658.789184456 133.930405557 631.399474215 c 1
 139.112983725 574.389929294 136.995117188 391.398091944 136.995117188 231.739257812 c 0
 136.995117188 141.699099014 164.918390055 100.629704939 190.059159676 71.7107780814 c 0
 227.564178412 28.5695015809 293.198053773 -2 405 -2 c 0
 510.693730772 -2 596.766349587 35.8515635374 629.51855958 84.0110358135 c 1
 661.710457575 129.757602865 672.089739473 180.622709388 679.066455134 257.36689317 c 1
 692.981763729 389.564397708 691.998307435 524.902422434 693.000278992 637.124996529 c 0
 693.226167587 659.959649778 700.324241347 676.132912884 713.791086442 686.122198774 c 1
 670.346429454 686.285606409 622.597480904 687.911803257 600.914870926 690.205844778 c 1
 602.387863449 704.128139597 l 1
 624.017658183 701.839685981 675.643398354 700.111111111 720.148148148 700.111111111 c 0
 728.397569683 700.111111111 736.465154389 700.162224048 744.119049352 700.264805872 c 0
 755.052491534 700.41134204 765.086681309 700.660806377 773.643639204 701.01700214 c 0
 776.320070105 701.164271827 779.224704975 701.304936259 781.819526722 701.414649719 c 1
 782.513080883 687.432514424 l 1
 779.690319173 687.271659021 777.536035759 687.162150284 774.296325769 687.031468319 c 0
 762.413317437 686.350952009 751.818981457 685.270957136 743.128435342 683.360351579 c 0
 719.275953999 678.116413765 707.306349171 667.99646792 706.999721008 637.000003471 c 0
 705.99973473 524.99978423 706.999749123 389.000460864 692.999951116 256.00029433 c 1
 686.006472249 179.071714528 675.269641961 124.698978502 641.03222167 76.0456048115 c 1
 604.341508654 22.094882808 513.347219003 -16 405 -16 c 0
 290.789122913 -16 220.435821588 15.4304984191 179.493574699 62.5255500436 c 0
 152.955046793 93.0522904343 122.995117188 138.505226523 122.995117188 231.739257812 c 0
 122.995117188 391.135799922 124.975830136 575.263609039 120.005141318 629.94232266 c 1
 115.211677803 670.422984121 104.728493911 680.447681547 82.7694965658 685.855070462 c 0
 74.5165808641 687.887345624 64.1550319973 689.11929528 51.8462385746 690.29198178 c 0
 44.5656412706 690.867287313 37.2027226431 691.544695711 30.4643549649 692.277835099 c 1
 31.8967722691 706.203698505 l 1
 39.1991512536 705.496145782 46.4518244336 704.863377041 53.0428978931 704.241462957 c 0
EndSplineSet
Fore
SplineSet
25 707 m 1
 59.4213277102 702.813622306 100.117309591 701.223653233 142.357679757 701.223653233 c 3
 182.532206137 701.223653233 224.395668358 703.325765386 262 706 c 1
 263 692 l 1
 162.285714286 685 136 694.797142142 136 669 c 0
 136 539.905263158 137 396.727985475 137 231 c 3
 137 165.173228346 149.687596857 124.394732938 184 79 c 0
 219.575609756 31.9340659341 291.804878049 -2 405 -2 c 3
 524.83255814 -2 601.168048904 41.8829470228 633 89 c 0
 658.02063937 125.030049098 671.954085583 167.304306012 680 255 c 0
 690.530592538 369.7772115 693 509.451775962 693 672 c 3
 693 691.019158632 655.444444444 684 577 692 c 1
 578 705 l 1
 594.666666667 702.333333333 662.888888889 700.111111111 720.148148148 700.111111111 c 3
 748.777777778 700.111111111 774.666666667 700.666666667 790 702 c 1
 789 688 l 1
 732.835616438 686.446808511 707 686.553808711 707 671 c 3
 707 439.000632307 702.116042998 356.035368109 693 256 c 0
 685.113108892 169.452793561 675.540463658 127.953364674 643 79 c 0
 605.93442623 23.2391304348 514.245901639 -16 405 -16 c 3
 289.097959184 -16 221.101455773 14.5200582337 176 67 c 0
 149.481562071 97.8567884206 123 141.651841234 123 232 c 3
 123 407.903283733 121 609.54909658 121 670 c 3
 121 693.565447751 110.700093721 685.25561029 23 693 c 1
 25 707 l 1
EndSplineSet
Position2: "cpsp-1" dx=0 dy=0 dh=50 dv=100
Substitution2: "c2pc-1" u.pcap
Substitution2: "c2sc-1" u.smcp
EndChar
StartChar: V
Encoding: 86 86 54
Width: 805
VWidth: 1159
Flags: HW
HStem: 683 21<5 53.7285 187.178 249 602.526 647.654 761.845 800>
AnchorPoint: "Top" 411 662 basechar 0
LayerCount: 2
Back
SplineSet
625.071289062 700.42578125 m 1
 625.762937143 707.391527652 l 1
 662.986342122 703.695513598 702.194730749 702.013671875 736.446289062 702.013671875 c 0
 757.665382783 702.013671875 777.802942 702.582461061 792.976075471 703.512717248 c 1
 793.404437173 696.525836238 l 1
 793.832798876 689.538955227 l 1
 778.265988104 688.584562909 757.92063447 688.013671875 736.446289062 688.013671875 c 0
 701.739206745 688.013671875 662.146459456 689.710063777 624.379640982 693.460034848 c 1
 625.071289062 700.42578125 l 1
732 681 m 1
 738.303848543 677.956729794 l 1
 710.310795133 619.971747516 516.994905524 226.98890719 455 92 c 0
 443.355551237 66.7703610141 426.170382253 24.4376089591 412.302534924 -12.4625771196 c 2
 406.118150381 -28.9182630673 l 1
 399.187181018 -12.7593606956 l 2
 388.675691219 11.7471878922 374.018308261 44.8420349866 354.793945312 86 c 0
 270.656160046 266.128039043 79.040589289 656.874082546 67.8367023005 677.681301239 c 1
 74 681 l 1
 80.1632976995 684.318698761 l 1
 91.900816961 662.520448704 283.107302575 272.552444268 367.478402696 91.9249085111 c 0
 382.979218178 58.7387882229 395.030419312 31.8873602825 405.272772891 8.42867164949 c 1
 417.217861939 39.4487291768 432.207188784 76.0238248469 442.288568617 97.8668144845 c 0
 504.439109385 233.194604867 697.753657992 626.163018109 725.696151457 684.043270206 c 1
 732 681 l 1
11.6905832639 697.428228242 m 1
 12.7189954459 704.352271019 l 1
 27.9005735441 702.097386068 51.1470420166 700.915039062 74.28515625 700.915039062 c 0
 113.743255697 700.915039062 153.11558932 701.825120793 181.559708527 703.569875882 c 1
 181.98828125 696.583007812 l 1
 182.416853973 689.596139743 l 1
 153.506673606 687.82279658 113.968763991 686.915039062 74.28515625 686.915039062 c 0
 50.6463918279 686.915039062 27.0741415709 688.066553155 10.6621710819 690.504185464 c 1
 11.6905832639 697.428228242 l 1
EndSplineSet
Fore
SplineSet
186 704 m 1
 187 690 l 1
 100.228571429 684.684210526 83 689.473632812 83 684 c 3
 83 682.095703125 84.7548102814 674.582117477 88 668 c 0
 184.331914894 472.612970088 352 132 405 8 c 1
 444 116.832072617 634.103046417 494.213453292 718 668 c 0
 721.473649873 675.195417593 724 681.333007812 724 685 c 3
 724 691.25 715.15625 685 619 694 c 1
 621 708 l 1
 658.945905739 703.926757812 700.797498267 702.013671875 736.446289062 702.013671875 c 3
 761.001953125 702.013671875 783.010742188 702.693359375 800 704 c 1
 801 691 l 1
 749 685 745.49031296 692.278195212 740 681 c 0
 712.05155648 623.588336186 517.253768619 226.883165342 455 92 c 0
 443 66 423 21 412 -17 c 1
 399 -17 l 1
 394 0 375.181114592 42.3537260647 354.793945312 86 c 0
 270.627929688 266.188476562 78.6307016131 656.738596774 68 678 c 0
 60 694 64 682 4 692 c 1
 5 705 l 1
 20.5997748926 702.302734375 46.5672899962 700.915039062 72.28515625 700.915039062 c 3
 114.809570312 700.915039062 156.981445312 701.927734375 186 704 c 1
EndSplineSet
Position2: "cpsp-1" dx=0 dy=0 dh=50 dv=100
Substitution2: "c2pc-1" v.pcap
Substitution2: "c2sc-1" v.smcp
EndChar
StartChar: W
Encoding: 87 87 55
Width: 1079
Flags: HW
HStem: 692 20<15 63.9811 244.755 292.9 412 448.96 610.181 671 824 890.378 1041.1 1090>
VStem: 727 25<-22 19.2261>
AnchorPoint: "Bottom" 535 -15 basechar 0
AnchorPoint: "Top" 556 693 basechar 0
LayerCount: 2
Back
SplineSet
1079 706 m 1
 1079 689 l 1
 1012 690 979 630 958 572 c 0
 893 392 809 182 766 57 c 0
 754 23 746 -4 741 -22 c 1
 716 -22 l 1
 716 -14 705 22 688 73 c 0
 650 186 582 369 552 455 c 1
 455 250 406 116 375 25 c 0
 369 7 364 -8 359 -23 c 1
 342 -23 l 1
 328 16 313 60 297 107 c 0
 245 259 183 442 126 584 c 0
 113 616 102 639 91 654 c 0
 71 681 50 687 4 691 c 1
 4 708 l 1
 70 709 106 702 150 702 c 3
 178 702 216 705 281 712 c 1
 284 692 l 1
 241 688 196 675 196 648 c 0
 196 628 199 621 204 605 c 0
 229 530 332 241 379 133 c 1
 536 498 l 1
 524 536 485 616 467 649 c 0
 450 680 441 688 400 687 c 1
 401 707 l 1
 453 704 490 703 524 703 c 3
 569 703 606 705 660 709 c 1
 660 689 l 1
 639 688 612 686 597 678 c 0
 567 663 569 649 577 622 c 1
 614 511 683 300 757 133 c 1
 819 273 898 500 921 602 c 0
 935 663 879 687 812 689 c 1
 813 707 l 1
 864 705 903 704 957 704 c 3
 990 704 1029 704 1079 706 c 1
EndSplineSet
Fore
SplineSet
1077 706 m 1
 1077 692 l 1
 989 688 988.583984375 696.153320312 981 675 c 0
 917.635727126 498.38269982 802.213450444 181.052443285 759.165039062 57 c 0
 747.451171875 23.220703125 736.672851562 -3.9462890625 736 -22 c 1
 721 -22 l 1
 721.30859375 -8.265625 713.940429688 22.376953125 696.788085938 73 c 0
 658.499023438 186.002929688 596.38671875 382.672851562 566 469 c 1
 496 294 422.970703125 115.096679688 390.076171875 24 c 0
 383.787109375 6.583984375 378.842773438 -8.4716796875 377 -23 c 1
 361 -23 l 1
 359 -6 346.537109375 29.953125 331 77 c 0
 280.055664062 231.259765625 182.809570312 515.5703125 133 657 c 0
 129.848632812 665.948242188 124.490234375 679.56640625 122 683.700195312 c 0
 117 692 106 688 4 694 c 1
 4 708 l 1
 34.431640625 705.796875 90.826171875 702.338867188 134.985351562 702.338867188 c 3
 163 702.338867188 193.775390625 704.139345686 259 710 c 1
 261 696 l 1
 147 684.153846154 141 691.769230769 141 685 c 0
 141 674 143.322265625 669.771484375 149 654 c 0
 176 579 331 122 369 7 c 1
 430.682617188 177.934570312 495.752929688 328.483398438 559 490 c 1
 546.185714286 527.43 494.40779855 680.392612305 490 687 c 0
 488 690 467 688 401 694 c 1
 402 707.5 l 1
 453.891601562 704.270507812 465.595703125 702.89453125 499.256835938 702.89453125 c 3
 543.760742188 702.89453125 582.1953125 705.298828125 636 709 c 1
 636 695 l 1
 605 692 520 690 512 686 c 0
 508 684 508 683 514 665 c 1
 551.824074074 554.507621951 680.226851852 178.236280488 729 12 c 1
 776.142214467 150.260492573 929.866447928 576.29269286 966 675 c 0
 973.639648438 695.881835938 958 687 835 694 c 1
 836 707 l 1
 887.474609375 705.44921875 901.641601562 703.899414062 955.454101562 703.899414062 c 3
 988.411132812 703.899414062 1026.86328125 704.48046875 1077 706 c 1
EndSplineSet
Position2: "cpsp-1" dx=0 dy=0 dh=50 dv=100
Substitution2: "c2pc-1" w.pcap
Substitution2: "c2sc-1" w.smcp
EndChar
StartChar: X
Encoding: 88 88 56
Width: 758
VWidth: 1159
Flags: HW
HStem: -7.5 23<483 538.325 689.994 741.5> 688 16<657.255 704> 695.5 15.5<28 71.9415 236.935 281 467.765 508.131>
AnchorPoint: "Top" 376 686 basechar 0
LayerCount: 2
Back
SplineSet
31.5 711 m 5xa0
 49.80078125 711 77.494140625 705.9375 169.298828125 705.9375 c 7
 199.900390625 705.9375 237.625 706.5 284.5 708 c 5
 284.5 691 l 5
 269.630859375 691.49609375 251.482421875 691.008789062 242 688.322265625 c 4
 224.844726562 683.459960938 222.586914062 669.596679688 231.5 654 c 4
 251.5 618 325.5 502 400.5 406 c 5
 469.5 492 494.5 529 541.5 614 c 4
 554.544921875 636.362304688 553.0859375 663.641601562 534 677.313476562 c 4
 520.385742188 687.064453125 498.970703125 693.416992188 469.5 694 c 5
 472.5 711 l 5xa0
 516.741210938 704.920898438 545.927734375 702.03515625 602.4296875 702.03515625 c 7
 629.579101562 702.03515625 663.036132812 702.702148438 707.5 704 c 5
 708.5 688 l 5xc0
 667.5 690 658.5 684 633.5 662 c 4
 603.5 635 474.5 461 416.5 385 c 5
 519.565429688 243.584960938 593.861328125 143.189453125 667.5 51.404296875 c 4
 697.01953125 14.609375 705.5 18.5 745 15.5 c 5
 746.5 -7.5 l 5
 708.918945312 -2.712890625 668.81640625 -0.67578125 627.125976562 -0.67578125 c 7
 581.732421875 -0.67578125 534.456054688 -3.0908203125 486.5 -7 c 5
 484.5 13 l 5
 501.793945312 14.1162109375 526.087890625 18.41015625 538 24.23046875 c 4
 567.37890625 38.5849609375 549.540039062 63.93359375 534.5 89 c 4
 488.5 163 431.5 240 371.5 327 c 5
 301.5 237 245.5 158 212.5 106 c 4
 198.470703125 83.955078125 183.5 58 210 31.435546875 c 4
 224.657226562 16.7431640625 259.012695312 10.279296875 275 9 c 5
 271.5 -10 l 5
 233.546875 -2.2314453125 186.59765625 0.259765625 143.0703125 0.259765625 c 7
 88.5380859375 0.259765625 39.375 -3.6513671875 20 -6 c 5
 19 14 l 5
 80 12 112.5 49 126.5 63 c 4
 181.5 116 301.5 281 355.5 347 c 5
 291.5 438 217.5 540 137.5 635 c 4
 96.5 683 73 696.5 31 695.5 c 5
 31.5 711 l 5xa0
EndSplineSet
Fore
SplineSet
32 711 m 1xa0
 50.30078125 711 77.994140625 705.9375 169.798828125 705.9375 c 3
 200.400390625 705.9375 238.125 706.5 285 708 c 1
 285 694 l 1
 210 691 182.814453125 693.407226562 176 690 c 0
 172 688 175.49609375 684.705078125 178 681 c 0
 203 644 316.212890625 482.290039062 387 380 c 1
 460 476 518.583984375 546.71875 573 640 c 0
 586.044921875 662.362304688 595.0859375 677.330078125 587 683 c 0
 573.2890625 692.614257812 560 683 470 698 c 1
 473 711 l 1xa0
 517.241210938 704.920898438 546.427734375 702.03515625 602.9296875 702.03515625 c 3
 630.079101562 702.03515625 663.536132812 702.702148438 708 704 c 1
 709 690 l 1xc0
 625 687 622 690 611 681 c 0
 602.772460938 674.268554688 604 634 396 367 c 1
 494 227 572.231445312 113.024414062 635 24 c 0
 646.524414062 7.654296875 653 18 745.5 6.5 c 1
 747 -7.5 l 1
 709.418945312 -2.712890625 669.31640625 -0.67578125 627.625976562 -0.67578125 c 3
 582.232421875 -0.67578125 534.956054688 -3.0908203125 487 -7 c 1
 485 7 l 1
 586 14 601.265625 9.8291015625 607 14 c 0
 612.828125 18.2392578125 618.1796875 21.6533203125 607 38 c 0
 555.221679688 113.712890625 452 262 388 355 c 1
 233 156 175 73 154 33 c 0
 146.504882812 18.7236328125 150 18 153 16 c 0
 156 14 220 14 274.5 4 c 1
 272 -10 l 1
 234.046875 -2.2314453125 187.09765625 0.259765625 143.5703125 0.259765625 c 3
 89.0380859375 0.259765625 39.875 -3.6513671875 20.5 -6 c 1
 19.5 8 l 1
 91 14 119.609375 13.4736328125 128 20 c 0
 146 34 117 34 378 368 c 1
 314 460 226.165039062 585.9921875 161 681 c 0
 150.740234375 695.958007812 126.5 690.5 31.5 697.5 c 1
 32 711 l 1xa0
EndSplineSet
Position2: "cpsp-1" dx=0 dy=0 dh=50 dv=100
Substitution2: "c2pc-1" x.pcap
Substitution2: "c2sc-1" x.smcp
EndChar
StartChar: Y
Encoding: 89 89 57
Width: 737
Flags: HW
HStem: -12 21.5<252.512 307.555 485.31 522.5> 690 18<14.5 68.8147 217.388 278 687.535 725.5> 696.5 20G<497.167 523.25>
VStem: 345.5 83<27.9743 355.681>
AnchorPoint: "Bottom" 387 -15 basechar 0
AnchorPoint: "Top" 378.5 671 basechar 0
LayerCount: 2
Back
SplineSet
278 688 m 5xd0
 248.181640625 688.424804688 237.079101562 686.611328125 227 683.625 c 4
 202.581054688 676.390625 203.845703125 652.98046875 218.5 631 c 4
 241.5 595 366.5 425 410.5 366 c 5
 484.327148438 475.587890625 535.916015625 551.282226562 575.91796875 627.200195312 c 0
 586.606445312 647.486328125 577.5 662 559 674.240234375 c 4
 546.768554688 682.333007812 521.260742188 689.666015625 496.5 690.5 c 1
 500.5 710.5 l 1xb0
 528.620117188 702.84765625 580.232421875 699.869140625 633.498046875 699.869140625 c 3
 666.41796875 699.869140625 699.970703125 702.15234375 729 707.5 c 5
 725.5 690 l 5
 682.5 684 644.5 663 612.5 617 c 4
 553.5 535 476.5 420 426.5 335 c 5
 426.5 270 423.71875 115.922851562 428.5 61 c 4
 431.814453125 22.93359375 432.5 26.5 523.5 10 c 5
 522.5 -11 l 5
 491.505859375 -4.2841796875 439.4296875 -0.2373046875 386.60546875 -0.2373046875 c 7
 337.170898438 -0.2373046875 287.081054688 -3.7822265625 253 -12 c 5
 251.5 9.5 l 1
 296 16.5 344.059570312 12.2841796875 345.5 67 c 5
 349.5 146 347.5 245 345.5 320 c 5
 309.5 385 179.5 566 116.5 639 c 4
 78.5 682 57.5 689 14.5 689 c 5
 14.5 710 l 5
 69.7685546875 706.359375 122.188476562 703.814453125 181.185546875 703.814453125 c 3
 211.322265625 703.814453125 243.174804688 704.478515625 278 706 c 5
 278 688 l 5xd0
EndSplineSet
Fore
SplineSet
204 692 m 1xd0
 174.181640625 690.424804688 125.307761662 690.061552332 122 689 c 0
 117.144879832 687.441857466 120.653582224 685.478562338 129 674 c 0
 158.962556008 633.024949194 334 391.595505618 386 320 c 1
 464.876953125 438.988750436 606.229103175 655.45905334 620 676 c 0
 624 682 627.991964312 685.599189328 618 686 c 0
 593.07061312 687 560 688 531.5 694.5 c 1
 535.5 708.5 l 1xb0
 556.219977677 703.395914159 594.249897461 699.869140625 633.498046875 699.869140625 c 3
 666.41796875 699.869140625 699.970703125 702.15234375 729 707.5 c 1
 726.5 693 l 1
 646 680 647 693 638 679 c 0
 583.252466551 594.291371949 449 390.546666667 394 306 c 1
 394 241 393.263785003 78.9009750336 394 24 c 0
 394.230832273 6.7863913509 432.5 19.5 523.5 3 c 1
 522.5 -11 l 1
 491.505859375 -4.2841796875 439.4296875 -0.2373046875 386.60546875 -0.2373046875 c 3
 337.170898438 -0.2373046875 287.081054688 -3.7822265625 253 -12 c 1
 251.5 1.5 l 1
 338 21 379.559570312 5.2841796875 380 24 c 1
 380 103 380 231 380 306 c 1
 336 365.684210526 167 598.452631579 104 684 c 0
 96.4320587243 694.330840472 75 687 14.5 696 c 1
 14.5 710 l 1
 45.232095927 706.359375 74.3802087488 703.814453125 107.185546875 703.814453125 c 3
 137.322265625 703.814453125 169.174804688 704.478515625 204 706 c 1
 204 692 l 1xd0
EndSplineSet
Position2: "cpsp-1" dx=0 dy=0 dh=50 dv=100
Substitution2: "c2pc-1" y.pcap
Substitution2: "c2sc-1" y.smcp
EndChar
StartChar: Z
Encoding: 90 90 2559
Width: 766
Flags: HW
HStem: 0 36<187.25 604.739> 649 36.951<457.703 579.25> 656 34<145.302 574.862> 698.453 20G<90.625 106.25>
AnchorPoint: "Bottom" 382 -15 basechar 0
AnchorPoint: "Top" 386.25 660 basechar 0
LayerCount: 2
Fore
SplineSet
47 579.75 m 1xb0
 112.25 732.25 77.5 724.5 103.75 727.453125 c 1
 108.313063063 712.853789127 100.731386057 701.355332501 110 701 c 0xb0
 354.224474506 691.637122894 572.983398438 696.739257812 680.25 696.951171875 c 0
 691.946581942 696.974279442 695.314453125 699.331054688 701.75 701.75 c 1
 709.75 689.75 l 1
 705.5 685.75 702.291992188 683.278320312 699.25 680 c 0
 548 514.760742188 299 234.995419847 79 14 c 1
 184 15 503.774571346 17.7223795283 644 9 c 0
 671.961430723 7.26072764933 658 10 726.25 142 c 1
 738.25 134 l 1
 714.306640625 93.296875 684.25 25 665.25 -23 c 1
 643.25 -22 660.275392033 -6.65329801632 637.25 -5.19921875 c 0
 505.265625 3.1357421875 253.629882812 0.97265625 56.25 0 c 1
 53.25 8 l 1
 81.9833984375 38.2822265625 115.645019232 70.4491462854 149.21484375 104 c 0
 315.110351562 272.447530543 546 533.717773438 679.219726562 679 c 0
 680.331054688 680.193359375 682.078125 681.670898438 683 683 c 1xd0
 530 682 280.625204853 679.115150009 109 687 c 0
 92.7346781955 687.747265663 105 680 58.25 569.75 c 1
 47 579.75 l 1xb0
EndSplineSet
Position2: "cpsp-1" dx=0 dy=0 dh=50 dv=100
Substitution2: "c2pc-1" z.pcap
Substitution2: "c2sc-1" z.smcp
EndChar
StartChar: bracketleft
Encoding: 91 91 85
Width: 246
Flags: HW
HStem: -230 14<51 219> 703 14<51 219>
VStem: 37 14<-216 703>
LayerCount: 2
Fore
SplineSet
51 703 m 1
 51 -216 l 1
 219 -216 l 1
 219 -230 l 1
 37 -230 l 1
 37 717 l 1
 219 717 l 1
 219 703 l 1
 51 703 l 1
EndSplineSet
Position2: "cpsp-1" dx=0 dy=0 dh=50 dv=100
Position2: "'case' vertical ajustments for all-caps-1" dx=0 dy=90 dh=0 dv=0
EndChar
StartChar: asciicircum
Encoding: 94 94 872
Width: 463
Flags: HW
HStem: 378.451 317.052
VStem: 79.7493 303.814
LayerCount: 2
Back
SplineSet
85.4689245006 397.563630097 m 1
 79.2135536886 400.705339187 l 1
 82.3552627783 406.960709999 l 1
 225.3354495 691.644638777 l 1
 231.587959342 704.093839658 l 1
 237.845037681 691.646934317 l 1
 380.956083777 406.963005539 l 1
 384.100088407 400.708788171 l 1
 377.845871039 397.564783541 l 1
 371.591653671 394.420778911 l 1
 368.447649041 400.67499628 l 1
 231.593681283 672.912019717 l 1
 94.8660044023 400.67729182 l 1
 91.7242953127 394.421921008 l 1
 85.4689245006 397.563630097 l 1
EndSplineSet
Fore
SplineSet
383.563476562 401.09765625 m 1
 371.88671875 394.451171875 l 1
 231.65625 673.27734375 l 1
 91.42578125 394.451171875 l 1
 79.7490234375 401.09765625 l 1
 227.166992188 695.502929688 l 1
 236.145507812 695.502929688 l 1
 383.563476562 401.09765625 l 1
EndSplineSet
EndChar
StartChar: a
Encoding: 97 97 0
Width: 385
Flags: HMW
HStem: -18 40<289 347.036> -17 32<66 170.18> 162 24<170.375 244.719> 376 32<142.099 224.5>
VStem: 32 58<23.793 131.62> 49 59<315.642 355.233> 243 63<56.5717 161.987 182.751 271.326> 250 61<145.38 335.214>
AnchorPoint: "Bottom" 198 -15 basechar 0
AnchorPoint: "Top" 186 429 basechar 0
AnchorPoint: "Ogonek" 339 18 basechar 0
LayerCount: 2
Fore
SplineSet
278 175 m 1x7a
 278 177 278 178 277 178 c 3
 275.838527805 178 103.610169492 160 57 116 c 0
 51.4694512516 111.133117101 46 86.0666666667 46 64 c 3
 46 10 57.8679036682 -3 92 -3 c 3
 149.96 -3 198.72 21.2247191011 276 74 c 1
 276 81.2 276 95.95214 276 110 c 3
 276 119.792673688 277 158.76744186 278 175 c 1x7a
195 408 m 3
 222 408 271.035916536 368.586852143 283 342 c 0
 292 322 295 305 295 248 c 3x75
 295 204 290 168 290 100 c 3
 290 74.5644126644 289.886474803 50.5585682973 291 39 c 0
 297.206896552 8.93333333333 318.192118227 -2 321 -2 c 3
 324.857142857 -2 357 16.53125 381 31 c 1
 387 18 l 1
 359.78125 2.57142857143 324.489583333 -18 320 -18 c 3xb2
 314.428571429 -18 276.571428571 -2.94850498339 276 56 c 1
 214.333333333 14.8545454545 158.596153846 -17 91 -17 c 3
 41 -17 32 17 32 64 c 3x7a
 32 87 36.8470368745 106.388147498 42 119 c 0
 43.5594758107 122.816809557 49.428550241 129.153625622 54 132 c 0
 103.481327801 165 175.369294606 178 279 193 c 1
 280 209.744186047 281 239.046511628 281 248 c 3
 281 288.101694915 280.168896869 320.098789914 269 339 c 0
 256 361 214.099751242 394 195 394 c 3
 162.879506893 394 63 352 63 322 c 3
 63 310.631578947 65.5 304.315789474 68 298 c 1
 55 293 l 1
 51 303 49 310 49 320 c 3x75
 49 334 56.1350850374 344.813531864 70 355 c 0
 113.439716312 391 172.836879433 408 195 408 c 3
EndSplineSet
Substitution2: "case-1" A
Substitution2: "pcap-1" a.pcap
Substitution2: "smcp-1" a.smcp
EndChar
StartChar: b
Encoding: 98 98 214
Width: 467
Flags: HMW
HStem: -12 29<169.699 271.885> -7 21G<31 45> 370 35<184.53 286.926> 667 7<-12 -5.3772>
VStem: 50 58<53.7357 347.497 352 575.344> 381 65<127.855 267.145>
AnchorPoint: "Bottom" 226 -15 basechar 0
AnchorPoint: "Top" 77 749 basechar 0
LayerCount: 2
Fore
SplineSet
77 320 m 1xbc
 77 320 74.2827228552 93.9653766721 69 52 c 0
 68.3905187208 47.1583469057 77.6407316161 43.7864227946 86 41 c 0
 122 29 162.933407243 2 193 2 c 3
 303.018180316 2 432 90.5194805195 432 215 c 3
 432 299.095184167 357.02150289 391 264 391 c 3
 199.992187977 391 142 353 77 320 c 1xbc
-14 674 m 1
 15.2403100775 690 43.48046875 717 67 744 c 1
 77 743 l 1
 77 716 78 687.055664062 78 657 c 0
 78 582.275390625 78 443.350819672 77 336 c 1
 120.153846154 355.830188679 189.679487179 405 264 405 c 3
 366 405 446 306 446 215 c 3
 446 82 311 -12 193 -12 c 3xbc
 145 -12 94 30 69 30 c 0
 64.09765625 30 65 2 50 -7 c 1x7c
 43 -2 l 1
 47 8 49.9395915408 17.0111548841 52 28 c 0
 58 60 57.4712606024 99.0171453604 59 138 c 0
 63.6666666667 257 64.3230845673 430.971781767 64 522 c 0
 63.7557853321 590.806833666 63.8829153149 626.432154444 63 694 c 0
 62.8421448223 706.080359338 61.362237493 712.404223299 51 704 c 0
 26.6593435624 684.258673662 10 668 -12 667 c 1
 -14 674 l 1
EndSplineSet
Substitution2: "case-1" B
Substitution2: "pcap-1" b.pcap
Substitution2: "smcp-1" b.smcp
EndChar
StartChar: c
Encoding: 99 99 228
Width: 405
Flags: HMW
HStem: -5 37<196.003 313.637> 374 47<173.241 297.231>
VStem: 32 61<136.013 275.84>
AnchorPoint: "Bottom" 219 -15 basechar 0
AnchorPoint: "Top" 233 433 basechar 0
LayerCount: 2
Fore
SplineSet
370 360 m 1
 343.93129771 376.538461538 295.618320611 393 258 393 c 3
 157.911504425 393 46 290.534722222 46 166 c 3
 46 43.0544397463 138.505617978 -5 228 -5 c 3
 276.62 -5 332.39 19.0625 371 50 c 1
 381 38 l 1
 343 11 290 -19 228 -19 c 3
 180 -19 32 1 32 166 c 3
 32 291 144 407 258 407 c 3
 304 407 347 390 385 369 c 1
 376.25 360.375 376.5625 359.625 370 360 c 1
EndSplineSet
Substitution2: "case-1" C
Substitution2: "pcap-1" c.pcap
Substitution2: "smcp-1" c.smcp
EndChar
StartChar: d
Encoding: 100 100 269
Width: 500
Flags: HMW
HStem: 0 39<178.96 290.797> 373 33<199.285 321.34> 667 18<308.444 329.397> 733 20G<426.5 456>
VStem: 35 52<136.267 271.943> 367 61<11.5684 57 62.6121 342.5> 368 71<11.9114 56.2983 416.973 620.773>
AnchorPoint: "Bottom" 227 -15 basechar 0
AnchorPoint: "TopRight" 481.5 531 basechar 0
AnchorPoint: "Top" 368 734 basechar 0
LayerCount: 2
Fore
SplineSet
258 392 m 3
 213 392 162 364 140 351 c 0
 83.4203906733 317.566594489 36 265.273504274 36 181 c 3
 36 85 95.6385542169 14 186 14 c 3
 263.964912281 14 332 63 388 94 c 1
 384 151.060728745 387 248.873650578 390 355 c 0
 390.214281523 362.580305263 387.934774836 364.212221009 373 368 c 0
 336.688012471 377.2094983 300.881355932 392 258 392 c 3
390 79 m 1xfa
 327.469879518 42.9649122807 264.56626506 0 186 0 c 3
 85 0 22 81 22 181 c 3
 22 293 99.7022965482 351.669010481 180 387 c 0
 205 398 231 406 258 406 c 3
 305.882352941 406 349.882352941 387.6 390 378 c 1
 394 496.690909091 399 608 407 718 c 0
 407.269335537 721.703363634 406.377260587 724.294921875 404.74609375 724.294921875 c 3
 396.096555709 724.294921875 337.316933882 681.425574274 297 671 c 1
 293 683 l 1
 331.35971223 698.441176471 383.992805755 727.264705882 417 753 c 1
 424 747 l 1
 421.090909091 721 418.122810983 679.949718308 416 647 c 0
 403.823529412 458 400 188 400 155 c 3xfc
 400 100.864661654 407.190143165 52.6689978462 414 5 c 0
 415 -2 419 -7 428 -5 c 0
 494 27 l 1
 500 14 l 1
 476.461538462 3.75 418.307692308 -27 410 -27 c 3
 405 -27 402 -11 398 14 c 0
 394.549827713 35.563576794 391.666666667 60.8604651163 390 79 c 1xfa
EndSplineSet
Substitution2: "case-1" D
Substitution2: "pcap-1" d.pcap
Substitution2: "smcp-1" d.smcp
EndChar
StartChar: e
Encoding: 101 101 4
Width: 414
Flags: HMW
HStem: -7 35<177.694 286.248> 376 20<168.781 232.156>
VStem: 34 61<110.281 224.686 236 282.35>
AnchorPoint: "Bottom" 210 -15 basechar 0
AnchorPoint: "Top" 212 425.3 basechar 0
AnchorPoint: "Ogonek" 301.65 23 basechar 0
LayerCount: 2
Back
SplineSet
220.254882812 401.940429688 m 3
 287.245117188 401.940429688 336.98046875 361.33984375 365.400390625 313.634765625 c 0
 370.474609375 304.5 371.490234375 300.440429688 389.759765625 291.3046875 c 1
 388.745117188 281.155273438 l 1
 292.980032681 263.900390625 192.174476383 243.599609375 98.4248046875 223.299804688 c 1
 98.4248046875 218.224609375 98.4248046875 212.134765625 98.4248046875 207.059570312 c 3
 98.4248046875 110.634765625 152.510513801 28.419921875 247.66015625 28.419921875 c 3
 295.365234375 28.419921875 341.040039062 50.75 372.504882812 71.0498046875 c 1
 379.610351562 60.900390625 l 1
 336.98046875 27.4052734375 271.004882812 -7.10546875 205.030273438 -7.10546875 c 7
 98.455078125 -7.10546875 34.509765625 80.1845703125 34.509765625 187.775390625 c 7
 34.509765625 330.889648438 145.14453125 401.940429688 220.254882812 401.940429688 c 3
188.790039062 381.639648438 m 0
 124.259871756 379.610351562 101.425297322 305.514648438 99.4404296875 239.540039062 c 1
 273.03515625 278.110351562 l 2
 288.703952236 282.169921875 310.248311166 285.21484375 300.455078125 307.544921875 c 0
 283.353347372 345.099609375 241.101841767 382.655273438 188.790039062 381.639648438 c 0
EndSplineSet
Fore
SplineSet
217 402 m 3
 285.307692308 402 337.502316554 361.923068577 365 313 c 0
 370 304 373 296 389 291 c 1
 388 281 l 1
 276.177083333 260.719298246 158.46875 236.859649123 49 213 c 1
 48 205.1875 48 195.8125 48 188 c 3
 48 90.3011363637 103.812080537 7 202 7 c 3
 266.959349594 7 329.154471544 40 372 70 c 1
 379 60 l 1
 335.779069767 27 268.889534884 -7 202 -7 c 3
 97 -7 34 80.34375 34 188 c 3
 34 331.004739336 143 402 217 402 c 3
217 388 m 3
 148.776936422 388 66 324.807692308 52 229 c 1
 351 289 l 2
 358.200861271 290.445070799 359.358806756 294.008854281 355 302 c 0
 330.097744361 347.047619048 281.660601806 388 217 388 c 3
EndSplineSet
Substitution2: "case-1" E
Substitution2: "pcap-1" e.pcap
Substitution2: "smcp-1" e.smcp
EndChar
StartChar: f
Encoding: 102 102 5
Width: 302
VWidth: 1159
Flags: HMW
HStem: -4 22<18 42 164.811 250> 373 27<20 90 157 307> 707 43<248.897 359.422>
VStem: 90 66<24.4249 373 400 587.19>
AnchorPoint: "Bottom" 136 -15 basechar 0
AnchorPoint: "Top" 252 748 basechar 0
LayerCount: 2
Back
SplineSet
328 750 m 7
 361 750 392 741 422 727 c 5
 437 711 407 676 400 672 c 5
 352 687 311 707 272 707 c 7
 186 707 170.824779995 604.160127661 162 535 c 4
 156 486.955555556 156 443.088888888 156 394 c 5
 307 394 l 5
 307 366 l 5
 157 371 l 5
 157 307.663212435 156 243.336787565 156 180 c 4
 156 132.666666667 158.914206116 82.6579234213 163 38 c 4
 164.350820509 21.5302673494 183.976203958 17.1 205 16 c 4
 210.993224165 15.4298627942 240 14 250 12 c 5
 250 -2 l 5
 217 -2 172 2 139 2 c 7
 100 2 47 -2 18 -4 c 5
 18 11 l 5
 42 14 l 4
 84 20.1714285714 87.3224767817 42.7933764797 88 86 c 4
 89 148 90 210 90 273 c 4
 90 303.38 90 340.62 90 371 c 5
 67 370 41 368 20 367 c 5
 20 394 l 5
 91 394 l 5
 92 453.1375 93.1413711931 509.130987994 104 560 c 4
 119 629 156.700692095 663.065235131 205 700 c 4
 239 726 274 750 328 750 c 7
EndSplineSet
Fore
SplineSet
328 750 m 7
 361 750 392 741 422 727 c 5
 426.772727273 723.509090909 417.227272727 715.872727273 415 715 c 5
 382.375 730 354.5078125 736 328 736 c 7
 224.794578044 736 148.396921819 649.430509893 130.427119634 557 c 4
 122.734857201 517.433635742 119.120623277 465.506492414 118 394 c 5
 307 394 l 5
 307 380 l 5
 118 380 l 5
 118 313.678756476 118.391048679 246.306653709 118 180 c 4
 117.701136372 129.324347152 117 75.7994273219 117 28 c 4
 117 18.9863440854 122.420061303 15.90108138 128 16 c 4
 152.248296625 16.4298627942 222.888888889 14 250 12 c 5
 250 -2 l 5
 242 -2 172 2 139 2 c 7
 100 2 47 -2 18 -4 c 5
 18 10 l 5
 94 15 l 4
 102.217391304 16.1142857143 102.951930619 20.1906535408 103 28 c 4
 103.5 109.229946524 104 190.459893048 104 273 c 4
 104 306.17 104 346.83 104 380 c 5
 76.4 380 45.2 380 20 380 c 5
 20 394 l 5
 104 394 l 5
 105 453.1375 106.761627643 507.034198756 117 560 c 4
 130.909428443 631.957142857 166 676 204 706 c 4
 236.326469649 731.520897092 280.56097561 750 328 750 c 7
EndSplineSet
Substitution2: "salt-1" f.alt
Substitution2: "case-1" F
Substitution2: "pcap-1" f.pcap
Substitution2: "smcp-1" f.smcp
EndChar
StartChar: g
Encoding: 103 103 6
Width: 447
Flags: HMW
HStem: -323 40<110.064 270.233> -89 55<147.956 371.536> 347 43<358.789 436.304> 390 26<167.45 250.397>
VStem: 18.7773 34<-229.937 -152.098> 40.7773 49<187.132 309.988> 61.7773 68<-23.4815 21.1121> 324.777 60<161.777 315.908> 392.777 46<-204.458 -109.454>
AnchorPoint: "Top" 212.777 423 basechar 0
LayerCount: 2
Back
SplineSet
340.42665124 351.028962866 m 1
 353.103076344 356.971037134 l 1
 357.777 347 l 0
 372.77282593 315.008904682 384.777 281.990203846 384.777 239 c 0
 384.777 136.997734535 299.814361159 101.017079387 229.727210588 68.977239126 c 1
 223.906573944 81.7098817842 l 1
 295.61614713 114.491400955 370.777 147.051259351 370.777 239 c 0
 370.777 279.290565448 359.763334214 309.777372522 345.100574897 341.057925733 c 0
 340.42665124 351.028962866 l 1
62 0 m 1
 76 0 l 1
 76 -25.94470949 134.310345394 -56 216.77734375 -56 c 0
 243.551375232 -56 268.41214937 -52 295.77734375 -52 c 0
 371.324423903 -52 438.77734375 -81.1730058697 438.77734375 -152 c 0
 438.77734375 -255.000892727 258.585014 -323 163.777 -323 c 0
 88.7769107111 -323 18.7773 -284.96857347 18.7773 -209 c 0
 18.7773 -145.968529072 77.749419546 -97.0168580666 120.777 -71 c 0
 132.801520523 -63.7293089583 l 1
 140.045428276 -75.7095343511 l 1
 128.020907753 -82.9802253929 l 0
 85.713522043 -108.561613832 32.7773 -154.959338427 32.7773 -209 c 0
 32.7773 -273.848291475 92.1507806221 -309 163.777 -309 c 0
 257.752119525 -309 424.77734375 -239.384951875 424.77734375 -152 c 0
 424.77734375 -93.4370898544 369.699320631 -66 295.77734375 -66 c 0
 269.873716307 -66 244.946008029 -70 216.77734375 -70 c 0
 136.26739006 -70 62 -42.8740033687 62 0 c 1
68.7773 2 m 1
 61.7773 2 l 1
 61.7773 17.4529317495 94.5625135528 22.0510844432 173.085449645 59.1511236349 c 1
 193.660811901 68.2914815519 l 1
 189.033895423 69.1668718543 l 1
 188.800458216 69.2279472457 l 0
 112.014936694 89.3177428873 40.7773 148.8898187 40.7773 228 c 0
 40.7773 330.011286333 136.76909197 416 228.777 416 c 0
 267.903149305 416 303.608494567 400.907973588 331.77961324 380.001095734 c 1
 354.651498532 385.422924043 376.530392254 390 402.777 390 c 0
 413.153016866 390 434.437037915 389.794882552 446.311570452 387.532361816 c 1
 443.691213014 373.779771991 l 1
 434.301623574 375.568822696 412.693167421 376 402.777 376 c 0
 378.571867593 376 355.726056605 371.310800905 335.019687382 366.380712994 c 0
 328.630901881 364.859573589 l 1
 323.377 368.8 l 0
 297.358072408 388.314195694 264.145071949 402 228.777 402 c 0
 144.48917528 402 54.7773 321.518634738 54.7773 228 c 0
 54.7773 158.105535139 119.163371013 101.918700708 192.110635827 82.8331281457 c 1
 240.339188099 73.7085184481 l 1
 178.918456605 46.4230951151 l 1
 111.728369666 14.6775315538 81.838477582 4.18143093894 75.3221015932 -0.344939592249 c 1
 74.5226536175 -0.945674920071 68.7773 2 68.7773 2 c 1
EndSplineSet
Fore
SplineSet
75.77734375 0 m 3xe380
 75.77734375 -28.3333333333 142.766885081 -56 216 -56 c 3
 244.082191781 -56 269.917808219 -52 298 -52 c 3
 372.818728147 -52 438.77734375 -81.6296296296 438.77734375 -152 c 3
 438.77734375 -254.393442623 258.77711875 -323 163.777 -323 c 3
 88.7773 -323 18.7773 -285 18.7773 -209 c 3
 18.7773 -141.434782609 88.7396528304 -86.884057971 138 -61 c 1
 105.702469111 -52.3698630137 61.7773 -34.4383561644 61.7773 2 c 3xeb80
 61.7773 17.9677419355 99.607369811 24.3548387097 193 68 c 1
 111.428862338 88.487804878 40.7773 148.975609756 40.7773 228 c 3
 40.7773 330 136.777 416 228.777 416 c 3xd580
 267.019848604 416 305.320939624 401 329.77734375 380 c 1
 351.368791373 385 376.044731514 390 402.777 390 c 3
 414.777 390 441.777 390 451.777 386 c 1
 452.843620833 380.823529412 446.443895833 375.411764706 443.77734375 374 c 1
 432.388454861 375 414.22303543 376 402.77734375 376 c 0
 382.989371366 376 363.201398983 372.571428571 342 368 c 1
 367.788936616 336.723931624 384.777 290.361111111 384.777 239 c 3
 384.777 137 298.684107493 101.211410309 229.777 69 c 0
 137.924560139 26.0625333737 75.77734375 2.59701492537 75.77734375 0 c 3xe380
229 402 m 3xd580
 146.54026092 402 55 323.419354839 55 228 c 3
 55 151.787356322 132 90 214 79 c 1
 307.229885057 114.672131148 371 155.06557377 371 239 c 3
 371 319.090909091 327.483870968 402 229 402 c 3xd580
33 -209 m 3xc980
 33 -282 104.61321456 -309 164 -309 c 3
 250.542105263 -309 425 -242.539823009 425 -152 c 3
 425 -82.2168674699 347.989361702 -66 298 -66 c 3
 268.312642436 -66 244.769602013 -70 216 -70 c 3
 196.52173913 -70 175.217391304 -68.125 160 -65 c 1
 109.208263048 -89 33 -143.411764706 33 -209 c 3xc980
EndSplineSet
Substitution2: "case-1" G
Substitution2: "pcap-1" g.pcap
Substitution2: "smcp-1" g.smcp
EndChar
StartChar: h
Encoding: 104 104 7
Width: 482
Flags: HMW
HStem: -4 14<303.5 329> 0 14<3 27 162.375 200 462.818 493> 360 46<216.849 322.91>
VStem: 57 68<52.802 293.893> 68 74<446.97 682.339> 359 64<25.1175 318.505>
AnchorPoint: "Bottom" 250 -15 basechar 0
AnchorPoint: "Top" 90 733 basechar 0
LayerCount: 2
Back
SplineSet
130 328 m 1xac
 126 255 125 185 125 111 c 3
 125 92.6949152542 122.150257836 68.3238397367 126 51 c 0
 130 31.8 139 23.2666666667 157 19 c 0
 200 12 l 1
 200 -2 l 1
 173 0 140 0 114 0 c 3
 78 0 34 -1 3 -2 c 1
 2 10 l 1
 27 17 l 0
 48 23.4186046512 55.8790165049 35.1913259858 57 63 c 0x74
 64 225.326612903 68 390.659274194 68 560 c 3
 68 586 68 609.980007994 68 635 c 0
 68 657 63 683 40 683 c 3
 27.4 683 14.8 674.818181818 4 673 c 1
 0 687 l 1
 69.0413793103 716.583333333 98.2137931034 724.472222222 141 758 c 1
 155 749 l 1
 149 731 143.13463159 703.992015206 142 686 c 0
 135 575 131 460 130 344 c 1
 178 371 257 406 307 406 c 3
 364 406 406.936107071 364.135214812 415 305 c 0
 421 261 423 207 423 157 c 3
 423 120 420 86 420 50 c 0
 420 28.24 431 21.6266666667 445 18 c 0
 480 11 l 1
 480 -2 l 1
 456.988636364 -1 428.011363636 0 405 0 c 3x6c
 373 0 337 -2 305 -4 c 1
 302 8 l 1
 329 15 l 0
 343 19.3076923077 347.733033251 26.8870978771 350 43 c 0
 355 76 359 111 359 145 c 3
 359 188 355.67087499 228.962125091 351 271 c 0
 345 325 321 360 259 360 c 3
 209 360 164 348 130 328 c 1xac
EndSplineSet
Fore
SplineSet
94 307 m 1xac
 93 212.470046083 89 31.8353199271 89 26 c 3
 89 23.5593220339 90.635848389 19.9280657512 92 18 c 0
 93.7518195838 15.5240117634 95.3246907603 13.9412516296 100 14 c 0
 134.211075496 14.429884919 175.699418209 14.1102690965 200 12 c 1
 200 -2 l 1
 173 0 140 0 114 0 c 3
 78 0 34 -1 3 -2 c 1
 2 10 l 1
 13 13 53.3524078654 9.27742666674 69 14 c 0
 74.0272549607 15.5172673222 75.2752484263 39.9506829817 76 80 c 0x74
 79.7 284.459677419 87 644.705645162 87 706 c 3
 87 711.212288275 87 715.99200639 87 721 c 0
 87 723.75 86.6428571429 727 85 727 c 3
 84 727 55 701 4 673 c 1
 0 687 l 1
 44.5379310345 713.583333333 64.7793103448 724.472222222 93 758 c 1
 103 753 l 1
 102.076923077 733.857142857 101.32670434 705.13942924 101 686 c 0
 99 568.833333333 97 447.444444444 95 325 c 1
 152.491525424 360.274193548 247.11299435 406 307 406 c 3
 364 406 406.936107071 364.135214812 415 305 c 0
 421 261 423 207 423 157 c 3
 423 120 422 77 420 19 c 0
 419.87042992 15.2424676782 420.554709322 14.0350341293 425 14 c 0
 443.216708547 13.8564308684 464.476347561 13.0398239837 480 11 c 1
 480 -2 l 1
 456.988636364 -1 428.011363636 0 405 0 c 3x6c
 373 0 337 -2 305 -4 c 1
 302 8 l 1
 334.767428002 12.952703863 364.91348979 13.1358449284 400 14 c 0
 404.998484187 14.1231090078 405.84190527 14.7314423019 406 19 c 0
 408 73 409 123 409 157 c 3
 409 210.579101562 408.103050129 247.637186755 401 302 c 0
 393.88076937 356.486649843 355.347826087 392 307 392 c 3
 252.441860465 392 155.139534884 347.125 94 307 c 1xac
EndSplineSet
Substitution2: "case-1" H
Substitution2: "pcap-1" h.pcap
Substitution2: "smcp-1" h.smcp
EndChar
StartChar: k
Encoding: 107 107 487
Width: 475
Flags: HMW
HStem: -1 16<-1 18.8 151.504 188 284 322.093 442.358 475> 387 14<230 254.764 398.379 429> 733 20G<113 145>
VStem: 65 73<449.539 675.703> 68 59<25.5973 213 240 463.75>
AnchorPoint: "Bottom" 230 -15 basechar 0
AnchorPoint: "Top" 59 739 basechar 0
LayerCount: 2
Fore
SplineSet
91 216 m 1xe8
 168 254 251.304709972 312.360724648 327 361 c 0
 332.205675463 364.344993885 337 370.2 337 373 c 3
 337 375.160071332 312.307692308 378.040081522 230 379 c 1
 230 393 l 1
 267 393 309 391 346 391 c 3
 372 391 403 393 429 393 c 1
 429 379 l 1
 399.107692308 377.867924528 375.887146302 375.954553353 362 367 c 2
 179 249 l 1
 261.572649573 169.166404482 354 85 424 18 c 0
 433.083004776 9.30626685732 437.530612245 13.5789473684 475 11 c 1
 475 -3 l 1
 443 -2 402 0 368 0 c 3
 341 0 311 -1 284 -2 c 1
 283 11 l 1
 327.285714286 14.0666666667 397 11.5333333333 397 19 c 3
 397 24.7772670566 376.901639344 42.1090682264 166 242 c 1
 91 201 l 1
 91 140.834635417 90.7490234375 74.8750471952 91 37 c 0
 91.0846588553 24.2240734034 94.843146652 14.9999540775 105 15 c 0
 122.999182414 15.0000813802 152.999273256 13.9999186198 189 10 c 1
 188 -2 l 1
 168.302734375 -2 142.697265625 1 123 1 c 3
 84.943359375 1 40.056640625 1 2 -2 c 1
 2 11 l 1
 23.3333333329 13.449238945 53 14 66 15 c 0
 75.4588893764 15.7276068751 77 23.2779607018 77 36 c 0
 77 154 77 272 77 390 c 3xe8
 77 490.232758621 76.5625 591.069686337 77 692 c 0
 77.1158827573 705.236514917 76.5 720 72 720 c 3
 67.3142857143 720 35.6285714286 687.555555558 0 667 c 1
 -4 679 l 1
 25.3525179856 702 54.0935251799 719 81 753 c 1
 91 748 l 1
 91 727 91 702.725614471 91 683 c 0xf0
 91 538.577581008 91 366.746989478 91 216 c 1xe8
EndSplineSet
Substitution2: "case-1" K
Substitution2: "pcap-1" k.pcap
Substitution2: "smcp-1" k.smcp
EndChar
StartChar: l
Encoding: 108 108 497
Width: 241
Flags: HMW
HStem: -2 14<4.25 23 211.375 237> 667 16<21 38.9013> 733 20G<140.5 168>
VStem: 87 63<43.9746 563.918>
AnchorPoint: "Bottom" 122 -15 basechar 0
AnchorPoint: "Top" 108 734 basechar 0
AnchorPoint: "TopRight" 234 531 basechar 0
LayerCount: 2
Fore
SplineSet
125 274 m 3
 125 188.907376219 125.024115033 105.196287523 125 25 c 0
 124.99789642 18.0043936848 129.182075586 13.9985121804 132 14 c 0
 164.82130335 14.0173291304 213.395885659 11.4324100741 237 11 c 1
 237 -3 l 1
 209.329896907 -3 153.989690722 0 115 0 c 3
 79.962962963 0 39.2222222222 -0.666666666667 5 -2 c 1
 2 11 l 1
 15.2808815446 13.1333318502 86.3916888665 13.718082916 104 14 c 0
 109.063405492 14.0810674289 111 18.8666005928 111 25 c 0
 111 133.754237288 111 302.190677966 111 338 c 3
 111 538.111778128 110.759765625 654.264443847 111 714 c 0
 111.101837262 720.160164858 110.538461538 724 108 724 c 3
 102.201673272 724 56.0056444903 681.552206588 20 670 c 1
 17 683 l 1
 53.3636363636 700 89.7272727273 727 117 753 c 1
 125 747 l 1
 125 730 125 711.033296378 125 696 c 0
 125 630 125 414 125 274 c 3
EndSplineSet
Substitution2: "case-1" L
Substitution2: "pcap-1" l.pcap
Substitution2: "smcp-1" l.smcp
EndChar
StartChar: m
Encoding: 109 109 12
Width: 775
Flags: HMW
HStem: -1 13<576 596 742.3 784> -1 11<13 26.6944 190 218 297 317 464 490> 341 11<10 27.8082> 348 38<497.719 647.186> 355 41<245.584 332.073> 385 20G<119.5 151>
VStem: 87 61<44.1758 322.94> 365 65<23.7993 292.25> 640 62<26.0615 303.999>
AnchorPoint: "Bottom" 395 -15 basechar 0
AnchorPoint: "Top" 389 412 basechar 0
LayerCount: 2
Fore
SplineSet
702 113 m 3x1380
 702 84.5733333333 702 59 702 31 c 0
 702 14.9552866233 703.029744079 15.5221617206 720 15 c 2
 785 13 l 1
 784 0 l 1
 752 0 715 1 683 1 c 0
 650 1 609 0 576 -1 c 1
 575 12 l 1
 675 15 l 2
 688.747680064 15.4124304019 688 15.4189207985 688 37 c 0
 688 98 688 156.095238095 688 220 c 3
 688 253.532879752 686.763083922 285.278556015 678.297731856 310.999997965 c 0
 666.252665033 347.598178961 639.573272477 372 581 372 c 3x9380
 512.555555556 372 455 341.516129032 399 309 c 1
 402.2 295.666666667 403 282.333333333 403 269 c 3
 403 237 403 204.991350182 403 173 c 0
 403 130 403 87 403 43 c 0
 403 12.2413793103 403.216399953 13.8728058844 423 13 c 2
 491 10 l 1
 490 -1 l 1
 476 -1 456 -1 442 -1 c 0
 394 -1 344 -2 297 -4 c 1
 296 10 l 1
 368 12 l 2
 389.820727179 12.6061313105 389 12.9288020963 389 50 c 0
 389 82.825 389 118.157787381 389 151 c 3
 389 201.725352113 390 270 387 298 c 0
 382.032041072 344.367616666 350.703703704 382 303 382 c 3x4b80
 245.196850394 382 160 328 101 293 c 1
 101 209 101 125.111330007 101 41 c 0
 101 25.6666666667 103.374126926 15.4068808054 112 15 c 2
 218 10 l 1
 218 -2 l 1
 182 -1 146 1 109 1 c 0
 77 1 45 1 13 0 c 1
 12 10 l 1
 27.8823529412 10.625 65.3459762829 14.1127968377 72 15 c 0
 87 17 87 15.2953627914 87 52 c 0
 87 89.6712328767 87 124.328767123 87 162 c 3
 87 200 86.9820988508 239.683684899 87 277 c 0
 87.0467532468 374.460720131 86.9818181818 376 84 376 c 3
 79.1841269841 376 45.473015873 341 10 341 c 1
 9 352 l 1
 41.2777777778 359 71.5793650794 384 92 405 c 1x6780
 101 399 l 1
 101 373.647887324 101 352.098591549 101 309 c 1
 155.779661017 344.264705882 241.937853107 396 303 396 c 3x0b80
 349.010526316 396 385.294736842 364.0625 396 323 c 1
 446.926966292 355.666666667 514.483146067 386 581 386 c 3
 692.867924528 386 702 307 702 220 c 3
 702 184 702 149 702 113 c 3x1380
EndSplineSet
Substitution2: "case-1" M
Substitution2: "pcap-1" m.pcap
Substitution2: "smcp-1" m.smcp
EndChar
StartChar: n
Encoding: 110 110 13
Width: 485
VWidth: 1159
Flags: HMW
HStem: -10 16<188.625 212.375> -4 15<12 36.0376> 338 11<13 27.6289> 344 45<229.607 336.126> 379 20G<115 141>
VStem: 79 60<30.6838 318.111 320 325.711> 369 63<26.9973 308.316>
AnchorPoint: "Top" 247 491 basechar 0
LayerCount: 2
Back
SplineSet
98 300 m 1
 93.844678722 305.633232205 l 1
 159.66344674 354.184067193 242.891995008 401 313 401 c 0
 381.944219052 401 415.815542378 359.928982872 420 294 c 0
 424.000001631 230.977247037 425 170.090933564 425 106 c 2
 425 14 l 1
 418 14 l 1
 411 14 l 1
 411 106 l 2
 411 169.948258371 410.001182072 230.514810735 406.028113437 293.113215999 c 0
 402.170353154 353.894859541 374.346342836 387 313 387 c 0
 248.699012454 387 167.163997769 342.320043436 102.155321278 294.366767795 c 1
 98 300 l 1
475.057745854 4.72214250673 m 1
 474.648615989 -2.26589103311 l 1
 474.648615989 -2.26589103311 418.838839011 1 394 1 c 0
 366.976173027 1 330.280595047 -1.10500525459 301.182377501 -3.71805344686 c 1
 300.556290086 3.2538913714 l 1
 299.930202671 10.2258361897 l 1
 329.411486504 12.8732841065 366.291064764 15 394 15 c 0
 419.675727515 15 475.391068345 11.7146143567 475.466875718 11.7101760466 c 2
 475.057745854 4.72214250673 l 1
16.2975248786 357 m 1
 13.342204893 363.345556223 l 1
 38.5816641705 375.100345844 68.4131481592 393.52635505 90.8722883931 408.87153681 c 1
 94.8212890625 403.091796875 l 1
 98.7702897319 397.31205694 l 1
 75.8504526202 381.652104569 45.6746480049 362.959887166 19.2528448643 350.654443777 c 1
 16.2975248786 357 l 1
198.104195899 3.89378588909 m 1
 197.502635811 -3.08031802905 l 1
 169.461798351 -0.661620396378 135.212550737 1 105 1 c 0
 76.8008986486 1 44.3062530562 -0.595300288094 16.120007042 -1.62235173093 c 1
 15.8651099522 5.37300583488 l 1
 15.6102128624 12.3683634007 l 1
 43.6774119208 13.3910770063 76.2966111106 15 105 15 c 0
 135.718875674 15 170.244523831 13.322849112 198.705755986 10.8678898072 c 1
 198.104195899 3.89378588909 l 1
94.990234375 10.6318359375 m 1
 87.9902343801 10.6321020732 l 1
 88 400 l 1
 95 400 l 1
 102 400 l 1
 101.99023437 10.6315698018 l 1
 94.990234375 10.6318359375 l 1
EndSplineSet
Fore
SplineSet
88 380 m 0x46
 87.976359881 382.883991225 87.2059534893 386 85 386 c 3
 73.6869215197 386 32.2685942986 350.624449164 6 350 c 1
 6 361 l 1
 33.781512605 373 68.1428571429 394 93 411 c 1x6e
 102 406 l 1
 102 312 l 1
 157.713483146 351.985507246 243.061797753 401 313 401 c 3
 382 401 415.811776106 359.988323063 420 294 c 0
 424 230.977272727 425 170.090909091 425 106 c 3
 425 78.4137931034 425 53.5862068966 425 26 c 0
 425 19.1636363636 430.206024505 14.2782767741 434 14 c 0
 452.749915976 12.6247496488 479.548842774 11.7927053988 485 10 c 1
 484 -3 l 1
 457.296703297 -0.777777777777 421.692307692 1 394 1 c 3
 362.704761905 1 319.295238095 -1.72727272727 288 -5 c 1
 286 7 l 1
 292.774540137 10.9117525269 355.358510698 15.034328883 400 15 c 0
 410.999996748 14.9915411065 411 18.731469198 411 23 c 0
 411 76.6666666667 410 127.159226827 410 184 c 3
 410 269.693877551 409 326 386 356 c 0
 369.610607275 377.377468771 344.567567568 387 313 387 c 3
 241.992958096 387 169.894308943 341.828571429 102 294 c 1
 102 206.096 102 113.904 102 26 c 0
 102 19.1555555555 108.060606061 15 112 15 c 0
 148.136629352 15 206 10 206 10 c 1
 205 -4 l 1x96
 175 -1.22222222222 138 1 105 1 c 3
 73 1 37 -1 5 -2 c 1
 2 10 l 1
 13 13 68 15 83 15 c 0
 86.8903493822 15 88 20.7738888137 88 27 c 0
 88 81.4660194181 88 137.515085827 88 192 c 3
 88 259.656734397 88.4345703125 326.984320717 88 380 c 0x46
EndSplineSet
Substitution2: "case-1" N
Substitution2: "pcap-1" n.pcap
Substitution2: "smcp-1" n.smcp
EndChar
StartChar: o
Encoding: 111 111 566
Width: 492
Flags: HW
HStem: -4 21<213.737 312.228> 394 23<183.876 282.08>
VStem: 28 65<136.362 293.127> 399 65<114.357 282.92>
AnchorPoint: "Bottom" 254 -15 basechar 0
AnchorPoint: "Top" 251 432 basechar 0
AnchorPoint: "Horn" 420.5 341.8 basechar 0
AnchorPoint: "Ogonek" 341 19.6582 basechar 0
LayerCount: 2
Fore
SplineSet
256 410 m 3
 373 410 464 321 464 202 c 3
 464 80 374 -11 253 -11 c 3
 132 -11 28 79 28 198 c 3
 28 314 133 410 256 410 c 3
256 396 m 3
 139.886997741 396 42 305.248829206 42 198 c 3
 42 87.8271516775 138.596646544 3 253 3 c 3
 366.367380782 3 450 87.4001556796 450 202 c 3
 450 313.351766388 365.496819971 396 256 396 c 3
EndSplineSet
Substitution2: "case-1" O
Substitution2: "pcap-1" o.pcap
Substitution2: "smcp-1" o.smcp
EndChar
StartChar: p
Encoding: 112 112 648
Width: 503
Flags: HMW
HStem: -347 15<17 49.6684> -337 18<153.33 228> -7 29<195.26 316.269> 367 36<218.052 309.547>
VStem: 85 59<-184.603 10 47.4573 340.936> 416 61<124.101 253.463>
AnchorPoint: "Bottom" 294 -15 basechar 0
AnchorPoint: "Top" 233 497 basechar 0
LayerCount: 2
Fore
SplineSet
301 389 m 3
 246.876190476 389 166.39047619 352.35483871 110 318 c 1
 111 36 l 1
 146.533333333 22.4 189.622222222 8 234 8 c 3
 345.018016556 8 463 89.6901408451 463 208 c 3
 463 290.921182266 383.245508982 389 301 389 c 3
97 36 m 0xbc
 98 150.758754864 98 348 92 375 c 0
 90.3424567909 382.458944441 89.8947368421 390 82 390 c 3
 67 390 41 361 0 336 c 1
 -6 346 l 1
 12.9782608696 362 64.9927536232 397 91 427 c 1
 104.25 427 110 351.36 110 334 c 1
 162.371794872 363.764705882 238.666666667 403 300 403 c 3
 396 403 477 295 477 209 c 3
 477 90 362 -7 234 -7 c 3
 188.9 -7 147.9 7.17647058824 111 21 c 1
 112 -309 l 2
 112.02918453 -318.630894787 121.966568232 -324.630167034 131 -324 c 0
 157.95399849 -322.119704479 209.717523793 -324.195082674 228 -325 c 1
 228 -339 l 1
 208 -339 178 -337 158 -337 c 0x7c
 108 -337 64 -342 17 -347 c 1
 17 -334 l 1
 30.2205617111 -330.730077641 59.8143050188 -330.067240163 82 -327 c 0
 90.168514647 -325.870677875 98.1405566598 -321.356236402 98 -314 c 0
 97 -261.663551402 96.0214134493 -76.3013740858 97 36 c 0xbc
EndSplineSet
Substitution2: "case-1" P
Substitution2: "pcap-1" p.pcap
Substitution2: "smcp-1" p.smcp
EndChar
StartChar: q
Encoding: 113 113 675
Width: 479
Flags: HMW
HStem: -346 15<287 319> -338 16<435.085 499> -10 28<197.81 299.84> 380 32<199.547 320.077>
VStem: 31 64<113.259 268.403> 359 64<-318.836 32 36.2909 353.767>
AnchorPoint: "Top" 263 503 basechar 0
LayerCount: 2
Fore
SplineSet
396 68 m 1x3c
 396 144.600823045 396.002075488 220.469373927 396 295 c 0
 395.998148804 361.476338801 400.490474121 357.691725038 392 364 c 0
 360.524547048 387.385715444 322.764705882 398 285 398 c 3
 169.4 398 45 303.263157895 45 182 c 3
 45 86.2827225131 115.392857143 4 219 4 c 3
 279.72 4 329.44 25.4705882353 396 68 c 1x3c
396 52 m 1
 348.124137931 20.5238095238 291.2 -10 218 -10 c 3
 107 -10 31 80 31 182 c 3
 31 314 164 412 285 412 c 3
 360.745283019 412 389.858490566 377 402 377 c 3
 410.119047619 377 411 396 433 421 c 1
 445 415 l 1
 439.2 407.642857143 433.633395653 398.551649166 428 389 c 0
 410.538461538 359.393258427 410 346.698037359 410 298 c 0
 410 159.99787839 410 24 410 -114 c 0
 410 -182.057803468 410 -248.932081676 410 -317 c 0
 410 -323.857142857 415.598342435 -325.461498665 423 -325 c 0
 439.038307627 -324 484.925925926 -324 499 -324 c 1
 501 -338 l 1
 497 -338 481 -338 477 -338 c 0x7c
 414 -338 346 -342 287 -346 c 1
 287 -333 l 1xbc
 295.123315503 -330.452496911 371 -327 389 -326 c 0
 392.830415535 -325.787199137 396 -320.837953748 396 -313 c 2
 396 52 l 1
EndSplineSet
Substitution2: "case-1" Q
Substitution2: "pcap-1" q.pcap
Substitution2: "smcp-1" q.smcp
EndChar
StartChar: r
Encoding: 114 114 693
Width: 351
Flags: HMW
HStem: -6 12<41 65.1111> -5 23<168.453 276> 395 20G<299 321.5> 402 20G<143 160>
VStem: 100 64<18.0803 323.88>
AnchorPoint: "Bottom" 142 -15 basechar 0
AnchorPoint: "Top" 150.5 466 basechar 0
LayerCount: 2
Fore
SplineSet
140 199 m 0x28
 140 141.27388535 137.046875 85.0459252015 140 28 c 0
 140.55 17.375 143.304024029 11 151 11 c 0
 185.844444444 11 224.422222222 11 263 12 c 1
 264 -2 l 1
 214 -3 161.009433123 -5 108 -5 c 0x68
 81 -5 54 -6 28 -6 c 1
 28 6 l 1
 117 9 l 2
 123.081467968 9.39554263206 126 17.8578643763 126 32 c 0
 126 82.9731543624 126 131.865771812 126 187 c 3
 126 250.342227562 126.766517847 315.777755763 127 377 c 0
 127.04379888 388.484671126 124.771428571 393 121 393 c 0
 110.538461538 393 40.4615384615 336 19 336 c 1
 17 346 l 1
 42.7952755906 361 108.204724409 401 134 422 c 1x98
 140 422 141.057015853 417.960379223 141 413 c 2
 140 326 l 1
 174.302158273 345.301204819 282.568345324 413.927710843 289 415 c 1
 328 381.62745098 338 365.666666667 338 341 c 0
 338 335.729166667 331.473684211 331.145833333 326 330 c 1
 328 361.115288221 305 395 288 395 c 3
 277.21978022 395 140 312.393949637 140 301 c 3
 140 267.361702128 140 232.638297872 140 199 c 0x28
EndSplineSet
Substitution2: "case-1" R
Substitution2: "pcap-1" r.pcap
Substitution2: "smcp-1" r.smcp
EndChar
StartChar: s
Encoding: 115 115 709
Width: 341
Flags: HMW
HStem: -12 24<117.158 219.742> 375 22<139.721 212.745>
VStem: 27 12<99.8773 105.5> 47 55<268.488 340.402> 256 56<45.0788 127.078> 278 10<304.6 311.805>
AnchorPoint: "Bottom" 166 -15 basechar 0
AnchorPoint: "Top" 180.5 440 basechar 0
LayerCount: 2
Fore
SplineSet
39 108 m 1xf8
 61.2116788321 19.4375 72.9625058575 2 148 2 c 3
 220.45 2 286 37.234375 286 85 c 3xf8
 286 141.16 219.125617973 179.836367363 169 202 c 0
 124.707188638 221.584588464 59 238.853211009 59 305 c 3
 59 359.214285714 134.692307692 397 203 397 c 3
 229 397 252 394 274 390 c 1
 288 306 l 1
 278 304 l 1xf4
 260 378 270 383 203 383 c 3
 131 383 73 343.475409836 73 305 c 3
 73 250.328358209 127.248013971 235.219015134 174 215 c 0
 236.192307692 188.103448276 300 148.827586207 300 85 c 3
 300 22.0350877193 218.43902439 -12 148 -12 c 3
 109 -12 78 -3 48 9 c 1
 48 16.8536585366 50.3894214853 24.5197001801 48 32 c 0
 39.4 58.9230769231 31 81.8076923077 27 102 c 1
 39 108 l 1xf8
EndSplineSet
Substitution2: "case-1" S
Substitution2: "pcap-1" s.pcap
Substitution2: "smcp-1" s.smcp
EndChar
StartChar: t
Encoding: 116 116 19
Width: 346
Flags: HMW
HStem: -6 40<169.156 248.814> 364 28<149 310> 364 9<30 34.6045>
VStem: 81 65<56.2268 364> 151 10<471.112 477.4>
AnchorPoint: "Bottom" 174 -15 basechar 0
AnchorPoint: "Top" 143.5 508 basechar 0
AnchorPoint: "TopRight" 313 531 basechar 0
LayerCount: 2
Back
SplineSet
313.647874204 54.4006240353 m 1
 317.627103173 48.6416539175 l 1
 283.609933166 25.1370852973 227.478619867 -6 188 -6 c 0
 135.752203397 -6 110 35.9742060042 110 95 c 0
 110 219.730881513 111.865892038 343.409007111 119.851064933 468.800341702 c 1
 126.836914062 468.35546875 l 1
 133.822763192 467.910595798 l 1
 125.865966703 342.964856495 124 219.592210127 124 95 c 0
 124 39.3133712635 146.141543582 8 188 8 c 0
 221.16002956 8 276.570909838 37.2903198219 309.668645236 60.159594153 c 1
 313.647874204 54.4006240353 l 1
303 388.823926879 m 1
 303.131327558 381.825158911 l 1
 216.076017165 380.191619787 129.124131035 378 38.6259765625 378 c 1
 38.6259765625 385 l 1
 38.6259765625 392 l 1
 128.89686155 392 215.7521948 394.188007958 302.868672442 395.822694848 c 1
 303 388.823926879 l 1
EndSplineSet
Fore
SplineSet
27 387 m 1xb8
 153 406 100 358 124 478 c 1
 134 476 l 1
 130 392 l 1
 310 396 l 1
 310 382 l 1
 129 378 l 1xd8
 125.666666667 286.292682927 124.49942739 190.129090799 124 96 c 0
 123.706666667 40.7142857143 145.333333333 8 188 8 c 3
 227.71875 8 283.6875 44.0344827586 317 63 c 1
 323 52 l 1
 290.814569536 29 229.125827815 -6 188 -6 c 3
 136.571428571 -6 110 35 110 95 c 3
 110 189.68401487 111 283.31598513 115 378 c 1
 30 378 l 1
 27 387 l 1xb8
EndSplineSet
Substitution2: "case-1" T
Substitution2: "pcap-1" t.pcap
Substitution2: "smcp-1" t.smcp
EndChar
StartChar: u
Encoding: 117 117 811
Width: 512
Flags: HMW
HStem: -4 43<180.512 271.959> 26 15<488.103 509.867> 347 12<25 38.3301> 360 18<307 355.329> 387 26G<132 161 420.5 446>
VStem: 81 67<72.8435 345.445> 366 67<71.5641 319.205> 373 73<165.286 357.317>
AnchorPoint: "Bottom" 253 -15 basechar 0
AnchorPoint: "Top" 264 437 basechar 0
AnchorPoint: "Horn" 434.5 333 basechar 0
AnchorPoint: "Ogonek" 391.65 -3 basechar 0
LayerCount: 2
Fore
SplineSet
297 378 m 1xbd
 337.432835821 385 384.447761194 396 423 407 c 1
 428 402 l 1xbd
 424 317 415 227 415 141 c 3
 415 96.7450980392 415 69 419 19 c 0xbe
 419.563883874 11.9514515696 423.891934773 6.19166633277 432 10 c 2
 498 41 l 1
 502 26 l 1x7e
 466.166666667 13 423.590380088 -12 416 -12 c 3
 415.057190958 -12 413.53671428 -11.7450735905 412 -11 c 0
 403.75 -7 401.916666667 75.1470588235 401 90 c 1
 323.710526316 31 254.236842105 -4 203 -4 c 3
 152.333333333 -4 125.193314052 18.4622326038 108 55 c 0
 95.76530646 81.0001292002 91 111 91 144 c 3
 91 299.861172816 103 369.889229724 103 388 c 3
 103 388 102.470588235 390 100 390 c 3
 98 390 32.8 347 15 347 c 1
 12 359 l 1
 40.0412371134 370 79.7209302326 393 108 413 c 1
 119 408 l 1
 107.615384615 291.40201005 105 231.557788945 105 144 c 3
 105 32.9954955869 159.740692943 10 203 10 c 3
 266.400684652 10 356.231397459 71.4776119403 401 106 c 1xbe
 400 223 413 365.768554688 413 382 c 0
 413 394 370 376 296 363 c 1
 297 378 l 1xbd
EndSplineSet
Substitution2: "case-1" U
Substitution2: "pcap-1" u.pcap
Substitution2: "smcp-1" u.smcp
EndChar
StartChar: v
Encoding: 118 118 21
Width: 405
Flags: HMW
HStem: 379 11<160.5 188.286> 383 14<269 298.34>
AnchorPoint: "Bottom" 194 -15 basechar 0
AnchorPoint: "Top" 196 434 basechar 0
LayerCount: 2
Back
SplineSet
405 387 m 1x40
 366 366 356 345 344 314 c 0
 317 246.683417085 286 182.336683417 256 117 c 0
 236 74 211 12 199 -25 c 1
 186 -25 l 1
 147 104.026737968 99 237.085561497 45 352 c 0
 40 362 35 368 25 372 c 2
 0 382 l 1
 1 393 l 1x80
 21 393 45 390 65 390 c 0
 103 390 146 392 183 396 c 1
 184 384 l 1
 146 376 l 2
 135 374 127 368 127 356 c 0
 127 354 128 349 128 347 c 0
 148 248.637037037 183 162.318518519 216 76 c 1
 254 152.371428571 296 227.751020408 317 319 c 0
 318 325 320 332 320 339 c 0
 320 372 291 376 263 381 c 1
 264 395 l 1
 285 394 312 392 334 392 c 0
 356 392 382 394 403 395 c 1
 405 387 l 1x40
EndSplineSet
Fore
SplineSet
408 387 m 1x40
 394 377 359.271082365 381.081744607 358 374 c 0
 344 296.602316602 297.791717396 199.758160028 259 117 c 0
 239 74 214 12 202 -25 c 1
 189 -25 l 1
 154.425531915 109.160427807 85 261.731457801 64 367 c 0
 62.2240928645 375.879535677 58.8605285027 375.902418195 54 376 c 0
 14.152173913 376.8 3 380 3 380 c 1
 4 391 l 1x80
 24 391 48 390 68 390 c 0
 106 390 149 392 186 396 c 1
 187 384 l 1
 187 384 148.007838686 377.273813074 89 376 c 0
 78.9636025251 375.783342441 78 374.4 78 372 c 0
 78 369.555555556 79.3983724975 363.584770011 80 361 c 0
 107 244.676880223 162 126.348189415 196 1 c 1
 241 129.295081967 316 248.639344262 342 365 c 0
 342.5859375 367.635705062 342 370.85 342 374 c 3
 342 380.5 312 376 266 381 c 1
 267 395 l 1
 288 394 315 392 337 392 c 0
 359 392 385 394 406 395 c 1
 408 387 l 1x40
EndSplineSet
Substitution2: "case-1" V
Substitution2: "pcap-1" v.pcap
Substitution2: "smcp-1" v.smcp
EndChar
StartChar: w
Encoding: 119 119 22
Width: 645
VWidth: 1159
Flags: HMW
HStem: 371 15<-1 31.5327> 378 13<242 270.92> 389 11<411.766 427.091 512.2 519.347>
AnchorPoint: "Top" 303 498 basechar 0
LayerCount: 2
Back
SplineSet
645 383 m 1
 613 366.538461538 617.22141894 385.289786108 607 366 c 0
 568.008149849 292.271475763 530.384529582 209.473525288 495 129 c 0
 474.606551123 81.5988938475 453.044925884 32.4804542074 434 -14 c 0
 429.402049778 -25.1740258529 417.726127973 -17.07284699 416 -10 c 0
 390 95.8219178082 357 200.585616438 326 299 c 1
 297.210779039 239.36809816 255.255226403 152.367477632 241 119 c 0
 221.178396244 75.3924717372 202.395613857 31.9913426431 186 -15 c 0
 183.89246109 -20.9630763654 169.851856557 -24.0138779425 169 -14 c 0
 161.838709677 68.2330097087 86.8662390778 259.888534004 58 371 c 0
 61.1576338815 379.995896823 57.6525016035 382.456068577 49 378 c 0
 34.4679066741 385.635045202 24.9285714286 378.142857143 -2 381 c 1
 -1 395 l 1
 25 393 52.9214674638 391 85 391 c 3
 102.812085167 391 120.604395604 393 139 398 c 1
 140 384 l 1
 127 385 88.9236286618 379.329784909 81 377 c 0
 72 376.64 73 376.12 73 375 c 1
 73 373 74.9243085179 370.227865025 76 368 c 0
 110.4475 242.491506849 148 130.296 177 14 c 1
 169 2 328.708007812 337.521484375 322 319 c 1
 305 367 l 1
 300.832018076 381.263058892 298.343811382 372.456431204 289 377 c 0
 286.867521586 376.868195098 258.6875 381.5 242 381 c 1
 241 394 l 1
 245.976190476 394 254.568404233 391 260 391 c 3
 306.657342657 391 356.23076923 393.4 399 397 c 1
 401 384 l 1
 376 380.055555556 332.203624804 376.996348691 324 377 c 0
 319.9832046 377.682902503 318 375.578947368 318 374 c 1
 318 372.461538462 319.084879538 371.744898128 320 370 c 0
 357.151898734 244.392712551 396.367088608 124.696356275 427 5 c 1
 477.019591837 122 529.570063248 234.007375953 582 358 c 0
 583.99373965 359.402516056 589 359.875 589 361 c 1
 589 375.870535714 573.375 374.111328125 523 382 c 1
 525 396 l 1
 548 392 574 391 597 391 c 3
 614 391 625 394 642 394 c 1
 645 383 l 1
EndSplineSet
Fore
SplineSet
645 383 m 1xa0
 630 376 612 385 603 366 c 0
 567.496360071 291.047871261 529.548273082 209.301589479 495 129 c 0
 474.606551123 81.5988938475 453.112239074 32.4469259624 434 -14 c 0
 429.402049778 -25.1740258529 417.737031409 -17.0698459593 416 -10 c 0
 390 95.8219178082 357 200.585616438 326 299 c 1
 297.210779039 239.36809816 256 152 241 119 c 0
 221.178396244 75.3924717372 202.57728083 31.9038037824 186 -15 c 0
 183.89246109 -20.9630763654 169.871896996 -24.0119826023 169 -14 c 0
 161.838709677 68.2330097087 92.5362490833 259.786614346 58 371 c 0
 55.8786009117 377.831314378 54.6051531755 377.960945676 52 378 c 0
 36.1176470588 378.238095238 18.4117647059 379.142857143 -2 381 c 1
 -1 395 l 1
 25 393 52.9214674638 391 85 391 c 3xa0
 115.01666204 391 145 393 176 398 c 1
 177 384 l 1
 146 378 106 377 77 377 c 0
 74.7548559946 377 73 376.12 73 375 c 0
 73 373 73.3001486077 370.279003252 74 368 c 0
 113 241 161 113 180 10 c 1
 223.096986972 122.29994568 272.203209198 217.04901945 320 318 c 1
 302 373 l 6
 300.714001137 375.20548805 299.021719987 377 297 377 c 0
 286.6875 377 259.1875 378.5 242 381 c 1
 241 394 l 1x40
 255.142857143 394 279.562833082 391 295 391 c 3
 338.972027972 391 385.692307692 393.4 426 397 c 1
 428 384 l 1
 398.88 380.055555556 344.70835231 376.996348691 324 377 c 0
 320.666888027 377.000587696 318 375.578947368 318 374 c 0
 318 369.769230769 318.786880661 366.722223424 320 363 c 0
 360.151898734 239.801619433 396.367088608 122.400809717 427 5 c 1
 476 124 525.423246144 234.482000028 584 358 c 0
 586.395353885 363.050968201 589 368 589 374 c 0
 589 378.25 561.375 374.75 511 382 c 1
 513 396 l 1
 536 392 565 391 588 391 c 3
 605 391 625 394 642 394 c 1
 645 383 l 1xa0
EndSplineSet
Substitution2: "case-1" W
Substitution2: "pcap-1" w.pcap
Substitution2: "smcp-1" w.smcp
EndChar
StartChar: x
Encoding: 120 120 2310
Width: 421
Flags: HW
HStem: -5 15<3 21.5156 109.948 146 224 256.8 384.401 405> 375 15<10 56.3008 162.335 192 253 299.566>
AnchorPoint: "Bottom" 202 -15 basechar 0
AnchorPoint: "Top" 200 434 basechar 0
LayerCount: 2
Fore
SplineSet
7 11 m 1
 43.4651162791 13.875 44.5580153719 12.3007530983 56 26 c 2
 203 202 l 1
 176.461538462 251.511450381 138.511287134 305.141472982 113 343 c 0
 92.2820466979 373.745261528 92.064516129 378.393048128 15 378 c 1
 14 392 l 1
 30 392 51 392 67 392 c 0
 110 392 155 394 197 394 c 1
 197 380 l 1
 126.566666667 378.384615385 114 379.384615385 114 372 c 0
 114 366.090909091 115.741603419 363.640000913 119 359 c 0
 149.172413793 316.034073641 180.586206897 265.65371128 213 212 c 1
 330 353 l 2
 334.69883592 358.662699698 341 364.707317073 341 373 c 0
 341 380.692307692 325 377 258 381 c 1
 258 395 l 1
 279 394 306 392 327 392 c 0
 354 392 387 394 413 396 c 1
 413 383 l 1
 376.78125 380.363636364 366.379094013 376.083925826 359 367 c 0
 312.155963303 309.333333333 270.549204673 257.024390244 221 200 c 1
 255.285714286 142.715116279 291.698296242 81.4259347168 326 33 c 0
 343 9 350.933333333 15.6206896552 411 12 c 1
 410 -2 l 1
 380 -0.6 344 0 312 0 c 0
 286 0 255 -2 229 -3 c 1
 227 11 l 1
 301.975609756 15.0606060606 313 13 313 21 c 0
 313 23 312.180988284 25.101246021 311 27 c 0
 275.173913043 84.6 242.304347826 138.6 212 189 c 1
 168.761904762 140.978582356 125.667574837 88.7119939817 88 43 c 0
 82.6424407559 36.4982616486 74 29 74 19 c 0
 74 11.7307692308 77.0833333333 16.5274725274 151 10 c 1
 152 -3 l 1
 132 -2 105 0 85 0 c 0
 60 0 31 -1 8 -3 c 1
 7 11 l 1
EndSplineSet
Substitution2: "case-1" X
Substitution2: "pcap-1" x.pcap
Substitution2: "smcp-1" x.smcp
EndChar
StartChar: y
Encoding: 121 121 24
Width: 441
VWidth: 1159
Flags: HMW
HStem: 381 11<-1 20 158 179 420.98 437> 384 16<273.812 305.84>
AnchorPoint: "Top" 208.5 485.3 basechar 0
LayerCount: 2
Back
SplineSet
197.404296875 -15.6318359375 m 1
 190.634597709 -17.412614755 l 1
 190.005367237 -15.0205709166 l 2
 154.325372472 117.270107345 109.388287614 251.825747605 61.4594646316 377.505727141 c 1
 68 380 l 1
 74.5405353684 382.494272859 l 1
 122.621773462 256.414627176 167.687358331 121.490495851 203.528029408 -11.3959218002 c 2
 204.173996041 -13.85105712 l 1
 197.404296875 -15.6318359375 l 1
21.9533726504 384.732027569 m 1
 22.0872233827 391.730747736 l 1
 38.7392693345 391.41227686 53.9580552922 391 68 391 c 0
 98.2959873268 391 132.936008084 392.463622249 162.646927154 394.072848007 c 1
 163.025511661 387.083093092 l 1
 163.404096168 380.093338177 l 1
 133.557465626 378.47676191 98.7344271622 377 68 377 c 0
 53.685552746 377 38.4029324249 377.41614918 21.819521918 377.733307402 c 1
 21.9533726504 384.732027569 l 1
280.812574194 391.931960961 m 1
 282.111564629 398.81037821 l 1
 311.551324847 393.250673767 345.109744099 389 376 389 c 0
 390.011456856 389 410.368847301 390.941958202 424.950482528 391.663009029 c 1
 425.296204803 384.671551662 l 1
 425.641927079 377.680094296 l 1
 411.551136487 376.983315365 391.117130081 375 376 375 c 0
 343.849419152 375 309.578197761 379.37583551 279.513583759 385.053543712 c 1
 280.812574194 391.931960961 l 1
395 381 m 1
 401.704202474 378.986627409 l 1
 392.950986191 349.839844282 378.90058716 321.977199342 364.253605761 292.854779024 c 0
 319.869976516 204.607332613 275.019499967 116.428972155 232 28 c 0
 178.72091766 -81.5181136996 125.432879782 -197.350079863 94.2308074807 -337.388725738 c 2
 92.9809794037 -342.998104172 l 1
 87.235603515 -342.864490779 l 2
 73.0533060717 -342.534669909 50.1017791919 -342 45 -342 c 0
 33.7118510312 -342 20.011186592 -342.025715187 7.65423554646 -342.428507223 c 1
 7.42618191773 -335.432223099 l 1
 7.19812828901 -328.435938975 l 1
 19.8619686954 -328.023143453 33.6836791794 -328 45 -328 c 0
 50.3524528455 -328 66.0504435927 -328.369403994 81.8298320635 -328.735020406 c 1
 113.593829637 -189.89153152 166.76254222 -74.0967111529 219.410708758 34.1245200639 c 0
 262.503023662 122.703167367 307.381745093 210.935512471 351.746394239 299.145220976 c 0
 366.400061336 328.280934388 380.027253248 355.480468218 388.295797526 383.013372591 c 1
 395 381 l 1
EndSplineSet
Fore
SplineSet
93 -343 m 1x80
 93 -343 51 -342 45 -342 c 0
 30 -342 11 -342 -4 -343 c 1
 -2 -329 l 1
 131.333333333 -328.019230769 45 -335 192 -23 c 1
 156.722222222 108.538461538 112.529951303 244.214292468 65 367 c 0
 62.6678037366 373.024840347 59.8620982646 376.940106308 56 377 c 0
 35.9563658732 377.310838092 7.11330631737 378.271963918 -1 381 c 1
 -1 392 l 1x80
 20 392 47 391 68 391 c 0
 104 391 145 393 179 395 c 1
 179 383 l 1
 171.605707118 379.391386101 125.06306396 377.657035362 88 377 c 0
 82.8136624401 376.908059215 81 375.703703704 81 372 c 0
 81 367.285714286 82.1183240563 361.949625852 84 357 c 0
 130 236 166 120 201 -3 c 1
 270 140 354 299 379 357 c 0
 380.677662528 360.892177065 381 365.324324324 381 371 c 0
 381 377.923076923 336 372 273 387 c 1
 276 400 l 1x40
 306 394 343 389 376 389 c 0
 394 389 419 392 437 392 c 1
 441 381 l 1
 421 375 401 379 398 368 c 0
 389.321113152 336.17741489 315 202 232 28 c 0
 178.855202378 -83.4119853771 124 -200 93 -343 c 1x80
EndSplineSet
Substitution2: "case-1" Y
Substitution2: "pcap-1" y.pcap
Substitution2: "smcp-1" y.smcp
EndChar
StartChar: z
Encoding: 122 122 25
Width: 441
VWidth: 1159
Flags: HMW
HStem: 1 24<125 203.889 257.601 340.965> 374 20<92.9061 311> 383 20G<36 62 380.5 419>
VStem: 418 15<101.5 122>
AnchorPoint: "Top" 213.5 441 basechar 0
LayerCount: 2
Back
SplineSet
23.084316062 313.103072284 m 1
 10.4283151313 319.088524685 l 1
 21.599968079 342.710540305 32.8312291722 369.07827416 36.3570060794 396.123511446 c 0
 37.2463209094 402.945193938 l 1
 44.0824262588 402.174547103 l 0
 93.126005485 396.645773454 145.442501047 394 198 394 c 0
 269.488467476 394 341.930731167 396.900018004 409.416815949 400.632351416 c 0
 427.441081248 401.629187546 l 1
 414.800856998 388.741497577 l 0
 290.986024046 262.502662797 152.838669854 122.099100146 38.9666838149 10.1001526736 c 1
 74.7016606309 12.0182268683 110.811907817 14.1622017793 146.674506612 14.9962157048 c 0
 217.890621905 16.6524044325 291.386700689 15.994671167 360.304241347 13.9970612929 c 0
 370.962140558 13.6881366781 382.067769577 13.2874372167 391.247197261 12.7103973586 c 1
 401.690822221 43.9224687507 415.700048963 92.1882420221 418.566221115 115.842042999 c 1
 432.464561101 114.157957001 l 1
 429.132931502 86.662852287 413.556136552 34.6040949759 402.7749526 3.09892303221 c 0
 401.030231947 -1.99956377762 l 1
 395.6550782 -1.61701952248 l 0
 382.306210901 -0.666994139277 372.623230769 -0.365890746937 359.898614605 0.00293870709844 c 0
 291.181076085 1.99475141782 217.907217028 2.64900504715 147 1 c 0
 106.325395911 0.0540789746827 62.5290618407 -2.7486864044 24.234164994 -4.69012667555 c 0
 18.0019497918 -5.00608192203 l 1
 15.9750270168 7.14436788291 l 1
 18.5775926897 9.6973326243 l 0
 131.214595619 120.187646107 267.74867154 258.837564876 392.192037337 385.685344212 c 1
 330.845654901 382.484013414 263.408017393 380 198 380 c 0
 147.33440173 380 96.9987150502 382.423515751 49.2106316056 387.527537937 c 1
 44.5460766083 361.071442716 33.583287973 335.302730619 23.084316062 313.103072284 c 1
EndSplineSet
Fore
SplineSet
360 0 m 0xd0
 291 2 218.028163428 1 147 1 c 3
 103.988373665 1 59 -3 18 -5 c 1
 16 7 l 1
 144 133 273 264 392 386 c 1
 313.629032258 381 264.370967742 380 199 380 c 3xd0
 148.80794702 380 100.167634879 381.803121958 56 387 c 0
 41.6158925417 388.69247125 56 387 21 306 c 1
 8 314 l 1
 20 339 35 372 37 403 c 1xb0
 87 397 143 394 198 394 c 3
 272 394 345 397 416 401 c 1
 419 394 l 1
 295.244897959 266.68119891 154.731292517 124.623978202 40 11 c 1
 75.6666666667 11 111.333333333 15 147 15 c 3
 246.364690549 15 346.841557484 15.2099592439 382 13 c 0
 387.879071777 12.6304583454 393.260183943 18.7353776572 395 24 c 0
 404.375 52.3684210526 413.75 83.3157894737 420 122 c 1
 433 122 l 1
 433 99 413 32 401 -2 c 1
 387 -1 373.994122586 -0.405626741617 360 0 c 0xd0
EndSplineSet
Substitution2: "case-1" Z
Substitution2: "pcap-1" z.pcap
Substitution2: "smcp-1" z.smcp
EndChar
StartChar: braceleft
Encoding: 123 123 336
Width: 266
Flags: HW
HStem: -229.7 21<197.543 239.5> 235.3 16<11.5 41.5001> 695.3 21<197.543 239.5>
VStem: 101.5 45.5<-159.03 69.3675 417.232 645.63> 124 46<-23.0005 161.342 325.258 509.6>
LayerCount: 2
Back
SplineSet
232.482802901 -215.885762897 m 1
 232.517197099 -229.885720648 l 1
 164.450215259 -230.052943243 101.5 -185.73340762 101.5 -39.7001953125 c 0
 101.5 20.337815871 124 52.4866787495 124 99.599609375 c 0
 124 167.016781057 89.4876108995 219.972450518 17.1407813133 234.292890639 c 0
 11.5 235.409435365 l 1
 11.5 251.190170323 l 1
 17.1408567732 252.306665569 l 0
 90.7230107517 266.870787373 124 320.11608945 124 387 c 0
 124 434.112373012 101.5 466.261270795 101.5 526.299804688 c 0
 101.5 673.038056359 165.387251073 716.650641308 232.517197092 716.485720827 c 1
 232.482802908 702.485763076 l 1
 174.021782908 702.629386304 115.5 668.408030292 115.5 526.299804688 c 0
 115.5 470.50458738 138 439.13380387 138 387 c 4
 138 321.107331599 107.361683335 264.991012046 38.5760732514 243.289933496 c 5
 104.910509807 222.312139731 138 166.620384476 138 99.599609375 c 4
 138 47.4650712199 115.5 16.0946644864 115.5 -39.7001953125 c 4
 115.5 -181.193193183 173.158352833 -216.0315074 232.482802901 -215.885762897 c 1
EndSplineSet
Fore
SplineSet
239.5 716.3 m 1xf0
 239.5 716.3 239.5 708.369880859 239.5 703.299804688 c 1
 200.208067796 701.95550089 115.5 698.429191576 115.5 526.299804688 c 3xf0
 115.5 470.50458738 138 439.13380387 138 387 c 0
 138 321.107331599 107.361683335 264.991012046 38.5760732514 243.289933496 c 1
 104.910509807 222.312139731 138 166.620384476 138 99.599609375 c 0
 138 47.4650712199 115.5 16.0946644864 115.5 -39.7001953125 c 3
 115.5 -213.836459579 202.208067796 -215.355887512 239.5 -216.700195312 c 1
 239.5 -229.7 l 1
 169.237486486 -233.096000084 101.5 -190.991999045 101.5 -39.7001953125 c 3xf0
 101.5 20.2272067041 124 52.5951077933 124 99.599609375 c 3
 124 168.330469778 88.3750365854 222.782154887 11.5 235.299804688 c 1
 11.5 251.299804688 l 1
 88.3750365854 263.816485145 124 318.269405761 124 387 c 3xe8
 124 434.003934096 101.5 466.371888713 101.5 526.299804688 c 3
 101.5 677.59196021 169.237486486 719.696003491 239.5 716.3 c 1xf0
EndSplineSet
Position2: "cpsp-1" dx=0 dy=0 dh=50 dv=100
Position2: "'case' vertical ajustments for all-caps-1" dx=0 dy=90 dh=0 dv=0
EndChar
StartChar: cent
Encoding: 162 162 250
Width: 408
UnlinkRmOvrlpSave: 1
Flags: HW
HStem: -9 63<150.253 274.436> 370 51<159.213 276.324>
VStem: 25 62<120.66 283.256>
LayerCount: 2
Fore
SplineSet
25 182 m 3
 25 250.094412951 43.1224872885 293.67194765 89 342 c 0
 137.697530864 393.298701299 181.073948583 421 250 421 c 3
 301.098699568 421 325.166666667 396.043478261 373 380 c 1
 345.5 352.4 330.5 335.6 303 308 c 1
 289.982142857 334.014693878 272.142857143 370 222 370 c 3
 188.763926852 370 165.097196111 369.406308971 143 349 c 0
 92.8947368421 302.728813559 87 258.918913519 87 193 c 3
 87 132.155229142 135.729226873 54 220 54 c 3
 280.78767951 54 323.25 103.757142857 351 135 c 1
 359.25 129 364.75 125 373 119 c 1
 337.981818182 69.5454545455 287.929788204 -9 199 -9 c 3
 76.6141371125 -9 25 110.179231167 25 182 c 3
EndSplineSet
Refer: 778 58113 N 0.0181668 0.693762 -0.968418 0.0253589 189.417 -147.881 2
Position2: "'lnum-2' vertical adjustment" dx=0 dy=125 dh=0 dv=0
EndChar
StartChar: copyright
Encoding: 169 169 875
Width: 770
VWidth: 1159
Flags: HW
HStem: 0 40.7334<274.879 492.407> 157.127 45.76<338.543 468.783> 484.487 52.8<324.463 446.783> 640.886 40.733<277.384 494.912>
VStem: 37.4082 41.5371<228.497 441.891> 205.663 62.48<275.047 418.487> 690.846 41.545<239.728 448.282>
LayerCount: 2
Fore
SplineSet
384.893 640.886 m 0
 226.034 640.886 78.9453 511.441 78.9453 334.926 c 0
 78.9453 158.406 220.152 40.7334 384.893 40.7334 c 0
 543.755 40.7334 690.846 170.179 690.846 346.693 c 0
 690.846 511.442 549.637 640.886 384.893 640.886 c 0
384.896 681.619 m 0
 572.009 681.619 732.391 534.6 732.391 347.494 c 0
 732.391 147.017 565.326 0 384.896 0 c 0
 197.787 0 37.4082 133.65 37.4082 334.125 c 0
 37.4082 534.598 204.47 681.619 384.896 681.619 c 0
EndSplineSet
Refer: 2 99 S 0.88 0 0 0.88 175.743 170.327 2
EndChar
StartChar: degree
Encoding: 176 176 1212
Width: 307
Flags: HW
HStem: 450.961 38.8428<87.4308 206.876> 706.86 38.8428<86.6769 208.358>
VStem: 0.241211 38.8145<537.951 659.417> 255.947 38.8154<537.367 660.146>
LayerCount: 2
Fore
SplineSet
147.408203125 489.803710938 m 0
 205.032555362 489.803710938 255.947265625 537.284730775 255.947265625 599.026367188 c 0
 255.947265625 659.998122602 208.002910159 706.860351562 147.310546875 706.860351562 c 0
 87.3479364782 706.860351562 39.0556640625 658.774931019 39.0556640625 598.756835938 c 0
 39.0556640625 538.628016177 88.7485816207 489.803710938 147.408203125 489.803710938 c 0
147.376953125 450.9609375 m 0
 67.7209799365 450.9609375 0.2412109375 517.25500347 0.2412109375 598.8984375 c 0
 0.2412109375 680.403073513 65.820211378 745.703125 147.247070312 745.703125 c 0
 229.660015085 745.703125 294.762695312 682.06127958 294.762695312 599.2578125 c 0
 294.762695312 515.4282111 225.625352612 450.9609375 147.376953125 450.9609375 c 0
EndSplineSet
EndChar
StartChar: paragraph
Encoding: 182 182 651
Width: 605
UnlinkRmOvrlpSave: 1
Flags: HW
HStem: -8 21G<335.141 438> 695 46<385.865 530>
VStem: 306 32<235.8 673>
LayerCount: 2
Fore
SplineSet
306 688 m 1
 321 695 l 1
 312 31 l 1
 298 37 l 1
 306 688 l 1
530 741 m 1
 532 727 l 1
 488.534883721 723.1875 332.124057728 707.580554817 243 654 c 0
 185.344070169 619.538150668 109 508.033203125 109 372 c 3
 109 297 98.1733888609 166.152278481 221 79 c 0
 263 49 368 19.1666666667 437 6 c 1
 434 -8 l 1
 236.281690141 35.3043478261 198.127690704 69.4064209227 144 131 c 0
 86 197 68.718337988 279.143475457 41 343 c 0
 36.5415585383 353.271199404 34.3184777375 362.45888078 34.3184777375 371.792270339 c 0
 34.3184777375 380.414173878 36.2155452277 389.160417592 40 399 c 0
 70 477 121.142297883 586.795128918 222 657 c 0
 324 728 530 741 530 741 c 1
EndSplineSet
Position2: "cpsp-1" dx=0 dy=0 dh=50 dv=100
EndChar
StartChar: AE
Encoding: 198 198 2376
Width: 1048
Flags: HW
HStem: -9 35<449 500.854> -5 39<22.5469 80.8864> 3.06988 37.3024<636.857 887.73> 247 42<296.875 529.631> 334 36<608 868.393> 661 31<394.871 460.439>
VStem: 525 93<373.564 639.016> 529.631 78.3691<90.5 243.369 285.991 334 370 605.156> 892 36<248.75 306.348 394.846 442.094> 933 30<539 620.59> 993 28<152.034 171.75>
AnchorPoint: "Top" 564 699 basechar 0
AnchorPoint: "Bottom" 560 -15 basechar 0
LayerCount: 2
Fore
SplineSet
522 689 m 1
 442 556 334 386 259 273 c 1
 321 271 475 268 531 267 c 1
 534.876834951 391.058718431 534.084858622 563.952857068 535 678 c 0
 535.040497125 683.04685019 528 687 522 689 c 1
436 704 m 1
 485 704 571 703 655 703 c 0
 793 703 923 704 950 708 c 0
 955 706 956 704 956 698 c 0
 956 686 948 656 939 562 c 1
 925 563 l 1
 937 681 943 685 936 688 c 0
 921.150757595 694.363961031 805 689 740 689 c 0
 690 689 593 689 559 689 c 0
 553.900980486 689 549 687.099019514 549 682 c 0
 549 623 546 433 546 367 c 1
 596 367 827 367 881 367 c 0
 901.305892876 367 888 370 899 453 c 1
 912 451 l 1
 909 426 907 386 907 345 c 0
 907 308 909 271 911 246 c 1
 897 245 l 1
 888 351 900.413812651 353 881 353 c 0
 795 353 619 353 546 353 c 1
 546 274 544 83 543 23 c 0
 542.8984375 16.91796875 545.881147192 11.8127794178 550 12 c 0
 572 13 686 14 752 14 c 0
 915 14 953.802439268 6.2419514146 966 16 c 0
 976 24 972 20 1021 165 c 1
 1034 161 l 1
 1023 125 988 19 977 -6 c 1
 968 -3 838 0 711 0 c 0
 596 0 476 -2 432 -9 c 1
 430 5 l 1
 519 16 528.339240991 3.6405315443 529 22 c 0
 530.870619849 73.9759634964 529 182 531 253 c 1
 469 254 318 257 250 259 c 1
 214 202 129.103241762 78.8774425636 90 22 c 0
 79 6 106 20 221 3 c 1
 219 -10 l 1
 181 -5 126 -1 77 -1 c 0
 55 -1 33 -2 16 -4 c 1
 14 9 l 1
 67 15 62.4792629502 7.65152551981 74 24 c 0
 179 173 408 519 505 689 c 1
 484 689 458 689 436 689 c 1
 436 704 l 1
EndSplineSet
Position2: "cpsp-1" dx=0 dy=0 dh=50 dv=100
Substitution2: "c2pc-1" ae.pcap
Substitution2: "c2sc-1" ae.smcp
EndChar
StartChar: germandbls
Encoding: 223 223 327
Width: 579
Flags: HW
HStem: -9 40<37 88.8477 173.148 208.525 365.019 460.981> 356 30<40 95.2842> 705 51<244.321 344.378>
VStem: 100 65<36.3341 356 396.595 588.58> 276 67<305.481 354.885> 301 22<88.2815 107.227> 396.559 58.286<487.211 649.856> 477 62<53.3627 166.162>
LayerCount: 2
Fore
SplineSet
312 756 m 0xfb
 411.877 756 454.845 679.623 454.845 588.779 c 0
 454.845 446.016 343 385.103 343 345 c 0xfb
 343 322 360.358 300 417 276 c 1
 495.85 246.667 539 186.985 539 128 c 0
 539 33.1543 458.812 -9 408 -9 c 0
 365.699560976 -9 332.401317073 2 300 16 c 1
 304 30 306 44 306 59 c 0
 306 68.3555 304.571 95.6445 301 105 c 1
 323 112 l 1xf7
 342.104493506 56.8506 380.314818182 31 426 31 c 0
 451.5 31 477 56.9092 477 106 c 0
 477 163.711 429.343 194.988 396 212 c 0
 347 237 276 253 276 324 c 0
 276 346 396.559 432.484 396.559 571.703 c 0
 396.559 648.474 347.395 705 278 705 c 0
 190.602 705 180.067 591.244 171 454 c 1
 167.34 417.394 165 295.325 165 249 c 0
 165 182.096 166.167 119.272 172 54 c 0
 172.739 39 177.174 34 189 33 c 0
 196.534 32 203.466 32 211 31 c 1
 208 -6 l 1
 182.625 -1 146.375 1 121 1 c 0
 97.2266 1 60.7734 -2 37 -6 c 1
 36 30 l 1
 47 31 61 31 72 33 c 1
 89.5947 40 91.8652 53 93 81 c 1
 97.375 120.633 100 172.459 100 222 c 0
 99.4055 259.124 99.1645 308.001 99.0667 356 c 1
 40 356 l 1
 40 386 l 1
 59.9402 389.935 79.0951 397.74 99.0097 401.801 c 1
 99 418.369 99 434.298 99 449 c 0
 99 579.533 140.062 647.199 205 704 c 0
 235.911 731 265.237 756 312 756 c 0xfb
EndSplineSet
MultipleSubs2: "case-2" S S
Substitution2: "pcap-1" uni1E9E.pcap
Substitution2: "case-1" uni1E9E
Substitution2: "smcp-1" uni1E9E.smcp
EndChar
StartChar: ae
Encoding: 230 230 322
Width: 605
VWidth: 1159
Flags: HW
HStem: -9 43<55.5195 159.444> -8 50<352.222 471.185> 370 52<125.933 201.869 343.725 424.068>
VStem: 20.5195 62<43.6209 136.135> 33.5195 77<309.417 362.65> 232.563 66.1328<101.524 187.689>
AnchorPoint: "Top" 298 429 basechar 0
LayerCount: 2
Back
SplineSet
286 280 m 1
 292.982210899 279.50127065 l 1
 291.817649607 263.197412565 287.138437951 270.511509723 287.138437951 190.175993258 c 0
 287.138437951 76.835264524 338.778726266 7 403 7 c 1
 403 0 l 1
 403 -7 l 1
 326.67760238 -7 273.138437951 74.2663968041 273.138437951 190.175993258 c 0
 273.138437951 269.774388308 278.182350393 268.802587435 279.017789101 280.49872935 c 1
 286 280 l 1
543.937913106 52.4774891947 m 1
 548.041931007 46.8067716853 l 1
 508.282271289 18.0318671109 456.051047565 -7 403 -7 c 1
 403 0 l 1
 403 7 l 1
 451.662290924 7 501.5255329 30.4236366857 539.833895206 58.1482067042 c 1
 543.937913106 52.4774891947 l 1
299 73 m 1
 302.761007517 67.0962027088 l 1
 237.415719344 25.4680593451 164.708320001 -17 91 -17 c 0
 41.1462955929 -17 32 17.0736340281 32 64 c 0
 32 86.984821583 38.7825953349 106.391394334 42.0076128181 119.02289268 c 2
 42.0942865508 119.362369634 l 1
 42.2144254461 119.691495118 l 2
 43.9705736933 124.502536037 48.7910993373 129.36690308 54 132 c 0
 115.72081437 162.006928497 182.383188827 181.152637117 253 203 c 2
 257.927740179 204.52453964 l 1
 259.996642926 197.837265051 l 1
 262.065545674 191.149990463 l 1
 257.137805494 189.625450823 l 2
 186.21135256 167.682291262 121.883816028 149.310555594 60.3028355651 119.498008846 c 1
 60.3028355651 119.498008846 56.8577868381 116.479516982 55.3040673982 114.518646581 c 0
 51.9127561415 101.661976844 46 83.7466390947 46 64 c 0
 46 17.5254488347 52.2462105498 -3 91 -3 c 0
 159.385249027 -3 229.992483781 37.3385812799 295.238992483 78.9037972912 c 1
 299 73 l 1
296.470628688 324.959918374 m 1
 331.158930215 383.084491335 391.198492294 396 423 396 c 0
 482.07371581 396 525.009043887 355.783721002 551 309 c 0
 553.845239818 303.878568327 559.022739522 295.572951057 564.119100933 286.399500518 c 1
 558 283 l 1
 551.880899067 279.600499482 l 1
 546.977260478 288.427048943 541.923168093 296.510533038 538.761798134 302.200998963 c 0
 514.058713472 346.666551356 475.013594154 382 423 382 c 0
 391.418270047 382 326.07823066 365.330752883 299.589202834 299.751720656 c 0
 296.924859955 293.155592301 294.639173361 286.045253666 292.808812429 278.375169761 c 1
 291.836124939 278.607288367 278.959068965 280.652142749 279.191187571 281.624830239 c 0
 281.134924678 289.770014307 282.29913481 297.368836546 282.805600933 304.446474569 c 0
 286.829255322 360.6752489 249.528745818 386.333507459 222.667815674 392.540411123 c 0
 218.330476865 393.542663987 214.329416134 394 211 394 c 0
 190.263652627 394 124.248609856 377.483847112 78.2890700754 343.71765462 c 0
 66.2493695168 334.872160331 63 328.522214029 63 320 c 0
 63 313.369368933 63.2163957727 311.936040806 65.6549993821 304.446044005 c 1
 58.9988993617 302.278941673 l 1
 52.3427993413 300.111839341 l 1
 49.7888096054 307.956236387 49 312.691073791 49 320 c 0
 49 333.907579184 56.1949142937 344.857488052 70 355 c 0
 119.040321568 391.029624009 185.934906143 408 211 408 c 0
 239.091115812 408 289.759947748 384.09896424 296.470628688 324.959918374 c 1
567.980155999 282.741108077 m 1
 569.638315991 275.940335662 l 1
 482.165931448 254.612874668 345.313074676 215.408911687 261.955571574 191.116477112 c 1
 259.997070312 197.836914062 l 1
 258.038569051 204.557351013 l 1
 341.493565949 228.878197688 478.348354112 268.092203251 566.321996008 289.541880492 c 1
 567.980155999 282.741108077 l 1
EndSplineSet
Fore
SplineSet
423 382 m 3
 363.460097414 382 289 343 287 213 c 1
 542 284 l 2
 547.309922073 285.478448891 547 286 544 292 c 0
 526.194484648 327.611030704 487.989257812 382 423 382 c 3
287 198 m 1
 287 75.4580078125 337.442382812 7 403 7 c 3
 446.178710938 7 498 26 558 70 c 1
 565 60 l 1
 525.441860465 27 464.220930233 -7 403 -7 c 3
 349.915199416 -7 320.612304688 28.3291015625 299 65 c 1
 234.135742188 23.677734375 162.188347406 -17 91 -17 c 3
 41 -17 32 17 32 64 c 3
 32 87 38.8470368745 106.388147498 42 119 c 0
 43 123 49.1568717393 129.645406904 54 132 c 0
 115.716979572 162.005064126 202.38671875 187.154296875 273 209 c 1
 273.004882812 215.904296875 273.613970951 225.630520698 274 232 c 0
 278 298 305 326 260 372 c 0
 248.263672233 383.997135051 229 394 212 394 c 3
 173 394 63 353 63 320 c 3
 63 311 66 303 68 298 c 1
 55 293 l 1
 51 303 49 310 49 320 c 3
 49 334 56.1350850374 344.813531864 70 355 c 0
 119 391 186 408 211 408 c 3
 240.477905035 408 293 382 299 324 c 1
 330 381 388.0129415 396 423 396 c 3
 482.076923077 396 525.008719162 355.784305508 551 309 c 0
 556 300 557 296 575 287 c 1
 574 277 l 1
 487.90625 256.122807018 371.28125 222.561523438 287 198 c 1
273 195 m 1
 197 174 88.8119117814 134.405955891 68 124 c 0
 60 120 46 109 46 64 c 3
 46 7 59 -3 91 -3 c 3
 158.850585938 -3 241 42 293 78 c 1
 275.151367188 118.6796875 271.950195312 169.365234375 273 195 c 1
EndSplineSet
Substitution2: "pcap-1" ae.pcap
Substitution2: "case-1" AE
Substitution2: "smcp-1" ae.smcp
EndChar
StartChar: eth
Encoding: 240 240 453
Width: 471
UnlinkRmOvrlpSave: 1
Flags: HW
HStem: -5 49<172.89 302.553> 359 46<174.141 312.607> 700 27.4531<77.2373 85.8109>
VStem: 28 64<133.432 266.724> 366 69<130.061 336.627>
LayerCount: 2
Fore
SplineSet
373 240 m 1
 366.085365854 304 296.944701242 371 211 371 c 3
 144.123076923 371 85 327.004882812 85 238 c 3
 85 131.886348515 144.717724609 37 247 37 c 3
 335.834446958 37 373 120.617793216 373 194 c 3
 373 425.426736637 230.950166113 630.048192771 74 716 c 1
 75.0837517488 718.745947016 77.2373046875 727.453125 77.2373046875 727.453125 c 1
 258.237172007 675.166289781 431 439.719447105 431 235 c 3
 431 113.962890625 328.998490768 -5 193 -5 c 3
 109.911132812 -5 28 80.923828125 28 171 c 3
 28 326.389648438 171.610169492 405 257 405 c 3
 301.295507545 405 339.874114323 389.328900641 368 370 c 1
 373 240 l 1
EndSplineSet
Refer: 1970 58113 N 0.284488 0.177084 -0.547233 0.872389 104.756 489.958 2
Substitution2: "pcap-1" eth.pcap
Substitution2: "case-1" Eth
Substitution2: "smcp-1" eth.smcp
EndChar
StartChar: thorn
Encoding: 254 254 317
Width: 515
VWidth: 1159
Flags: W
HStem: -348 32<8.34375 55.6963> -342 34<151.753 229> -10 46<184.803 329.513> 369 43<198.188 323.819> 654 29<16 45.5305>
VStem: 67 82<-302.037 -18.4171> 80 65<-197.411 7 69.4004 345.78 368 599.495> 406 69<130.435 275.055>
LayerCount: 2
Fore
SplineSet
145 332 m 9x3b
 144 241 143 189 143 98 c 3
 143 92 147 85 154 79 c 0
 185 52 227 36 268 36 c 3
 345 36 406 96 406 180 c 3
 406 270 352 369 251 369 c 3
 207 369 155 342 145 332 c 9x3b
76 31 m 24
 79.1289 217.79 80 367 80 510 c 3
 80 570 80 607 76 627 c 0
 71 654 64 656 46 656 c 3
 36 656 25 654 16 654 c 1
 11 683 l 1
 48 690 104 718 154 759 c 1
 175 743 l 1
 165 717 157 687 156 667 c 0
 151 599 145 484 145 368 c 1xbb
 178 382 234 412 294 412 c 3
 399 412 475 315 475 223 c 3
 475 94 363.004 -10 225 -10 c 3
 198 -10 170 -2 144 7 c 1
 144 -75 144 -247 149 -284 c 0
 151 -299 170 -303 181 -304 c 0
 197 -305 216 -307 230 -308 c 1
 229 -342 l 1x7d
 190 -341 159 -339 117 -339 c 3
 87 -339 39 -344 9 -348 c 1
 6 -316 l 1
 17 -315 25 -313 36 -311 c 0
 59 -305 65 -294 67 -266 c 0xbd
 72 -214 74.0589 -84.8672 76 31 c 24
EndSplineSet
Validated: 1
Substitution2: "pcap-1" thorn.pcap
Substitution2: "case-1" Thorn
Substitution2: "smcp-1" thorn.smcp
EndChar
StartChar: Aogonek
Encoding: 260 260 255
Width: 719
Flags: HW
HStem: -256.515 56.804<448.75 524.105> -4 20<26 54.2745 178.316 229.2 656.807 697> 247 38<229 455>
VStem: 377.549 59.298<-188.305 -85.422>
AnchorPoint: "Top" 371 699 basechar 0
AnchorPoint: "Bottom" 365 -15 basechar 0
LayerCount: 2
Fore
SplineSet
214 274 m 1
 263 273 466 269 515 267 c 1
 478 367 405 579 370 681 c 1
 344 617 273.733398438 430.875 214 274 c 1
602.822888701 8.99999479768 m 0
 607.808993125 11.9560112642 610.307722617 13.059312396 610.307722617 15.9166609965 c 0
 610.307722617 18.0814610644 608.873461013 21.2530779742 606 27 c 0
 584 71 543 190 520 253 c 1
 460 255 258 259 208 260 c 1
 180 186 137.803320313 81.6066406266 114 34 c 0
 99 4 125 17 231 4 c 1
 229 -10 l 1
 191.327148438 -5.205078125 135.825195312 -0.8798828125 86.9189453125 -0.8798828125 c 0
 64.42578125 -0.8798828125 43.3271484375 -1.794921875 26 -4 c 1
 24 10 l 1
 80 17 87.9272384267 16.5446634736 100 39 c 0
 150 132 286.957142947 511.113826355 354 679 c 0
 358.340820312 689.870117188 361 695 363 710 c 1
 376 708 l 1
 378 699 380.705786323 693.253820037 384 683 c 0
 455 462 581.797851562 106.404296875 620 30 c 0
 629 12 638 14 698 10 c 1
 697 -4 l 1
 678.143975941 -2.5894206672 655.780171505 -2.46787460671 632 -0.3935546875 c 0
 618.84251794 0.754158949364 605.961890216 -5.46827416031 593.796795552 -12.999994681 c 0
 465.548264402 -92.4019328106 419 -171.599763786 419 -236 c 0
 419 -294.384765625 461.377929688 -329 515 -329 c 0
 541.979492188 -329 574.373046875 -311.838867188 607.61328125 -264.354492188 c 1
 607.61328125 -264.354492188 619.812491269 -269.376915143 617.58203125 -273.015625 c 0
 593.002929688 -313.11328125 551.592773438 -343.415039062 513.819335938 -343.415039062 c 0
 455.927734375 -343.415039062 404.6796875 -303.333984375 404.6796875 -236.275390625 c 0
 404.6796875 -137.817997398 499.513045059 -52.2473383905 602.822888701 8.99999479768 c 0
EndSplineSet
Position2: "cpsp-1" dx=0 dy=0 dh=50 dv=100
Substitution2: "c2pc-1" aogonek.pcap
Substitution2: "c2sc-1" aogonek.smcp
EndChar
StartChar: Eogonek
Encoding: 280 280 258
Width: 639
UnlinkRmOvrlpSave: 1
Flags: HW
HStem: -269.514 56.8037<458.75 534.105> -9 19<29.8947 65.095> -2.2656 14.7188<550.809 566.714> 346 28<193 384.216> 690 14<41 73.102>
VStem: 387.549 59.2979<-201.304 -104.53> 498 20<246 305.484 409.875 451.75> 535 19<563 639.12> 608 17<149.154 163.471>
LayerCount: 2
Fore
SplineSet
41 704 m 1
 90.1357421875 703.622070312 170.69921875 703.244140625 254.291015625 703.244140625 c 0
 391.861328125 703.244140625 540.292658277 720.351036255 565 708 c 0
 569.579101562 705.7109375 571.483398438 704.276367188 571.483398438 698.485351562 c 0
 571.483398438 686.571289062 563.420898438 656.209960938 554 562 c 1
 540 563 l 1
 549 660.444335938 562.500894645 694.811157616 549 693 c 0
 530.844726562 690.564453125 430.920898438 689.60546875 291 689.60546875 c 0
 246.005859375 689.60546875 196.875973955 689.258336587 145 689 c 0
 139.901367188 688.974609375 135 687.098632812 135 682 c 0
 135 617.244140625 135 439.439453125 135 367 c 1
 201.666992188 367 447.307617188 367 491 367 c 0
 499.586914062 367 503 424.84765625 505 452 c 1
 519 451 l 1
 515.86328125 425.907226562 514.366210938 385.236328125 514.366210938 344.703125 c 0
 514.366210938 307.702148438 515.614257812 270.815429688 518 246 c 1
 504 245 l 1
 499.690429688 303.154296875 500.747070312 353 491 353 c 0
 374.588867188 353 233.813476562 353 135 353 c 1
 134 263.71875 134 89.904296875 134 23 c 0
 134 16.9169921875 136.876951895 12.0112775696 141 12 c 0
 166.706054688 11.9296875 252.858398438 14.115234375 350.762695312 14.115234375 c 0
 414.646745326 14.115234375 528.06314641 11.4135719804 531 13 c 0
 580.996466894 40.0070650573 593 102 611 166 c 1
 625 161 l 1
 608.373627772 106.586418161 605 39 534.497285019 -3.41531241828 c 1
 391.89636507 -84.9569492259 337 -169.086861812 337 -236 c 0
 337 -294.384765625 379.377929688 -329 433 -329 c 0
 459.979492188 -329 492.373046875 -311.838867188 525.61328125 -264.354492188 c 1
 525.61328125 -264.354492188 537.812491269 -269.376915143 535.58203125 -273.015625 c 0
 511.002929688 -313.11328125 469.592773438 -343.415039062 431.819335938 -343.415039062 c 0
 373.927734375 -343.415039062 322.6796875 -303.333984375 322.6796875 -236.275390625 c 0
 322.6796875 -143.380117848 409.84463381 -62.1416229953 508.077443254 -2.47787249565 c 1
 458.71695821 -0.995155342826 385.025591814 0.0185546875 309.508789062 0.0185546875 c 0
 194.254882812 0.0185546875 74.75 -2.3427734375 31 -9 c 1
 29 5 l 1
 71.3837890625 10.9072265625 119.791094668 10.3574211456 120 33 c 0
 120.828125 122.7578125 121.189453125 249.608398438 121.189453125 376.1171875 c 0
 121.189453125 481.891601562 122.225646699 590.606431848 121 674 c 0
 120.831054688 685.495117188 89.2353515625 688.518554688 41 690 c 1
 41 704 l 1
EndSplineSet
Position2: "cpsp-1" dx=0 dy=0 dh=50 dv=100
Substitution2: "c2pc-1" eogonek.pcap
Substitution2: "c2sc-1" eogonek.smcp
EndChar
StartChar: eogonek
Encoding: 281 281 336
Width: 414
UnlinkRmOvrlpSave: 1
Flags: HW
HStem: -196.523 45.1279<256.447 322.69> -7 35<177.694 286.248> 376 20<168.781 232.156>
VStem: 34 61<110.281 224.686 236 282.35> 196.542 53.208<-146.224 -64.4959>
LayerCount: 2
Fore
SplineSet
362.859375 51.884765625 m 1
 271 -17.4003876098 201 -120.338039341 201 -199.658203125 c 3
 201 -249.881835938 233.224609375 -279.658203125 274 -279.658203125 c 3
 296.8828125 -279.658203125 324.358398438 -265.833007812 352.55078125 -228.916015625 c 1
 352.55078125 -228.916015625 361.245117188 -233.630859375 363.349609375 -237.31640625 c 1
 341.9765625 -269.212890625 305.967773438 -293.31640625 273.12109375 -293.31640625 c 3
 227.392578125 -293.31640625 186.912109375 -258.463867188 186.912109375 -200.151367188 c 3
 186.912109375 -141.941841471 231.052734375 -29.3399766863 357.282226562 61.4453125 c 1
 362.859375 51.884765625 l 1
EndSplineSet
Refer: 293 101 N 1 0 0 1 0 0 3
Substitution2: "smcp-1" eogonek.smcp
Substitution2: "case-1" Eogonek
Substitution2: "pcap-1" eogonek.pcap
EndChar
StartChar: dotlessi
Encoding: 305 305 50
Width: 264
Flags: HMW
HStem: -7 33<15 69 166 236>
VStem: 79 71<57 330>
AnchorPoint: "Top" 132 429 basechar 0
LayerCount: 2
Back
SplineSet
41.1878722965 336.308319326 m 1
 34.4262721499 348.567224801 l 1
 65.0169412742 365.440009509 97.3731535716 394.681041534 118.596681812 420.450185677 c 0
 118.596681812 420.450185677 131 429.071544164 131 416 c 0
 131 8 l 1
 117 8 l 1
 117 397.40771245 l 1
 96.4608760876 375.371982172 68.2775650898 351.250083183 41.1878722965 336.308319326 c 1
234.576135026 15 m 1
 234.576135026 1 l 1
 208 1 l 0
 148.167189214 1 93.6309684547 -0.908276699209 36.1691724517 -5.49513611164 c 1
 35.0551729237 8.46047226105 l 1
 92.9122871755 13.0788877569 147.871611212 15 208 15 c 0
 234.576135026 15 l 1
EndSplineSet
Fore
SplineSet
150 208 m 3
 150 144.962962963 150.020950872 91.9578678262 150 23 c 0
 149.997325382 14.1967415378 151.941176471 15 161 15 c 0
 181 15 221 15 241 15 c 1
 242 1 l 1
 235 1 215 1 208 1 c 0
 146 1 90 -1 30 -6 c 1
 28 -4.25 28 0.125 30 8 c 1
 127 14 l 0
 133.6 14.4736842105 136 15.2733837751 136 23 c 0
 136 80.5673376131 136 128.78807947 136 186 c 3
 136 252.616391021 136.150858311 317.663421404 136 384 c 0
 135.989753727 388.505570109 135.25 393 133 393 c 3
 126.827160494 393 79.9135802469 350.0625 33 333 c 1
 30 347 l 1
 70.1307692308 364 113.676923077 396 141 424 c 1
 151 419 l 1
 150.75 402 150 382.714001111 150 363 c 0
 150 312.675324675 150 257.681818182 150 208 c 3
EndSplineSet
Substitution2: "case-1" I
Substitution2: "pcap-1" i.pcap
Substitution2: "smcp-1" i.smcp
EndChar
StartChar: oe
Encoding: 339 339 585
Width: 740
UnlinkRmOvrlpSave: 1
Flags: HW
HStem: -4 21<213.737 312.228> 394 23<183.876 282.08>
VStem: 28 65<136.362 293.127> 399 65<114.357 282.92>
AnchorPoint: "Top" 395 465 basechar 0
AnchorPoint: "Bottom" 393 -15 basechar 0
LayerCount: 2
Fore
SplineSet
204 410 m 3
 302.4375 410 379 321 379 202 c 3
 379 80 303.075848214 -11 201 -11 c 3
 107.964483963 -11 28 79 28 198 c 3
 28 314 109.052891523 410 204 410 c 3
204 396 m 3
 116.101354981 396 42 305.249023438 42 198 c 3
 42 87.8271484375 114.790605096 3 201 3 c 3
 295.376795419 3 365 87.400390625 365 202 c 3
 365 313.3515625 294.870982496 396 204 396 c 3
EndSplineSet
Refer: 293 101 N 1 0 0 1 331 0 2
Substitution2: "smcp-1" oe.smcp
Substitution2: "case-1" OE
Substitution2: "pcap-1" oe.pcap
EndChar
StartChar: uogonek
Encoding: 371 371 2281
Width: 512
UnlinkRmOvrlpSave: 1
Flags: HW
HStem: -248.523 45.1279<308.447 374.69> -4 43<180.512 271.959> 26 15<488.103 509.867> 347 12<25 38.3301> 360 18<307 355.329> 387 26<132 161 420.5 446>
VStem: 81 67<72.8435 345.445> 248.542 53.208<-198.224 -116.496> 366 67<71.5641 319.205> 373 73<165.286 357.317>
LayerCount: 2
Fore
SplineSet
437.859375 3.884765625 m 1
 327 -29.1239520272 276 -120.766297142 276 -189.658203125 c 3
 276 -246.159790039 308.224609375 -279.658203125 349 -279.658203125 c 3
 371.8828125 -279.658203125 399.358398438 -265.833007812 427.55078125 -228.916015625 c 1
 427.55078125 -228.916015625 436.245117188 -233.630859375 438.349609375 -237.31640625 c 1
 416.9765625 -269.212890625 380.967773438 -293.31640625 348.12109375 -293.31640625 c 3
 302.392578125 -293.31640625 261.912109375 -254.722921076 261.912109375 -190.151367188 c 3
 261.912109375 -121.129260667 314 -19.234369525 433.282226562 13.4453125 c 1
 437.859375 3.884765625 l 1
EndSplineSet
Refer: 811 117 N 1 0 0 1 0 0 3
Substitution2: "smcp-1" uogonek.smcp
Substitution2: "case-1" Uogonek
Substitution2: "pcap-1" uogonek.pcap
EndChar
StartChar: uni0191
Encoding: 401 401 1993
Width: 566
Flags: HW
HStem: -241 62<-84.3474 10.9483> 332 39<186 389.616> 654 31<17 81.7781> 680 20G<514.478 525.182>
VStem: 105.748 80.252<-68.878 332 371 637.89> 451 36<246.75 303.707 394.284 440.094> 499 31<534 596.775>
LayerCount: 2
Fore
SplineSet
100 613 m 0xde
 99 640 85 640 12 654 c 1
 17 685 l 1xee
 72.5693359375 682.208007812 135.545898438 680.974609375 197.612304688 680.974609375 c 3
 357.814453125 680.974609375 511.955078125 689.188476562 517 700 c 1
 533.364257812 690.374023438 538 683 538 662 c 0
 538 640 532.59375 602.985351562 530 534 c 1
 499 531 l 1
 488 567 492.194335938 614.658203125 456 625 c 0
 393 643 292.116210938 650.012695312 211 641 c 0
 193 639 189.889648438 622.005859375 189 604 c 0
 185 523 186 446 186 371 c 1
 250 373 382.090820312 369.120117188 396 371 c 0
 433 376 439 402 455 446 c 1
 489 439 l 1
 480.80078125 408.1328125 477.486328125 377.498046875 477.486328125 346.872070312 c 3
 477.486328125 313.998046875 481.305664062 281.1328125 487 248 c 1
 451 239 l 1
 431 310 436.931640625 322.348632812 396 327 c 0
 352 332 278 331 185 332 c 1
 183.518987342 219 183.857421875 264.909513116 183.857421875 156 c 3
 183.857421875 -45.5189056133 181.691494061 -104.752042573 60 -189 c 0
 21 -216 -16 -241 -75 -241 c 3
 -107 -241 -157 -230 -182 -208 c 1
 -180.775510204 -178.046875 -182 -178.046875 -122 -137 c 1
 -83 -155 -59.650848842 -179 -14 -179 c 3
 123.758644643 -179 105.748046875 -3.25197176855 105.748046875 129 c 3
 105.748046875 269.484864474 102.712540065 539.779746226 100 613 c 0xde
EndSplineSet
EndChar
StartChar: florin
Encoding: 402 402 373
Width: 357
Flags: HW
HStem: -326 36<-14.0642 20.4431> 355 46<39 113 187 338> 701 55<273.481 377.117>
VStem: 113 73<-170.918 360 397 602.722>
LayerCount: 2
Fore
SplineSet
114 266 m 1
 114 286 113 323 113 360 c 1
 88 359 64 356 39 355 c 1
 39 401 l 1
 64 400 88 398 113 397 c 1
 113 436 113 481 113 493 c 3
 113 601 156.035980107 656.947986228 224 704 c 0
 263 731 300 756 359 756 c 3
 391 756 441 745 466 723 c 1
 465 696 466 696 417 659 c 1
 378 677 347 701 309 701 c 3
 206 701 202.089643728 608.896437283 191 498 c 0
 190 488 188 435 187 397 c 1
 239 399 286 399 338 401 c 1
 338 355 l 1
 286 357 238 358 186 360 c 1
 185 330 185 305 185 293 c 1
 184.164092406 225.85 184.42446481 171.543697529 183.345703125 55 c 0
 182.342007512 -53.4339567976 179.423768932 -124.413476345 170.249023438 -172 c 0
 157.630814681 -237.446686212 132.308131815 -279.271062226 103.470703125 -323 c 1
 93.330078125 -322 94.189453125 -321 52.189453125 -321 c 3
 31.189453125 -321 -0.248046875 -325 -12.1083984375 -326 c 1
 -22.1669921875 -290 l 1
 34.828869585 -275.843201216 67.8420667116 -238.660890175 86.3564453125 -187 c 0
 106.080112104 -131.964818646 115.098427084 -53.1177976917 117.264648438 20 c 0
 119.252828284 87.1082535059 114.822504473 193.318181818 114 266 c 1
EndSplineSet
EndChar
StartChar: Ohorn
Encoding: 416 416 2479
Width: 793
UnlinkRmOvrlpSave: 1
Flags: HW
HStem: -7 50<342.523 545.448> 594.133 32.8672<626.38 718.511> 657 49<304.396 495.712>
VStem: 43 93<267.4 455.825> 701 101<222.803 442.21> 752 88.6436<675.042 757.455>
AnchorPoint: "Top" 420 699 basechar 0
AnchorPoint: "Bottom" 416 -15 basechar 0
AnchorPoint: "Middle" 417.697 364.853 basechar 0
LayerCount: 2
Fore
SplineSet
752 688 m 3xf4
 752 709.041992188 737.181640625 725.625976562 713 743 c 1
 725.31640625 773.641601562 749.9765625 792.919921875 776.541992188 792.919921875 c 3
 815.244140625 792.919921875 840.643554688 764.76171875 840.643554688 735.86328125 c 3
 840.643554688 658.776367188 740.266601562 594.1328125 659.493164062 594.1328125 c 3
 648.712890625 594.1328125 639.3671875 598.567382812 630 606 c 1
 586 657 l 1
 607.8671875 639.8828125 627.685546875 627 652 627 c 3
 692.520507812 627 752 646.424804688 752 688 c 3xf4
EndSplineSet
Refer: 2473 79 N 1 0 0 1 0 0 2
Position2: "cpsp-1" dx=0 dy=0 dh=50 dv=100
Substitution2: "c2pc-1" ohorn.pcap
Substitution2: "c2sc-1" ohorn.smcp
EndChar
StartChar: uni01B4
Encoding: 436 436 1997
Width: 540
Flags: HW
HStem: 364.697 54.3027<404.045 491.096> 376 30<9.2 36.5759 167 185.889>
VStem: 460 80<313.241 364.031>
LayerCount: 2
Fore
SplineSet
348.607721582 244.000003017 m 0xa0
 317.480216416 177.891097822 270.643813919 81.1219999326 223 -12 c 0
 179 -98 113 -281 113 -346 c 1
 109 -346 90 -343 52 -343 c 3
 22 -343 15 -345 -6 -346 c 1
 -6 -346 -5 -330 -7 -319 c 1
 85 -283 73 -255 176 -32 c 1
 148 100.845703125 84.3007692526 310.427472496 58 348 c 0
 51 358 47.9141031266 367.57464375 37 370 c 0
 28 372 16 375 6 376 c 1
 10 406 l 1x60
 33 402 68 400 91 400 c 3
 125 400 153 401 185 407 c 1
 189 379 l 1
 156 370 l 0
 149 369 145 368 145 359 c 3
 145 358 147.182637941 351.033082481 148 346 c 0
 160 272.107421875 192 153.462890625 226 65 c 1
 253.787010354 108.25843066 277.318015944 161.613683748 301.833476298 212.999996349 c 0
 340 293 365.956234083 419 468.797851562 419 c 3
 513.394001396 419 540 389.1786974 540 355.576171875 c 3
 540 317.727644957 518.04296875 299.151367188 494.890625 299.151367188 c 3
 477.447265625 299.151367188 459.326171875 306.061106972 449.40234375 319.6875 c 1
 455.037981899 328.571965144 460 333.211388221 460 350 c 3
 460 358.212890625 451.46067245 364.697265625 441.439453125 364.697265625 c 3
 400.623221682 364.697265625 372.050906445 293.788872291 348.607721582 244.000003017 c 0xa0
EndSplineSet
EndChar
StartChar: uni01EB
Encoding: 491 491 945
Width: 492
UnlinkRmOvrlpSave: 1
Flags: HW
HStem: -326 60.1279<272.366 350.024> -11 39<199.926 327.747> 374 45<168.903 305.133>
VStem: 32 76<130.211 291.037> 187.912 69.209<-252.6 -139.048> 395 78<107.641 276.826>
AnchorPoint: "Top" 251 465 basechar 0
AnchorPoint: "Middle" 255 206 basechar 0
LayerCount: 2
Fore
SplineSet
360.98046875 13.54296875 m 1
 270.727539062 -74.0302734375 257.12109375 -115.682617188 257.12109375 -196 c 3
 257.12109375 -239.865234375 282.45703125 -265.872070312 314.515625 -265.872070312 c 3
 334.268554688 -265.872070312 357.986328125 -255.18359375 382.322265625 -231.599609375 c 9
 382.322265625 -231.599609375 393.431640625 -241.926757812 396.12109375 -250 c 1
 369.1171875 -302.788085938 323.62109375 -326 282.12109375 -326 c 3
 232.149414062 -326 187.912109375 -288.154296875 187.912109375 -224.834960938 c 3
 187.912109375 -172.674804688 223.05859375 -76.5009765625 320.63671875 8 c 9
 360.98046875 13.54296875 l 1
EndSplineSet
Refer: 566 111 N 1 0 0 1 0 0 3
Substitution2: "case-1" uni01EA
EndChar
StartChar: uni0237
Encoding: 567 567 52
Width: 271
VWidth: 1159
Flags: HMW
VStem: -27 27<-331 -293> 82 68<-160 327>
AnchorPoint: "Top" 166.5 526 basechar 0
LayerCount: 2
Back
SplineSet
52.5084261606 333.693005931 m 1
 49.8000279897 340.14781649 l 1
 98.200713123 360.456441491 138.043641387 389.774360436 170.036457285 420.482703784 c 2
 181.822113026 431.795179818 l 1
 181.883739255 415.459023677 l 2
 181.97846534 390.348609739 182 371.002563541 182 342.07421875 c 2
 182 200.061523438 l 1
 182 -96 l 2
 182 -173.496090899 153.509654536 -200.374213772 83.56320862 -267.513899524 c 0
 67.3605182862 -283.066420071 49.4723440747 -296.262060194 43.3720835211 -330.314842036 c 1
 36.4817710856 -329.080502318 l 1
 29.5914586501 -327.846162599 l 1
 36.5360990924 -289.079896162 58.6117932661 -272.058266275 73.868432005 -257.413834851 c 0
 144.490345464 -189.625786228 168 -168.412512722 168 -96 c 2
 168 200.061523438 l 1
 168 342.07421875 l 2
 168 364.819115707 167.990355696 379.690773807 167.936471855 399.444717852 c 1
 137.39387978 372.17979553 99.7023655683 345.904050462 55.2168243315 327.238195373 c 1
 52.5084261606 333.693005931 l 1
EndSplineSet
Fore
SplineSet
29 -335 m 1
 32 -301.375 47 -282 75 -256 c 0
 131.596839089 -203.445792275 155 -178 164 -138 c 0
 170.390730034 -109.596755405 168 -101.17670932 168 80 c 3
 168 183.260115607 168 359.905405405 168 388 c 0
 168 390.941176471 168.123105626 393 164 393 c 3
 153.950124379 393 120 351 47 325 c 1
 43 338 l 1
 96.1328671329 359 139.188811189 390 174 424 c 1
 182 419 l 1
 182 396.108108108 182 364.891891892 182 342 c 0
 182 295 182 247 182 200 c 0
 182 99.8782608696 182 -1.12173913043 182 -103 c 0
 182 -140.085106383 169.094681816 -171.599152071 159 -186 c 0
 138.734557358 -214.910228475 111.060351844 -242.602730401 84 -267 c 0
 66 -283.228571429 47.1428571429 -298.414285714 42 -338 c 1
 29 -335 l 1
EndSplineSet
EndChar
StartChar: uni028B
Encoding: 651 651 1981
Width: 470
Flags: HW
HStem: -9 56<167.951 298.225> 347 83<284.635 361.574> 402 20G<128 167>
VStem: 70 76<70.0006 328.993> 402 34<167.774 308.131>
AnchorPoint: "Bottom" 227 -15 basechar 0
AnchorPoint: "Top" 240 465 basechar 0
LayerCount: 2
Fore
SplineSet
146 135 m 3xb8
 146 63.7197265625 190.247070312 47 220 47 c 3
 340.956054688 47 402 155.11328125 402 255 c 3
 402 339.520507812 319 347 268 347 c 1
 266 350 264 353 264 361 c 3
 264 383 294 422 301 430 c 1xd8
 382 430 436 331.124023438 436 251 c 3
 436 124.973632812 351.336914062 -9 204 -9 c 3
 132.245117188 -9 70 38.2607421875 70 131 c 3
 70 189.905273438 73 250.953125 73 312 c 0
 73 322 69 331 59 331 c 3
 49 331 28 319 22 317 c 1
 12 348 l 1
 53 359 107 394 149 422 c 1
 167 406 l 1
 152 323.161132812 146 226.122070312 146 135 c 3xb8
EndSplineSet
EndChar
StartChar: gravecomb
Encoding: 768 768 413
Width: 0
Flags: HW
HStem: 434 159
VStem: -350 177
AnchorPoint: "Top" -198.5 409 mark 0
LayerCount: 2
Fore
SplineSet
-173 444 m 1
 -183 434 l 1
 -225 491 -292 558 -327 583 c 1
 -321.954235294 588.876969697 -316 593 -316 593 c 1
 -268.194 555.523 -205 488 -173 444 c 1
EndSplineSet
EndChar
StartChar: acutecomb
Encoding: 769 769 92
Width: 0
VWidth: 1159
Flags: HW
HStem: 434 159
VStem: -226 177
AnchorPoint: "Top" -198.5 410 mark 0
LayerCount: 2
Fore
SplineSet
-226 444 m 1
 -194 488 -130.806 555.523 -83 593 c 1
 -83 593 -77.0457647059 588.876969697 -72 583 c 1
 -107 558 -174 491 -216 434 c 1
 -226 444 l 1
EndSplineSet
EndChar
StartChar: uni0302
Encoding: 770 770 1108
Width: 0
Flags: HW
HStem: 431 162
VStem: -300 205
AnchorPoint: "Top" -198.5 409 mark 0
LayerCount: 2
Fore
SplineSet
-95 437 m 1
 -106 431 l 1
 -198 573 l 1
 -289 431 l 1
 -300 437 l 1
 -202 593 l 1
 -193 593 l 1
 -95 437 l 1
EndSplineSet
EndChar
StartChar: tildecomb
Encoding: 771 771 796
Width: 0
Flags: HW
HStem: 433.333 44.667<-235.912 -126.623> 458.115 44.2051<-285.912 -175.86>
VStem: -322.167 227.589
AnchorPoint: "Top" -210 382 mark 0
LayerCount: 2
Fore
SplineSet
-322.167 434.418 m 1x60
 -299 473 -264.009 502.32 -258.155 502.32 c 3x60
 -222.962037964 502.32 -179 448 -156 448 c 3
 -148 448 -120 484 -106.6484375 512.475585938 c 1
 -94.5781 505.405 l 1
 -111 469 -142.422 433.333 -152.222 433.333 c 3xa0
 -188.001549648 433.333 -229 488 -255 488 c 3
 -261.85546875 488 -296 450 -310.987304688 425.993164062 c 1
 -322.167 434.418 l 1x60
EndSplineSet
EndChar
StartChar: uni0306
Encoding: 774 774 1111
Width: 0
Flags: HW
HStem: 443.983 33.7665<-261.653 -133.958>
VStem: -308.065 11.4<514.652 521.381>
AnchorPoint: "Top" -198.5 393 mark 0
LayerCount: 2
Fore
SplineSet
-308.065 516.796 m 1
 -294.665039062 522.262695312 l 1
 -282.477490067 479.294265007 -240.204607283 457.749023438 -197.81640625 457.749023438 c 3
 -155.502566491 457.749023438 -113.073827751 479.213126058 -100.334960938 522.262695312 c 1
 -86.9346 516.796 l 1
 -103.0223 468.254 -150.55365 443.983 -197.9387 443.983 c 3
 -245.32375 443.983 -292.5625 468.254 -308.065 516.796 c 1
EndSplineSet
EndChar
StartChar: hookabovecomb
Encoding: 777 777 432
Width: 0
Flags: HW
HStem: 617.275 13.0498<-235.747 -209.424>
VStem: -285.815 43.8457<573.872 613.156> -240.14 29.5801<474.182 525.926> -193.68 37.4951<540.553 613.132>
AnchorPoint: "Top" -221.5 444 mark 0
AnchorPoint: "TopMark" -219.5 639 basemark 0
AnchorPoint: "TopMark" -221.5 445 mark 0
LayerCount: 2
Fore
SplineSet
-269.815429688 577.254882812 m 1
 -267.954385875 610.800829132 -248.630592523 629.325195312 -220.650390625 629.325195312 c 3
 -189.169599932 629.325195312 -169.184570312 599.114141397 -169.184570312 576.384765625 c 3
 -169.184570312 517.127035881 -218 534.918334961 -218 508 c 3
 -218 493.673831613 -209.787468397 475.254418248 -205.33984375 466.764648438 c 1
 -213.169921875 460.674804688 l 1
 -222.074508022 469.971080317 -232 490.072680259 -232 508 c 3
 -232 555.718309858 -184 529.239436619 -184 576 c 3
 -184 601.465654233 -205.474019704 616.275390625 -221.349609375 616.275390625 c 3
 -236.562013455 616.275390625 -256.055298149 605.395956227 -255.969726562 571.424804688 c 1
 -258.859376085 571.424804688 -266.564766276 571.424804688 -269.815429688 577.254882812 c 1
EndSplineSet
EndChar
StartChar: uni030A
Encoding: 778 778 98
Width: 0
VWidth: 1159
Flags: HW
HStem: 425.037 21.2695<-231.073 -166.029> 555.693 21.2695<-229.971 -164.927>
VStem: -275.451 21.6846<467.554 532.506> -142.233 21.6846<469.494 533.339>
AnchorPoint: "Top" -198.5 395 mark 0
LayerCount: 2
Fore
SplineSet
-198 562.963 m 3
 -230.871931137 562.963 -261.451 535.997366022 -261.451 499.51 c 3
 -261.451 463.29047568 -233.089612462 439.037 -198 439.037 c 3
 -165.127898555 439.037 -134.549 466.001659572 -134.549 502.49 c 3
 -134.549 535.803425435 -163.429726461 562.963 -198 562.963 c 3
-198 576.963 m 3
 -156.296 576.963 -120.549 544.193 -120.549 502.49 c 3
 -120.549 457.806 -157.785 425.037 -198 425.037 c 3
 -239.704 425.037 -275.451 454.827 -275.451 499.51 c 3
 -275.451 544.193 -238.215 576.963 -198 576.963 c 3
EndSplineSet
EndChar
StartChar: uni0313
Encoding: 787 787 1123
Width: 0
Flags: HW
HStem: 532.09 113.4<-176.271 -141.556> 766.99 113.4<-176.271 -141.556>
VStem: -214.89 114.21<569.6 605.748 804.5 840.649>
AnchorPoint: "Top" -198.5 414 mark 0
LayerCount: 2
Fore
SplineSet
-210.665039062 461.453125 m 1
 -217.865234375 473.203125 l 1
 -186.137135506 493.74004509 -151.730143695 540.888347213 -168.46484375 571.153320312 c 0
 -172.455471114 578.37043382 -180.284516478 583.515844058 -188.46484375 587.153320312 c 0
 -191.46484375 588.487304688 -194.46484375 591.153320312 -194.46484375 595.153320312 c 3
 -194.46484375 599.953125 -192.679640113 602.109229083 -189.46484375 603.153320312 c 0
 -181.58984375 605.7109375 -176.043992202 611.533746756 -171.46484375 620.153320312 c 0
 -170.319335938 622.309570312 -168.283203125 625.153320312 -164.46484375 625.153320312 c 3
 -160.80859375 625.153320312 -158.836825503 622.314494685 -157.76171875 620.0234375 c 0
 -153.736328125 611.4453125 -147.203058794 606.825334836 -139.46484375 603.153320312 c 0
 -136.608398438 601.797851562 -133.46484375 599.953125 -133.46484375 595.153320312 c 3
 -133.46484375 590.531624397 -141.762886443 511.519783949 -210.665039062 461.453125 c 1
EndSplineSet
EndChar
StartChar: uni0314
Encoding: 788 788 694
Width: 0
VWidth: 1159
Flags: HW
HStem: 532.09 113.4<-176.271 -141.556> 766.99 113.4<-176.271 -141.556>
VStem: -214.89 114.21<569.6 605.748 804.5 840.649>
AnchorPoint: "TopMark" -231 409 mark 0
AnchorPoint: "TopMark" -227 631 basemark 0
AnchorPoint: "Top" -224 414 mark 0
LayerCount: 2
Fore
SplineSet
-186.665039062 461.453125 m 1
 -255.567191682 511.519783949 -263.865234375 590.531624397 -263.865234375 595.153320312 c 3
 -263.865234375 599.953125 -260.721679688 601.797851562 -257.865234375 603.153320312 c 0
 -250.127019331 606.825334836 -243.59375 611.4453125 -239.568359375 620.0234375 c 0
 -238.493252622 622.314494685 -236.521484375 625.153320312 -232.865234375 625.153320312 c 3
 -229.046875 625.153320312 -227.010742188 622.309570312 -225.865234375 620.153320312 c 0
 -221.286085923 611.533746756 -215.740234375 605.7109375 -207.865234375 603.153320312 c 0
 -204.650438012 602.109229083 -202.865234375 599.953125 -202.865234375 595.153320312 c 3
 -202.865234375 591.153320312 -205.865234375 588.487304688 -208.865234375 587.153320312 c 0
 -217.045561647 583.515844058 -224.874607011 578.37043382 -228.865234375 571.153320312 c 0
 -245.59993443 540.888347213 -211.192942619 493.74004509 -179.46484375 473.203125 c 1
 -186.665039062 461.453125 l 1
EndSplineSet
EndChar
StartChar: uni0315
Encoding: 789 789 1125
Width: 0
Flags: HW
HStem: 452.494 200.751
VStem: -49.75 41<581.48 644.952>
AnchorPoint: "TopRight" -110.5 531 mark 0
LayerCount: 2
Fore
SplineSet
-22 647 m 1
 -8.75 643.245117188 l 1
 -22.3867979021 580.436585347 -59.6085214452 503.670714276 -112 452.494140625 c 1
 -120 462.494140625 l 1
 -69 518 -35 588 -22 647 c 1
EndSplineSet
EndChar
StartChar: uni031B
Encoding: 795 795 99
Width: 0
Flags: HW
HStem: 330 18<-84.5 -47.4434>
VStem: 12.8818 62.7432<400.38 466.056>
AnchorPoint: "Horn" -73.5 341.8 mark 0
LayerCount: 2
Back
SplineSet
18 482 m 1
 14.224305048 487.894414952 l 1
 19.4741570158 491.257232082 25.9772464366 492.322265625 32.20703125 492.322265625 c 0
 58.41668426 492.322265625 75.625 468.85104451 75.625 444.775390625 c 0
 75.625 400.084441587 -10.4547576909 335.100215896 -77.1959737841 330.289092835 c 1
 -77.6992714569 337.270975923 l 1
 -78.2025691296 344.25285901 l 1
 -15.5728264267 348.76760143 61.625 413.345571765 61.625 444.775390625 c 0
 61.625 462.987871805 48.9518643707 478.322265625 32.20703125 478.322265625 c 0
 27.7350420804 478.322265625 23.4701398685 477.190969631 21.775694952 476.105585048 c 2
 18 482 l 1
EndSplineSet
Fore
SplineSet
61 444 m 3
 61 451.936537282 55.5401642628 452.688155241 49.79296875 453.677734375 c 1
 51.7713060154 461.241241566 55.7327616492 466 60 466 c 3
 69.4340418354 466 75.625 455.525449514 75.625 444.775390625 c 3
 75.625 399.205078125 -15.2378927954 330.428 -84.5 330 c 1
 -85 344 l 1
 -19.9476610493 345.188839247 61 411.962622281 61 444 c 3
EndSplineSet
EndChar
StartChar: uni0327
Encoding: 807 807 268
Width: 0
UnlinkRmOvrlpSave: 1
Flags: HW
VStem: -195 62.4277<-164.273 -94.0566>
AnchorPoint: "Bottom" -193 -15 mark 0
LayerCount: 2
Back
SplineSet
-225.120916352 -74.1856165361 m 1
 -228.686807042 -68.1619612022 l 2
 -228.685334945 -68.1610897482 -225.026004957 -65.992807998 -222.633135781 -64.5956272758 c 0
 -190.149449495 -45.6286144859 -199.709679015 -42.1290627087 -182.819251595 2.92874652626 c 1
 -176.264648438 0.4716796875 l 1
 -169.71004528 -1.98538715126 l 1
 -184.922683314 -42.5674355156 -179.018186143 -55.3409464899 -215.5738892 -76.685583343 c 0
 -217.902245797 -78.0450955909 -221.555025661 -80.20927187 -221.555025661 -80.20927187 c 1
 -225.120916352 -74.1856165361 l 1
-250.763903593 -181.633762886 m 1
 -207.108385404 -194.231068671 -155.442750875 -168.586522607 -141.910128621 -129.952334167 c 0
 -139.624477163 -123.427043836 -138.397460938 -116.590589843 -138.397460938 -109.42578125 c 0
 -138.397460938 -86.4428664131 -155.467991573 -72.9183478315 -183.811720227 -68.8554150463 c 2
 -192.99790108 -67.5386216275 l 1
 -191.011376165 -53.6802768937 l 1
 -181.825195312 -54.9970703125 l 2
 -150.327436804 -59.5121176184 -124.397460938 -76.9654834903 -124.397460938 -109.42578125 c 0
 -124.397460938 -118.203326019 -125.916431776 -126.64155285 -128.697248386 -134.580486701 c 0
 -145.619190911 -182.890821832 -208.620675385 -211.804822361 -260.293483547 -193.259018521 c 2
 -266.041479133 -191.19601474 l 1
 -264.256464922 -182.760710734 l 1
 -257.408119426 -184.209904981 l 1
 -250.763903593 -181.633762886 l 1
EndSplineSet
Fore
SplineSet
-266 -191 m 1
 -262.825195312 -176.997070312 l 1
 -202 -203 -138 -156.587904457 -138 -110 c 3
 -138 -80.4593010873 -180 -50 -228.825195312 -83.9970703125 c 1
 -232.948242188 -70.4599609375 l 1
 -229.900381065 -68.4461043853 -226.454346079 -67.0645560363 -223.346679688 -65.0732421875 c 0
 -197.867305457 -48.9592270734 -199.139809537 -52.4406090069 -186.624023438 -6.5673828125 c 1
 -171.624023438 -4.5673828125 l 1
 -171.624023438 -4.5673828125 -183.734356951 -49.5430541396 -190 -55 c 1
 -152 -56 -124.397460938 -76.9092393232 -124.397460938 -109.42578125 c 3
 -124.397460938 -172.808030088 -203.505287336 -218.096853073 -266 -191 c 1
EndSplineSet
EndChar
StartChar: uni0328
Encoding: 808 808 1132
Width: 0
Flags: HW
HStem: -223.865 45.1279<-197.553 -131.31>
VStem: -257.458 53.208<-173.566 -91.8377>
AnchorPoint: "Ogonek" -104.35 21.6582 mark 0
LayerCount: 2
Fore
SplineSet
-100.140625 12.54296875 m 1
 -192 -46 -262 -138.892774185 -262 -200 c 3
 -262 -250.223483207 -229.775267134 -280 -189 -280 c 3
 -166.116937317 -280 -138.641932396 -266.174964716 -110.44921875 -229.2578125 c 1
 -110.44921875 -229.2578125 -101.755130374 -233.972499416 -99.650390625 -237.658203125 c 1
 -121.0234375 -269.5546875 -157.032226562 -293.658203125 -189.87890625 -293.658203125 c 3
 -235.607111283 -293.658203125 -276.087890625 -258.805289088 -276.087890625 -200.493164062 c 3
 -276.087890625 -150.739517616 -231.947046648 -54.4937105427 -105.717773438 23.103515625 c 1
 -100.140625 12.54296875 l 1
EndSplineSet
EndChar
